<svg version="1.1" xmlns="http://www.w3.org/2000/svg" xmlns:xlink="http://www.w3.org/1999/xlink" width="398.35626" height="163.23863" viewBox="0,0,398.35626,163.23863"><g transform="translate(-40.82187,-101.08446)"><g data-paper-data="{&quot;isPaintingLayer&quot;:true}" fill-rule="nonzero" stroke="none" stroke-linejoin="miter" stroke-miterlimit="10" stroke-dasharray="" stroke-dashoffset="0" style="mix-blend-mode: normal"><path d="M439.17813,125.1358v120.54708c0,10.27905 -8.35756,18.64021 -18.64379,18.64021h-361.07227c-10.27546,0 -18.6402,-8.36116 -18.6402,-18.64021v-120.55067c0,-10.27905 8.36475,-18.6402 18.6402,-18.6402h361.07227c10.28623,0 18.64379,8.36475 18.64379,18.64379z" fill="#a6a6a6" stroke-width="0" stroke-linecap="butt"/><path d="M439.17813,119.72825v120.54708c0,10.27905 -8.35756,18.64021 -18.64379,18.64021h-361.07227c-10.27546,0 -18.6402,-8.36116 -18.6402,-18.64021v-120.55067c0,-10.27905 8.36475,-18.6402 18.6402,-18.6402h361.07227c10.28623,0 18.64379,8.36475 18.64379,18.64379z" fill="#ffffff" stroke-width="0" stroke-linecap="butt"/><path d="M97.1553,159.19768c-0.46748,0 -0.82588,-0.12856 -1.0752,-0.38567c-0.24542,-0.25711 -0.36814,-0.62525 -0.36814,-1.10441v-5.3526l0.59019,1.64201l-4.35337,-6.17653c-0.17141,-0.26101 -0.24543,-0.54149 -0.22205,-0.84146c0.02727,-0.29996 0.14998,-0.56097 0.36814,-0.78302c0.22205,-0.22205 0.5376,-0.33308 0.94664,-0.33308c0.29217,0 0.55708,0.07402 0.79471,0.22205c0.24153,0.14803 0.47332,0.38177 0.69537,0.70121l2.95094,4.25988h-0.59019l2.95679,-4.25988c0.23374,-0.33113 0.46358,-0.56681 0.68953,-0.70706c0.22595,-0.14414 0.4928,-0.21621 0.80055,-0.21621c0.39346,0 0.70121,0.10129 0.92327,0.30386c0.22205,0.20257 0.33892,0.45579 0.35061,0.75965c0.01169,0.29996 -0.0935,0.60967 -0.31555,0.92911l-4.29494,6.14147l0.57266,-1.64201v5.3526c0,0.99339 -0.47332,1.49008 -1.41996,1.49008zM106.81857,159.23858c-0.97001,0 -1.81537,-0.19089 -2.53606,-0.57266c-0.72069,-0.38177 -1.27777,-0.92911 -1.67123,-1.64201c-0.39346,-0.7129 -0.59019,-1.55631 -0.59019,-2.53021c0,-0.72459 0.11103,-1.37516 0.33308,-1.95171c0.22205,-0.58045 0.54539,-1.0752 0.97001,-1.48424c0.42462,-0.41294 0.93106,-0.72654 1.5193,-0.9408c0.59214,-0.21816 1.2505,-0.32723 1.97509,-0.32723c0.97391,0 1.81926,0.19089 2.53606,0.57266c0.72069,0.38177 1.27972,0.92327 1.67707,1.62448c0.40125,0.70121 0.60188,1.53683 0.60188,2.50684c0,0.74017 -0.11492,1.40048 -0.34476,1.98093c-0.22595,0.57655 -0.54734,1.07325 -0.96417,1.49008c-0.41683,0.41683 -0.92521,0.73433 -1.52514,0.95248c-0.59603,0.21426 -1.25634,0.32139 -1.98093,0.32139zM106.81857,157.15247c0.40515,0 0.75575,-0.09739 1.05182,-0.29217c0.29607,-0.19868 0.52981,-0.49085 0.70121,-0.87652c0.17141,-0.38956 0.25711,-0.88626 0.25711,-1.49008c0,-0.896 -0.18504,-1.55631 -0.55513,-1.98093c-0.36619,-0.42462 -0.8512,-0.63694 -1.45502,-0.63694c-0.39346,0 -0.74212,0.0935 -1.04598,0.28049c-0.29996,0.1831 -0.5337,0.46942 -0.70121,0.85899c-0.16362,0.38567 -0.24542,0.87847 -0.24542,1.47839c0,0.89989 0.18504,1.56799 0.55513,2.0043c0.37009,0.43631 0.84925,0.65447 1.43749,0.65447zM116.67338,159.23858c-0.76354,0 -1.39853,-0.14024 -1.90496,-0.42073c-0.50254,-0.28438 -0.87457,-0.7129 -1.1161,-1.28556c-0.23763,-0.57266 -0.35645,-1.28361 -0.35645,-2.13286v-4.16638c0,-0.46748 0.11882,-0.81808 0.35645,-1.05182c0.24153,-0.23374 0.58435,-0.35061 1.02845,-0.35061c0.44021,0 0.78302,0.11687 1.02845,0.35061c0.24542,0.23374 0.36813,0.58435 0.36813,1.05182v4.24235c0,0.54149 0.11103,0.94469 0.33308,1.20959c0.22205,0.26101 0.57266,0.39151 1.05182,0.39151c0.52981,0 0.96417,-0.18699 1.30309,-0.56097c0.33892,-0.37398 0.50838,-0.86873 0.50838,-1.48424v-3.79824c0,-0.46748 0.11882,-0.81808 0.35645,-1.05182c0.24153,-0.23374 0.5824,-0.35061 1.0226,-0.35061c0.45579,0 0.8025,0.11687 1.04013,0.35061c0.24153,0.23374 0.36229,0.58435 0.36229,1.05182v6.54467c0,0.94664 -0.448,1.41996 -1.34399,1.41996c-0.4441,0 -0.78302,-0.12271 -1.01676,-0.36814c-0.23374,-0.24542 -0.35061,-0.59603 -0.35061,-1.05182v-1.23297l0.28049,0.71874c-0.27269,0.6272 -0.66226,1.11415 -1.16869,1.46086c-0.50254,0.34282 -1.09662,0.51422 -1.78225,0.51422zM125.6526,159.19768c-0.46748,0 -0.82393,-0.12271 -1.06935,-0.36814c-0.24542,-0.24542 -0.36814,-0.59603 -0.36814,-1.05182v-6.54467c0,-0.45579 0.11882,-0.8025 0.35645,-1.04013c0.24153,-0.24153 0.5785,-0.36229 1.01092,-0.36229c0.44021,0 0.77718,0.12076 1.01092,0.36229c0.23374,0.23763 0.35061,0.58435 0.35061,1.04013v0.95833h-0.18115c0.14803,-0.74017 0.47332,-1.31283 0.97586,-1.71797c0.50643,-0.40515 1.15895,-0.63304 1.95756,-0.68368c0.30775,-0.02337 0.54344,0.05454 0.70706,0.23374c0.16751,0.1792 0.25711,0.47137 0.2688,0.87652c0.02337,0.38177 -0.05454,0.68368 -0.23374,0.90574c-0.1753,0.21816 -0.47332,0.35256 -0.89405,0.4032l-0.42073,0.03506c-0.70121,0.06233 -1.22128,0.26685 -1.5602,0.61356c-0.33892,0.34282 -0.50838,0.83951 -0.50838,1.49008v3.43011c0,0.45579 -0.12076,0.8064 -0.36229,1.05182c-0.23763,0.24542 -0.58435,0.36814 -1.04013,0.36814zM141.37432,159.23858c-0.98559,0 -1.84458,-0.19283 -2.57696,-0.5785c-0.73238,-0.38956 -1.2953,-0.9408 -1.68876,-1.6537c-0.39346,-0.7129 -0.59019,-1.55631 -0.59019,-2.53021c0,-0.72459 0.11103,-1.37516 0.33308,-1.95171c0.22205,-0.58045 0.54539,-1.07325 0.97001,-1.47839c0.42462,-0.40515 0.9369,-0.71485 1.53683,-0.92911c0.60382,-0.21816 1.27582,-0.32723 2.01599,-0.32723c0.37788,0 0.78107,0.04675 1.20959,0.14024c0.43242,0.0935 0.85899,0.25127 1.27972,0.47332c0.24542,0.10908 0.41294,0.2649 0.50254,0.46748c0.0935,0.20257 0.12856,0.41294 0.10518,0.63109c-0.02337,0.21426 -0.10129,0.40515 -0.23374,0.57266c-0.12856,0.16362 -0.29217,0.27269 -0.49085,0.32723c-0.19478,0.05454 -0.41489,0.02143 -0.66031,-0.09934c-0.23374,-0.13635 -0.47721,-0.23569 -0.73043,-0.29802c-0.24932,-0.06233 -0.48501,-0.0935 -0.70706,-0.0935c-0.37009,0 -0.69732,0.05843 -0.9817,0.1753c-0.28049,0.11687 -0.51617,0.28438 -0.70706,0.50254c-0.19089,0.21426 -0.33892,0.48111 -0.4441,0.80055c-0.10129,0.31944 -0.15193,0.68758 -0.15193,1.10441c0,0.81419 0.19868,1.45307 0.59603,1.91665c0.40125,0.45968 0.96417,0.68953 1.68876,0.68953c0.22205,0 0.45579,-0.02727 0.70121,-0.08181c0.24542,-0.05843 0.49085,-0.15582 0.73627,-0.29217c0.24542,-0.12076 0.46553,-0.14998 0.66031,-0.08765c0.19868,0.05843 0.35645,0.17141 0.47332,0.33892c0.11687,0.16751 0.18504,0.3584 0.20452,0.57266c0.01948,0.21426 -0.01753,0.42268 -0.11103,0.62525c-0.0935,0.20257 -0.25516,0.36035 -0.48501,0.47332c-0.42073,0.20647 -0.84146,0.35645 -1.26219,0.44995c-0.41683,0.0935 -0.81419,0.14024 -1.19206,0.14024zM149.123,159.23858c-0.76354,0 -1.39853,-0.14024 -1.90497,-0.42073c-0.50254,-0.28438 -0.87457,-0.7129 -1.1161,-1.28556c-0.23763,-0.57266 -0.35645,-1.28361 -0.35645,-2.13286v-4.16638c0,-0.46748 0.11882,-0.81808 0.35645,-1.05182c0.24153,-0.23374 0.58435,-0.35061 1.02845,-0.35061c0.44021,0 0.78302,0.11687 1.02845,0.35061c0.24542,0.23374 0.36814,0.58435 0.36814,1.05182v4.24235c0,0.54149 0.11103,0.94469 0.33308,1.20959c0.22205,0.26101 0.57266,0.39151 1.05182,0.39151c0.52981,0 0.96417,-0.18699 1.30309,-0.56097c0.33892,-0.37398 0.50838,-0.86873 0.50838,-1.48424v-3.79824c0,-0.46748 0.11882,-0.81808 0.35645,-1.05182c0.24153,-0.23374 0.5824,-0.35061 1.0226,-0.35061c0.45579,0 0.8025,0.11687 1.04013,0.35061c0.24153,0.23374 0.36229,0.58435 0.36229,1.05182v6.54467c0,0.94664 -0.448,1.41996 -1.34399,1.41996c-0.4441,0 -0.78302,-0.12271 -1.01676,-0.36814c-0.23374,-0.24542 -0.35061,-0.59603 -0.35061,-1.05182v-1.23297l0.28049,0.71874c-0.27269,0.6272 -0.66226,1.11415 -1.16869,1.46086c-0.50254,0.34282 -1.09662,0.51422 -1.78225,0.51422zM158.10222,159.19768c-0.46748,0 -0.82393,-0.12271 -1.06935,-0.36814c-0.24542,-0.24542 -0.36814,-0.59603 -0.36814,-1.05182v-6.54467c0,-0.45579 0.11882,-0.8025 0.35645,-1.04013c0.24153,-0.24153 0.5785,-0.36229 1.01092,-0.36229c0.44021,0 0.77718,0.12076 1.01092,0.36229c0.23374,0.23763 0.35061,0.58435 0.35061,1.04013v0.95833h-0.18115c0.14803,-0.74017 0.47332,-1.31283 0.97586,-1.71797c0.50643,-0.40515 1.15895,-0.63304 1.95756,-0.68368c0.30775,-0.02337 0.54344,0.05454 0.70706,0.23374c0.16751,0.1792 0.25711,0.47137 0.2688,0.87652c0.02337,0.38177 -0.05454,0.68368 -0.23374,0.90574c-0.1753,0.21816 -0.47332,0.35256 -0.89405,0.4032l-0.42073,0.03506c-0.70121,0.06233 -1.22128,0.26685 -1.5602,0.61356c-0.33892,0.34282 -0.50838,0.83951 -0.50838,1.49008v3.43011c0,0.45579 -0.12076,0.8064 -0.36229,1.05182c-0.23763,0.24542 -0.58435,0.36814 -1.04013,0.36814zM165.7027,159.19768c-0.46748,0 -0.82393,-0.12271 -1.06935,-0.36814c-0.24542,-0.24542 -0.36814,-0.59603 -0.36814,-1.05182v-6.54467c0,-0.45579 0.11882,-0.8025 0.35645,-1.04013c0.24153,-0.24153 0.5785,-0.36229 1.01092,-0.36229c0.44021,0 0.77718,0.12076 1.01092,0.36229c0.23374,0.23763 0.35061,0.58435 0.35061,1.04013v0.95833h-0.18115c0.14803,-0.74017 0.47332,-1.31283 0.97586,-1.71797c0.50643,-0.40515 1.15895,-0.63304 1.95756,-0.68368c0.30775,-0.02337 0.54344,0.05454 0.70706,0.23374c0.16751,0.1792 0.25711,0.47137 0.2688,0.87652c0.02337,0.38177 -0.05454,0.68368 -0.23374,0.90574c-0.1753,0.21816 -0.47332,0.35256 -0.89405,0.4032l-0.42073,0.03506c-0.70121,0.06233 -1.22128,0.26685 -1.5602,0.61356c-0.33892,0.34282 -0.50838,0.83951 -0.50838,1.49008v3.43011c0,0.45579 -0.12076,0.8064 -0.36229,1.05182c-0.23763,0.24542 -0.58435,0.36814 -1.04013,0.36814zM176.40362,159.23858c-1.0713,0 -1.99067,-0.19283 -2.75811,-0.5785c-0.76744,-0.38956 -1.35763,-0.9369 -1.77057,-1.64201c-0.41294,-0.70901 -0.61941,-1.54267 -0.61941,-2.501c0,-0.93495 0.19673,-1.75498 0.59019,-2.46009c0.39346,-0.70901 0.94274,-1.26413 1.64785,-1.66538c0.70901,-0.40125 1.51345,-0.60188 2.41335,-0.60188c0.65057,0 1.24076,0.10908 1.77057,0.32723c0.52981,0.21426 0.98365,0.52202 1.36152,0.92327c0.38177,0.39735 0.67005,0.88236 0.86483,1.45502c0.19868,0.57266 0.29802,1.20959 0.29802,1.91081c0,0.23374 -0.07402,0.40904 -0.22205,0.52591c-0.14414,0.11687 -0.3584,0.1753 -0.64278,0.1753h-5.79086v-1.44333h4.64554l-0.29217,0.26296c0,-0.50643 -0.07402,-0.92911 -0.22205,-1.26803c-0.14803,-0.33892 -0.36035,-0.59408 -0.63694,-0.76549c-0.27659,-0.17141 -0.61746,-0.25711 -1.0226,-0.25711c-0.45579,0 -0.84341,0.10518 -1.16285,0.31555c-0.31944,0.20647 -0.56681,0.50643 -0.74212,0.89989c-0.17141,0.39346 -0.25711,0.86678 -0.25711,1.41996v0.15193c0,0.93495 0.21816,1.62448 0.65447,2.06858c0.44021,0.44021 1.09078,0.66031 1.95171,0.66031c0.29217,0 0.62914,-0.03701 1.01092,-0.11103c0.38177,-0.07402 0.73822,-0.19089 1.06935,-0.35061c0.28438,-0.13635 0.5376,-0.1831 0.75965,-0.14024c0.22205,0.04285 0.39346,0.14609 0.51422,0.3097c0.12466,0.15972 0.19478,0.34476 0.21036,0.55513c0.01948,0.20647 -0.02727,0.41099 -0.14024,0.61356c-0.10908,0.20257 -0.29217,0.37203 -0.54928,0.50838c-0.41683,0.23374 -0.8882,0.40904 -1.41412,0.52591c-0.52202,0.11687 -1.02845,0.1753 -1.5193,0.1753zM183.22989,159.19768c-0.45579,0 -0.80445,-0.12271 -1.04598,-0.36814c-0.23763,-0.24542 -0.35645,-0.59603 -0.35645,-1.05182v-6.54467c0,-0.45579 0.11882,-0.8025 0.35645,-1.04013c0.24153,-0.24153 0.5785,-0.36229 1.01092,-0.36229c0.44021,0 0.77718,0.12076 1.01092,0.36229c0.23374,0.23763 0.35061,0.58435 0.35061,1.04013v1.05182l-0.19868,-0.61356c0.28049,-0.59993 0.70121,-1.06351 1.26219,-1.39074c0.56097,-0.32723 1.19791,-0.49085 1.91081,-0.49085c0.72459,0 1.32062,0.13829 1.7881,0.41489c0.46748,0.27659 0.81808,0.69537 1.05182,1.25634c0.23374,0.56097 0.35061,1.27192 0.35061,2.13286v4.18391c0,0.45579 -0.12076,0.8064 -0.36229,1.05182c-0.23763,0.24542 -0.58435,0.36814 -1.04013,0.36814c-0.4441,0 -0.78692,-0.12271 -1.02845,-0.36814c-0.23763,-0.24542 -0.35645,-0.59603 -0.35645,-1.05182v-4.05536c0,-0.6272 -0.11492,-1.07909 -0.34476,-1.35568c-0.22595,-0.27659 -0.57266,-0.41489 -1.04013,-0.41489c-0.58824,0 -1.05766,0.18504 -1.40827,0.55513c-0.35061,0.36619 -0.52591,0.85704 -0.52591,1.47255v3.79824c0,0.94664 -0.46163,1.41996 -1.3849,1.41996zM197.25076,159.23858c-0.84925,0 -1.5602,-0.14024 -2.13286,-0.42073c-0.56876,-0.28438 -0.99339,-0.69732 -1.27387,-1.23881c-0.27659,-0.54149 -0.41489,-1.22518 -0.41489,-2.05105v-3.46517h-0.77134c-0.34671,0 -0.61551,-0.09155 -0.8064,-0.27464c-0.18699,-0.18699 -0.28049,-0.44021 -0.28049,-0.75965c0,-0.34671 0.0935,-0.60772 0.28049,-0.78302c0.19089,-0.1792 0.45968,-0.2688 0.8064,-0.2688h0.77134v-1.40243c0,-0.46748 0.12271,-0.82003 0.36814,-1.05766c0.24932,-0.24153 0.59408,-0.36229 1.03429,-0.36229c0.45579,0 0.80055,0.12076 1.03429,0.36229c0.23374,0.23763 0.35061,0.59019 0.35061,1.05766v1.40243h1.75304c0.34282,0 0.60577,0.0896 0.78887,0.2688c0.18699,0.1753 0.28049,0.43631 0.28049,0.78302c0,0.31944 -0.0935,0.57266 -0.28049,0.75965c-0.1831,0.1831 -0.44605,0.27464 -0.78887,0.27464h-1.75304v3.35414c0,0.51812 0.11882,0.90574 0.35645,1.16285c0.24153,0.25711 0.6272,0.38567 1.157,0.38567c0.1831,0 0.3545,-0.01753 0.51422,-0.05259c0.15972,-0.03896 0.30775,-0.06428 0.4441,-0.07596c0.17141,-0.01169 0.31165,0.0409 0.42073,0.15777c0.11297,0.11687 0.16946,0.37203 0.16946,0.76549c0,0.29607 -0.0487,0.55513 -0.14609,0.77718c-0.09739,0.22205 -0.2688,0.38177 -0.51422,0.47916c-0.15972,0.06233 -0.37982,0.11492 -0.66031,0.15777c-0.27659,0.04285 -0.51228,0.06428 -0.70706,0.06428zM206.80614,162.5226c-0.45579,0 -0.80445,-0.12076 -1.04598,-0.36229c-0.23763,-0.23763 -0.35645,-0.59019 -0.35645,-1.05766v-9.86959c0,-0.45579 0.11882,-0.8025 0.35645,-1.04013c0.24153,-0.24153 0.5785,-0.36229 1.01092,-0.36229c0.45579,0 0.7986,0.12076 1.02845,0.36229c0.23374,0.23763 0.35061,0.58435 0.35061,1.04013v1.2505l-0.19868,-0.71874c0.1831,-0.58824 0.55318,-1.06351 1.11026,-1.4258c0.56097,-0.36619 1.2057,-0.54928 1.93418,-0.54928c0.78692,0 1.47839,0.19089 2.07443,0.57266c0.59603,0.38177 1.05961,0.92327 1.39074,1.62448c0.33113,0.70121 0.49669,1.53683 0.49669,2.50684c0,0.97391 -0.16557,1.81731 -0.49669,2.53021c-0.33113,0.7129 -0.79276,1.26024 -1.3849,1.64201c-0.58824,0.38177 -1.28166,0.57266 -2.08027,0.57266c-0.7129,0 -1.34789,-0.1753 -1.90497,-0.52591c-0.55318,-0.35061 -0.92716,-0.80834 -1.12194,-1.37321h0.22205v3.76318c0,0.46748 -0.12076,0.82003 -0.36229,1.05766c-0.23763,0.24153 -0.5785,0.36229 -1.0226,0.36229zM210.16612,157.15247c0.39346,0 0.74017,-0.09739 1.04013,-0.29217c0.29996,-0.19868 0.5337,-0.49085 0.70121,-0.87652c0.16751,-0.38956 0.25127,-0.88626 0.25127,-1.49008c0,-0.896 -0.18504,-1.55631 -0.55513,-1.98093c-0.37009,-0.42462 -0.84925,-0.63694 -1.43749,-0.63694c-0.39346,0 -0.74212,0.0935 -1.04598,0.28049c-0.29996,0.1831 -0.5376,0.46942 -0.7129,0.85899c-0.17141,0.38567 -0.25711,0.87847 -0.25711,1.47839c0,0.89989 0.18504,1.56799 0.55513,2.0043c0.37009,0.43631 0.85704,0.65447 1.46086,0.65447zM218.09433,159.19768c-0.46748,0 -0.82393,-0.12271 -1.06935,-0.36814c-0.24542,-0.24542 -0.36814,-0.59603 -0.36814,-1.05182v-6.54467c0,-0.45579 0.11882,-0.8025 0.35645,-1.04013c0.24153,-0.24153 0.5785,-0.36229 1.01092,-0.36229c0.44021,0 0.77718,0.12076 1.01092,0.36229c0.23374,0.23763 0.35061,0.58435 0.35061,1.04013v0.95833h-0.18115c0.14803,-0.74017 0.47332,-1.31283 0.97586,-1.71797c0.50643,-0.40515 1.15895,-0.63304 1.95756,-0.68368c0.30775,-0.02337 0.54344,0.05454 0.70706,0.23374c0.16751,0.1792 0.25711,0.47137 0.2688,0.87652c0.02337,0.38177 -0.05454,0.68368 -0.23374,0.90574c-0.1753,0.21816 -0.47332,0.35256 -0.89405,0.4032l-0.42073,0.03506c-0.70121,0.06233 -1.22128,0.26685 -1.5602,0.61356c-0.33892,0.34282 -0.50838,0.83951 -0.50838,1.49008v3.43011c0,0.45579 -0.12076,0.8064 -0.36229,1.05182c-0.23763,0.24542 -0.58435,0.36814 -1.04013,0.36814zM228.44463,159.23858c-0.97001,0 -1.81537,-0.19089 -2.53606,-0.57266c-0.72069,-0.38177 -1.27777,-0.92911 -1.67123,-1.64201c-0.39346,-0.7129 -0.59019,-1.55631 -0.59019,-2.53021c0,-0.72459 0.11103,-1.37516 0.33308,-1.95171c0.22205,-0.58045 0.54539,-1.0752 0.97001,-1.48424c0.42462,-0.41294 0.93106,-0.72654 1.5193,-0.9408c0.59214,-0.21816 1.2505,-0.32723 1.97509,-0.32723c0.97391,0 1.81926,0.19089 2.53606,0.57266c0.72069,0.38177 1.27972,0.92327 1.67707,1.62448c0.40125,0.70121 0.60188,1.53683 0.60188,2.50684c0,0.74017 -0.11492,1.40048 -0.34476,1.98093c-0.22595,0.57655 -0.54734,1.07325 -0.96417,1.49008c-0.41683,0.41683 -0.92521,0.73433 -1.52514,0.95248c-0.59603,0.21426 -1.25634,0.32139 -1.98093,0.32139zM228.44463,157.15247c0.40515,0 0.75575,-0.09739 1.05182,-0.29217c0.29607,-0.19868 0.52981,-0.49085 0.70121,-0.87652c0.17141,-0.38956 0.25711,-0.88626 0.25711,-1.49008c0,-0.896 -0.18504,-1.55631 -0.55513,-1.98093c-0.36619,-0.42462 -0.8512,-0.63694 -1.45502,-0.63694c-0.39346,0 -0.74212,0.0935 -1.04598,0.28049c-0.29996,0.1831 -0.5337,0.46942 -0.70121,0.85899c-0.16362,0.38567 -0.24542,0.87847 -0.24542,1.47839c0,0.89989 0.18504,1.56799 0.55513,2.0043c0.37009,0.43631 0.84925,0.65447 1.43749,0.65447zM239.31037,162.55766c-0.66226,0 -1.29919,-0.05649 -1.91081,-0.16946c-0.60772,-0.10908 -1.14532,-0.27464 -1.61279,-0.49669c-0.28049,-0.12076 -0.47916,-0.28049 -0.59603,-0.47916c-0.11687,-0.19478 -0.16751,-0.4032 -0.15193,-0.62525c0.01948,-0.22205 0.0935,-0.41878 0.22205,-0.59019c0.12856,-0.17141 0.29022,-0.29217 0.48501,-0.36229c0.19868,-0.06623 0.40904,-0.05064 0.63109,0.04675c0.54149,0.24542 1.04208,0.40515 1.50177,0.47916c0.46358,0.07402 0.86094,0.11103 1.19206,0.11103c0.78692,0 1.37711,-0.1792 1.77057,-0.5376c0.39346,-0.3545 0.59019,-0.89989 0.59019,-1.63617v-1.40243h0.16946c-0.18699,0.56487 -0.56876,1.0265 -1.14532,1.3849c-0.57655,0.3545 -1.21544,0.53175 -1.91665,0.53175c-0.81419,0 -1.52319,-0.18699 -2.12702,-0.56097c-0.59993,-0.37398 -1.0674,-0.90184 -1.40243,-1.58358c-0.33113,-0.68563 -0.49669,-1.47644 -0.49669,-2.37244c0,-0.67784 0.09544,-1.29335 0.28633,-1.84653c0.19089,-0.55318 0.46163,-1.0265 0.81224,-1.41996c0.35061,-0.39346 0.77523,-0.69732 1.27387,-0.91158c0.49864,-0.21816 1.04987,-0.32723 1.6537,-0.32723c0.72459,0 1.36542,0.1753 1.9225,0.52591c0.56097,0.35061 0.933,0.81029 1.1161,1.37905l-0.18115,0.59019v-1.05182c0,-0.45579 0.11882,-0.8025 0.35645,-1.04013c0.24153,-0.24153 0.58435,-0.36229 1.02845,-0.36229c0.44021,0 0.77718,0.12076 1.01092,0.36229c0.23374,0.23763 0.35061,0.58435 0.35061,1.04013v6.74919c0,1.51151 -0.41489,2.65098 -1.24466,3.41842c-0.82977,0.77134 -2.02573,1.157 -3.58788,1.157zM239.3688,156.7259c0.41683,0 0.77523,-0.09739 1.0752,-0.29217c0.30386,-0.19868 0.54149,-0.47916 0.7129,-0.84146c0.17141,-0.36229 0.25711,-0.79471 0.25711,-1.29725c0,-0.76354 -0.18894,-1.35763 -0.56681,-1.78225c-0.37398,-0.42462 -0.86678,-0.63694 -1.47839,-0.63694c-0.42073,0 -0.78497,0.09544 -1.09273,0.28633c-0.30775,0.19089 -0.54539,0.46748 -0.7129,0.82977c-0.16362,0.36229 -0.24542,0.79666 -0.24542,1.30309c0,0.75965 0.18504,1.35568 0.55513,1.7881c0.37009,0.42852 0.86873,0.64278 1.49592,0.64278zM247.73987,159.19768c-0.46748,0 -0.82393,-0.12271 -1.06935,-0.36814c-0.24542,-0.24542 -0.36814,-0.59603 -0.36814,-1.05182v-6.54467c0,-0.45579 0.11882,-0.8025 0.35645,-1.04013c0.24153,-0.24153 0.5785,-0.36229 1.01092,-0.36229c0.44021,0 0.77718,0.12076 1.01092,0.36229c0.23374,0.23763 0.35061,0.58435 0.35061,1.04013v0.95833h-0.18115c0.14803,-0.74017 0.47332,-1.31283 0.97586,-1.71797c0.50643,-0.40515 1.15895,-0.63304 1.95756,-0.68368c0.30775,-0.02337 0.54344,0.05454 0.70706,0.23374c0.16751,0.1792 0.25711,0.47137 0.2688,0.87652c0.02337,0.38177 -0.05454,0.68368 -0.23374,0.90574c-0.1753,0.21816 -0.47332,0.35256 -0.89405,0.4032l-0.42073,0.03506c-0.70121,0.06233 -1.22128,0.26685 -1.5602,0.61356c-0.33892,0.34282 -0.50838,0.83951 -0.50838,1.49008v3.43011c0,0.45579 -0.12076,0.8064 -0.36229,1.05182c-0.23763,0.24542 -0.58435,0.36814 -1.04013,0.36814zM258.44078,159.23858c-1.0713,0 -1.99067,-0.19283 -2.75811,-0.5785c-0.76744,-0.38956 -1.35763,-0.9369 -1.77057,-1.64201c-0.41294,-0.70901 -0.61941,-1.54267 -0.61941,-2.501c0,-0.93495 0.19673,-1.75498 0.59019,-2.46009c0.39346,-0.70901 0.94274,-1.26413 1.64785,-1.66538c0.70901,-0.40125 1.51345,-0.60188 2.41335,-0.60188c0.65057,0 1.24076,0.10908 1.77055,0.32723c0.52981,0.21426 0.98365,0.52202 1.36152,0.92327c0.38177,0.39735 0.67005,0.88236 0.86483,1.45502c0.19868,0.57266 0.29802,1.20959 0.29802,1.91081c0,0.23374 -0.07402,0.40904 -0.22205,0.52591c-0.14414,0.11687 -0.3584,0.1753 -0.64278,0.1753h-5.79085v-1.44333h4.64553l-0.29217,0.26296c0,-0.50643 -0.07402,-0.92911 -0.22205,-1.26803c-0.14803,-0.33892 -0.36034,-0.59408 -0.63693,-0.76549c-0.27659,-0.17141 -0.61746,-0.25711 -1.0226,-0.25711c-0.45579,0 -0.84341,0.10518 -1.16285,0.31555c-0.31944,0.20647 -0.56681,0.50643 -0.74212,0.89989c-0.17141,0.39346 -0.25711,0.86678 -0.25711,1.41996v0.15193c0,0.93495 0.21816,1.62448 0.65447,2.06858c0.44021,0.44021 1.09078,0.66031 1.95171,0.66031c0.29217,0 0.62914,-0.03701 1.01091,-0.11103c0.38177,-0.07402 0.73822,-0.19089 1.06935,-0.35061c0.28438,-0.13635 0.5376,-0.1831 0.75965,-0.14024c0.22205,0.04285 0.39346,0.14609 0.51422,0.3097c0.12466,0.15972 0.19478,0.34476 0.21036,0.55513c0.01948,0.20647 -0.02727,0.41099 -0.14024,0.61356c-0.10908,0.20257 -0.29217,0.37203 -0.54928,0.50838c-0.41683,0.23374 -0.8882,0.40904 -1.41412,0.52591c-0.52201,0.11687 -1.02844,0.1753 -1.51929,0.1753zM267.33562,159.23858c-0.54149,0 -1.09857,-0.05064 -1.67123,-0.15193c-0.57266,-0.09739 -1.09273,-0.26296 -1.5602,-0.49669c-0.24542,-0.12076 -0.42073,-0.27659 -0.52591,-0.46748c-0.10518,-0.19089 -0.15193,-0.38372 -0.14024,-0.5785c0.01558,-0.19868 0.08181,-0.37788 0.19868,-0.5376c0.11687,-0.15972 0.27075,-0.26685 0.46163,-0.32139c0.19089,-0.05843 0.40125,-0.03701 0.63109,0.06428c0.50643,0.20647 0.96806,0.35256 1.3849,0.43826c0.42073,0.0857 0.83367,0.12856 1.23881,0.12856c0.52981,0 0.91353,-0.08181 1.15116,-0.24542c0.24153,-0.16751 0.36229,-0.38567 0.36229,-0.65447c0,-0.24542 -0.07986,-0.43047 -0.23958,-0.55513c-0.15972,-0.12466 -0.39346,-0.21036 -0.70121,-0.25711l-1.94003,-0.35061c-0.76354,-0.13635 -1.35179,-0.41683 -1.76472,-0.84146c-0.40904,-0.42462 -0.61356,-0.96806 -0.61356,-1.63032c0,-0.61551 0.17141,-1.14727 0.51422,-1.59526c0.34671,-0.45189 0.82393,-0.79666 1.43165,-1.03429c0.60772,-0.24153 1.29919,-0.36229 2.07443,-0.36229c0.55318,0 1.06351,0.05064 1.53098,0.15193c0.46748,0.09739 0.91742,0.25711 1.34984,0.47916c0.21816,0.10908 0.37398,0.25711 0.46748,0.4441c0.0935,0.1831 0.12466,0.37398 0.0935,0.57266c-0.03117,0.19478 -0.10908,0.37203 -0.23374,0.53175c-0.12076,0.15972 -0.27659,0.2649 -0.46748,0.31555c-0.19089,0.04675 -0.40904,0.02143 -0.65447,-0.07596c-0.39346,-0.1831 -0.7577,-0.3136 -1.09273,-0.39151c-0.33113,-0.08181 -0.65057,-0.12271 -0.95833,-0.12271c-0.55318,0 -0.95248,0.0896 -1.19791,0.2688c-0.24542,0.1753 -0.36814,0.3993 -0.36814,0.672c0,0.20647 0.07012,0.38177 0.21036,0.52591c0.14414,0.14024 0.36229,0.23374 0.65447,0.28049l1.94003,0.35061c0.7986,0.13635 1.40632,0.40515 1.82316,0.8064c0.42073,0.39735 0.63109,0.9408 0.63109,1.63032c0,0.93495 -0.36619,1.67123 -1.09857,2.20882c-0.73238,0.5337 -1.70629,0.80055 -2.92173,0.80055zM276.41192,159.23858c-0.54149,0 -1.09857,-0.05064 -1.67123,-0.15193c-0.57266,-0.09739 -1.09273,-0.26296 -1.5602,-0.49669c-0.24542,-0.12076 -0.42073,-0.27659 -0.52591,-0.46748c-0.10518,-0.19089 -0.15193,-0.38372 -0.14024,-0.5785c0.01558,-0.19868 0.08181,-0.37788 0.19868,-0.5376c0.11687,-0.15972 0.27075,-0.26685 0.46163,-0.32139c0.19089,-0.05843 0.40125,-0.03701 0.63109,0.06428c0.50643,0.20647 0.96806,0.35256 1.3849,0.43826c0.42073,0.0857 0.83367,0.12856 1.23881,0.12856c0.52981,0 0.91353,-0.08181 1.15116,-0.24542c0.24153,-0.16751 0.36229,-0.38567 0.36229,-0.65447c0,-0.24542 -0.07986,-0.43047 -0.23958,-0.55513c-0.15972,-0.12466 -0.39346,-0.21036 -0.70121,-0.25711l-1.94003,-0.35061c-0.76354,-0.13635 -1.35179,-0.41683 -1.76472,-0.84146c-0.40904,-0.42462 -0.61356,-0.96806 -0.61356,-1.63032c0,-0.61551 0.17141,-1.14727 0.51422,-1.59526c0.34671,-0.45189 0.82393,-0.79666 1.43165,-1.03429c0.60772,-0.24153 1.29919,-0.36229 2.07443,-0.36229c0.55318,0 1.06351,0.05064 1.53098,0.15193c0.46748,0.09739 0.91742,0.25711 1.34984,0.47916c0.21816,0.10908 0.37398,0.25711 0.46748,0.4441c0.0935,0.1831 0.12466,0.37398 0.0935,0.57266c-0.03117,0.19478 -0.10908,0.37203 -0.23374,0.53175c-0.12076,0.15972 -0.27659,0.2649 -0.46748,0.31555c-0.19089,0.04675 -0.40904,0.02143 -0.65447,-0.07596c-0.39346,-0.1831 -0.7577,-0.3136 -1.09273,-0.39151c-0.33113,-0.08181 -0.65057,-0.12271 -0.95833,-0.12271c-0.55318,0 -0.95248,0.0896 -1.19791,0.2688c-0.24542,0.1753 -0.36814,0.3993 -0.36814,0.672c0,0.20647 0.07012,0.38177 0.21036,0.52591c0.14414,0.14024 0.36229,0.23374 0.65447,0.28049l1.94003,0.35061c0.7986,0.13635 1.40632,0.40515 1.82316,0.8064c0.42073,0.39735 0.63109,0.9408 0.63109,1.63032c0,0.93495 -0.36619,1.67123 -1.09857,2.20882c-0.73238,0.5337 -1.70629,0.80055 -2.92173,0.80055zM290.89224,159.19768c-0.37009,0 -0.68368,-0.08765 -0.9408,-0.26296c-0.25711,-0.1792 -0.46748,-0.46553 -0.63109,-0.85899l-2.60034,-6.43948c-0.13245,-0.34282 -0.1753,-0.64667 -0.12856,-0.91158c0.05064,-0.2649 0.1831,-0.47916 0.39735,-0.64278c0.21426,-0.16751 0.51228,-0.25127 0.89405,-0.25127c0.31944,0 0.58435,0.07791 0.79471,0.23374c0.21036,0.15193 0.38956,0.44215 0.5376,0.87067l2.02768,5.40519h-0.42657l2.10364,-5.64477c0.09739,-0.29607 0.24153,-0.51422 0.43242,-0.65447c0.19089,-0.14024 0.44021,-0.21036 0.74796,-0.21036c0.30775,0 0.55708,0.07402 0.74796,0.22205c0.19089,0.14414 0.34087,0.3584 0.44995,0.64278l2.06858,5.64477h-0.35061l2.01015,-5.48116c0.14803,-0.39346 0.33892,-0.66226 0.57266,-0.8064c0.23374,-0.14803 0.48501,-0.22205 0.75381,-0.22205c0.34671,0 0.61551,0.0857 0.8064,0.25711c0.19089,0.17141 0.29996,0.39346 0.32723,0.66615c0.03117,0.2688 -0.01948,0.56292 -0.15193,0.88236l-2.58281,6.43948c-0.14803,0.38177 -0.3545,0.66421 -0.61941,0.8473c-0.2649,0.1831 -0.5824,0.27464 -0.95248,0.27464c-0.3545,0 -0.66421,-0.09155 -0.92911,-0.27464c-0.2649,-0.1831 -0.47721,-0.46553 -0.63694,-0.8473l-2.21467,-5.7558h1.19791l-2.15623,5.73827c-0.14803,0.38177 -0.35061,0.6681 -0.60772,0.85899c-0.25711,0.18699 -0.57071,0.28049 -0.9408,0.28049zM304.45008,159.18015c-0.45579,0 -0.80445,-0.1305 -1.04598,-0.39151c-0.23763,-0.2649 -0.35645,-0.63888 -0.35645,-1.12194v-6.30508c0,-0.49474 0.11882,-0.87262 0.35645,-1.13363c0.24153,-0.2649 0.59019,-0.39735 1.04598,-0.39735c0.4441,0 0.78497,0.13245 1.0226,0.39735c0.24153,0.26101 0.36229,0.63888 0.36229,1.13363v6.30508c0,0.48306 -0.11687,0.85704 -0.35061,1.12194c-0.23374,0.26101 -0.5785,0.39151 -1.03429,0.39151zM304.45008,148.31717c-0.51812,0 -0.91547,-0.11882 -1.19206,-0.35645c-0.27659,-0.24153 -0.41489,-0.58435 -0.41489,-1.02845c0,-0.45579 0.13829,-0.8025 0.41489,-1.04013c0.27659,-0.24153 0.67395,-0.36229 1.19206,-0.36229c0.51812,0 0.91158,0.12076 1.18038,0.36229c0.27269,0.23763 0.40904,0.58435 0.40904,1.04013c0,0.4441 -0.13635,0.78692 -0.40904,1.02845c-0.2688,0.23763 -0.66226,0.35645 -1.18038,0.35645zM311.25813,159.23858c-1.09467,0 -1.91276,-0.30386 -2.45425,-0.91158c-0.54149,-0.61161 -0.81224,-1.5193 -0.81224,-2.72305v-8.32108c0,-0.46748 0.11882,-0.82003 0.35645,-1.05766c0.24153,-0.24153 0.59019,-0.36229 1.04598,-0.36229c0.4441,0 0.78497,0.12076 1.0226,0.36229c0.24153,0.23763 0.36229,0.59019 0.36229,1.05766v8.21005c0,0.50254 0.10713,0.87457 0.32139,1.1161c0.21426,0.23763 0.50059,0.35645 0.85899,0.35645c0.09739,0 0.18894,-0.00584 0.27464,-0.01753c0.0857,-0.01169 0.1792,-0.01753 0.28049,-0.01753c0.19478,-0.02337 0.33113,0.03506 0.40904,0.1753c0.08181,0.14024 0.12271,0.42073 0.12271,0.84146c0,0.36619 -0.07402,0.64473 -0.22205,0.83561c-0.14803,0.19089 -0.37593,0.31749 -0.68368,0.37982c-0.12076,0.01169 -0.26101,0.02727 -0.42073,0.04675c-0.15972,0.01948 -0.3136,0.02922 -0.46163,0.02922zM317.40125,159.23858c-1.09467,0 -1.91276,-0.30386 -2.45425,-0.91158c-0.54149,-0.61161 -0.81224,-1.5193 -0.81224,-2.72305v-8.32108c0,-0.46748 0.11882,-0.82003 0.35645,-1.05766c0.24153,-0.24153 0.59019,-0.36229 1.04598,-0.36229c0.4441,0 0.78497,0.12076 1.0226,0.36229c0.24153,0.23763 0.36229,0.59019 0.36229,1.05766v8.21005c0,0.50254 0.10713,0.87457 0.32139,1.1161c0.21426,0.23763 0.50059,0.35645 0.85899,0.35645c0.09739,0 0.18894,-0.00584 0.27464,-0.01753c0.0857,-0.01169 0.1792,-0.01753 0.28049,-0.01753c0.19478,-0.02337 0.33113,0.03506 0.40904,0.1753c0.08181,0.14024 0.12271,0.42073 0.12271,0.84146c0,0.36619 -0.07402,0.64473 -0.22205,0.83561c-0.14803,0.19089 -0.37593,0.31749 -0.68368,0.37982c-0.12076,0.01169 -0.26101,0.02727 -0.42073,0.04675c-0.15972,0.01948 -0.3136,0.02922 -0.46163,0.02922zM331.01699,159.23858c-0.72848,0 -1.37321,-0.18115 -1.93418,-0.54344c-0.55708,-0.36619 -0.92716,-0.84925 -1.11026,-1.44918l0.19868,-0.60772v1.13947c0,0.45579 -0.11687,0.8064 -0.35061,1.05182c-0.22984,0.24542 -0.56681,0.36814 -1.01092,0.36814c-0.4441,0 -0.78692,-0.12271 -1.02845,-0.36814c-0.23763,-0.24542 -0.35645,-0.59603 -0.35645,-1.05182v-10.49484c0,-0.46748 0.11882,-0.82003 0.35645,-1.05766c0.24153,-0.24153 0.59019,-0.36229 1.04598,-0.36229c0.4441,0 0.78497,0.12076 1.0226,0.36229c0.24153,0.23763 0.36229,0.59019 0.36229,1.05766v4.3709h-0.22205c0.19478,-0.55318 0.56876,-1.00118 1.12194,-1.34399c0.55708,-0.34671 1.19206,-0.52007 1.90497,-0.52007c0.7986,0 1.49203,0.19089 2.08027,0.57266c0.59214,0.38177 1.05377,0.92327 1.3849,1.62448c0.33113,0.70121 0.49669,1.53683 0.49669,2.50684c0,0.97391 -0.16557,1.81731 -0.49669,2.53021c-0.33113,0.7129 -0.79471,1.26024 -1.39074,1.64201c-0.59603,0.38177 -1.28751,0.57266 -2.07443,0.57266zM330.18722,157.15247c0.39346,0 0.74017,-0.09739 1.04013,-0.29217c0.29996,-0.19868 0.5337,-0.49085 0.70121,-0.87652c0.16751,-0.38956 0.25127,-0.88626 0.25127,-1.49008c0,-0.896 -0.18504,-1.55631 -0.55513,-1.98093c-0.37009,-0.42462 -0.84925,-0.63694 -1.43749,-0.63694c-0.39346,0 -0.74212,0.0935 -1.04598,0.28049c-0.29996,0.1831 -0.5376,0.46942 -0.7129,0.85899c-0.17141,0.38567 -0.25711,0.87847 -0.25711,1.47839c0,0.89989 0.18504,1.56799 0.55513,2.0043c0.37009,0.43631 0.85704,0.65447 1.46086,0.65447zM341.38193,159.23858c-1.0713,0 -1.99067,-0.19283 -2.75811,-0.5785c-0.76744,-0.38956 -1.35763,-0.9369 -1.77057,-1.64201c-0.41294,-0.70901 -0.61941,-1.54267 -0.61941,-2.501c0,-0.93495 0.19673,-1.75498 0.59019,-2.46009c0.39346,-0.70901 0.94274,-1.26413 1.64785,-1.66538c0.70901,-0.40125 1.51345,-0.60188 2.41335,-0.60188c0.65057,0 1.24076,0.10908 1.77057,0.32723c0.52981,0.21426 0.98365,0.52202 1.36152,0.92327c0.38177,0.39735 0.67005,0.88236 0.86483,1.45502c0.19868,0.57266 0.29802,1.20959 0.29802,1.91081c0,0.23374 -0.07402,0.40904 -0.22205,0.52591c-0.14414,0.11687 -0.3584,0.1753 -0.64278,0.1753h-5.79086v-1.44333h4.64554l-0.29217,0.26296c0,-0.50643 -0.07402,-0.92911 -0.22205,-1.26803c-0.14803,-0.33892 -0.36035,-0.59408 -0.63694,-0.76549c-0.27659,-0.17141 -0.61746,-0.25711 -1.0226,-0.25711c-0.45579,0 -0.84341,0.10518 -1.16285,0.31555c-0.31944,0.20647 -0.56681,0.50643 -0.74212,0.89989c-0.17141,0.39346 -0.25711,0.86678 -0.25711,1.41996v0.15193c0,0.93495 0.21816,1.62448 0.65447,2.06858c0.44021,0.44021 1.09078,0.66031 1.95171,0.66031c0.29217,0 0.62914,-0.03701 1.01092,-0.11103c0.38177,-0.07402 0.73822,-0.19089 1.06935,-0.35061c0.28438,-0.13635 0.5376,-0.1831 0.75965,-0.14024c0.22205,0.04285 0.39346,0.14609 0.51422,0.3097c0.12466,0.15972 0.19478,0.34476 0.21036,0.55513c0.01948,0.20647 -0.02727,0.41099 -0.14024,0.61356c-0.10908,0.20257 -0.29217,0.37203 -0.54928,0.50838c-0.41683,0.23374 -0.8882,0.40904 -1.41412,0.52591c-0.52202,0.11687 -1.02845,0.1753 -1.5193,0.1753zM355.2192,159.23858c-1.09467,0 -1.91276,-0.30386 -2.45425,-0.91158c-0.54149,-0.61161 -0.81224,-1.5193 -0.81224,-2.72305v-8.32108c0,-0.46748 0.11882,-0.82003 0.35645,-1.05766c0.24153,-0.24153 0.59019,-0.36229 1.04598,-0.36229c0.4441,0 0.78497,0.12076 1.0226,0.36229c0.24153,0.23763 0.36229,0.59019 0.36229,1.05766v8.21005c0,0.50254 0.10713,0.87457 0.32139,1.1161c0.21426,0.23763 0.50059,0.35645 0.85899,0.35645c0.09739,0 0.18894,-0.00584 0.27464,-0.01753c0.0857,-0.01169 0.1792,-0.01753 0.28049,-0.01753c0.19478,-0.02337 0.33113,0.03506 0.40904,0.1753c0.08181,0.14024 0.12271,0.42073 0.12271,0.84146c0,0.36619 -0.07402,0.64473 -0.22205,0.83561c-0.14803,0.19089 -0.37593,0.31749 -0.68368,0.37982c-0.12076,0.01169 -0.26101,0.02727 -0.42073,0.04675c-0.15972,0.01948 -0.3136,0.02922 -0.46163,0.02922zM362.35693,159.23858c-0.97001,0 -1.81537,-0.19089 -2.53606,-0.57266c-0.72069,-0.38177 -1.27777,-0.92911 -1.67123,-1.64201c-0.39346,-0.7129 -0.59019,-1.55631 -0.59019,-2.53021c0,-0.72459 0.11103,-1.37516 0.33308,-1.95171c0.22205,-0.58045 0.54539,-1.0752 0.97001,-1.48424c0.42462,-0.41294 0.93106,-0.72654 1.5193,-0.9408c0.59214,-0.21816 1.2505,-0.32723 1.97509,-0.32723c0.97391,0 1.81926,0.19089 2.53606,0.57266c0.72069,0.38177 1.27972,0.92327 1.67707,1.62448c0.40125,0.70121 0.60188,1.53683 0.60188,2.50684c0,0.74017 -0.11492,1.40048 -0.34476,1.98093c-0.22595,0.57655 -0.54734,1.07325 -0.96417,1.49008c-0.41683,0.41683 -0.92521,0.73433 -1.52514,0.95248c-0.59603,0.21426 -1.25634,0.32139 -1.98093,0.32139zM362.35693,157.15247c0.40515,0 0.75575,-0.09739 1.05182,-0.29217c0.29607,-0.19868 0.52981,-0.49085 0.70121,-0.87652c0.17141,-0.38956 0.25711,-0.88626 0.25711,-1.49008c0,-0.896 -0.18504,-1.55631 -0.55513,-1.98093c-0.36619,-0.42462 -0.8512,-0.63694 -1.45502,-0.63694c-0.39346,0 -0.74212,0.0935 -1.04598,0.28049c-0.29996,0.1831 -0.5337,0.46942 -0.70121,0.85899c-0.16362,0.38567 -0.24542,0.87847 -0.24542,1.47839c0,0.89989 0.18504,1.56799 0.55513,2.0043c0.37009,0.43631 0.84925,0.65447 1.43749,0.65447zM372.34031,159.23858c-0.54149,0 -1.09857,-0.05064 -1.67123,-0.15193c-0.57266,-0.09739 -1.09273,-0.26296 -1.5602,-0.49669c-0.24542,-0.12076 -0.42073,-0.27659 -0.52591,-0.46748c-0.10518,-0.19089 -0.15193,-0.38372 -0.14024,-0.5785c0.01558,-0.19868 0.08181,-0.37788 0.19868,-0.5376c0.11687,-0.15972 0.27075,-0.26685 0.46163,-0.32139c0.19089,-0.05843 0.40125,-0.03701 0.63109,0.06428c0.50643,0.20647 0.96806,0.35256 1.3849,0.43826c0.42073,0.0857 0.83367,0.12856 1.23881,0.12856c0.52981,0 0.91353,-0.08181 1.15116,-0.24542c0.24153,-0.16751 0.36229,-0.38567 0.36229,-0.65447c0,-0.24542 -0.07986,-0.43047 -0.23958,-0.55513c-0.15972,-0.12466 -0.39346,-0.21036 -0.70121,-0.25711l-1.94003,-0.35061c-0.76354,-0.13635 -1.35179,-0.41683 -1.76472,-0.84146c-0.40904,-0.42462 -0.61356,-0.96806 -0.61356,-1.63032c0,-0.61551 0.17141,-1.14727 0.51422,-1.59526c0.34671,-0.45189 0.82393,-0.79666 1.43165,-1.03429c0.60772,-0.24153 1.29919,-0.36229 2.07443,-0.36229c0.55318,0 1.06351,0.05064 1.53098,0.15193c0.46748,0.09739 0.91742,0.25711 1.34984,0.47916c0.21816,0.10908 0.37398,0.25711 0.46748,0.4441c0.0935,0.1831 0.12466,0.37398 0.0935,0.57266c-0.03117,0.19478 -0.10908,0.37203 -0.23374,0.53175c-0.12076,0.15972 -0.27659,0.2649 -0.46748,0.31555c-0.19089,0.04675 -0.40904,0.02143 -0.65447,-0.07596c-0.39346,-0.1831 -0.7577,-0.3136 -1.09273,-0.39151c-0.33113,-0.08181 -0.65057,-0.12271 -0.95833,-0.12271c-0.55318,0 -0.95248,0.0896 -1.19791,0.2688c-0.24542,0.1753 -0.36814,0.3993 -0.36814,0.672c0,0.20647 0.07012,0.38177 0.21036,0.52591c0.14414,0.14024 0.36229,0.23374 0.65447,0.28049l1.94003,0.35061c0.7986,0.13635 1.40632,0.40515 1.82316,0.8064c0.42073,0.39735 0.63109,0.9408 0.63109,1.63032c0,0.93495 -0.36619,1.67123 -1.09857,2.20882c-0.73238,0.5337 -1.70629,0.80055 -2.92173,0.80055zM382.30022,159.23858c-0.84925,0 -1.5602,-0.14024 -2.13286,-0.42073c-0.56876,-0.28438 -0.99339,-0.69732 -1.27387,-1.23881c-0.27659,-0.54149 -0.41489,-1.22518 -0.41489,-2.05105v-3.46517h-0.77134c-0.34671,0 -0.61551,-0.09155 -0.8064,-0.27464c-0.18699,-0.18699 -0.28049,-0.44021 -0.28049,-0.75965c0,-0.34671 0.0935,-0.60772 0.28049,-0.78302c0.19089,-0.1792 0.45968,-0.2688 0.8064,-0.2688h0.77134v-1.40243c0,-0.46748 0.12271,-0.82003 0.36814,-1.05766c0.24932,-0.24153 0.59408,-0.36229 1.03429,-0.36229c0.45579,0 0.80055,0.12076 1.03429,0.36229c0.23374,0.23763 0.35061,0.59019 0.35061,1.05766v1.40243h1.75304c0.34282,0 0.60577,0.0896 0.78887,0.2688c0.18699,0.1753 0.28049,0.43631 0.28049,0.78302c0,0.31944 -0.0935,0.57266 -0.28049,0.75965c-0.1831,0.1831 -0.44605,0.27464 -0.78887,0.27464h-1.75304v3.35414c0,0.51812 0.11882,0.90574 0.35645,1.16285c0.24153,0.25711 0.6272,0.38567 1.157,0.38567c0.1831,0 0.3545,-0.01753 0.51422,-0.05259c0.15972,-0.03896 0.30775,-0.06428 0.4441,-0.07596c0.17141,-0.01169 0.31165,0.0409 0.42073,0.15777c0.11297,0.11687 0.16946,0.37203 0.16946,0.76549c0,0.29607 -0.0487,0.55513 -0.14609,0.77718c-0.09739,0.22205 -0.2688,0.38177 -0.51422,0.47916c-0.15972,0.06233 -0.37982,0.11492 -0.66031,0.15777c-0.27659,0.04285 -0.51228,0.06428 -0.70706,0.06428zM386.71143,155.0313c-0.28438,0 -0.50643,-0.0857 -0.66615,-0.25711c-0.15972,-0.17141 -0.25906,-0.42462 -0.29802,-0.75965l-0.59019,-6.30508c-0.05843,-0.55318 0.04675,-0.99923 0.31555,-1.33815c0.27269,-0.33892 0.68563,-0.50838 1.23881,-0.50838c0.52591,0 0.92327,0.16946 1.19206,0.50838c0.27269,0.33892 0.37788,0.78497 0.31555,1.33815l-0.59019,6.30508c-0.03506,0.33503 -0.1305,0.58824 -0.28633,0.75965c-0.15193,0.17141 -0.36229,0.25711 -0.63109,0.25711zM386.71143,159.12756c-0.49474,0 -0.88626,-0.14803 -1.17453,-0.4441c-0.28828,-0.29607 -0.43242,-0.67784 -0.43242,-1.14532c0,-0.45579 0.14414,-0.82782 0.43242,-1.1161c0.28828,-0.28828 0.67979,-0.43242 1.17453,-0.43242c0.49085,0 0.87457,0.14414 1.15116,0.43242c0.27659,0.28828 0.41489,0.66031 0.41489,1.1161c0,0.46748 -0.13829,0.84925 -0.41489,1.14532c-0.27659,0.29607 -0.66031,0.4441 -1.15116,0.4441z" fill="#ff6666" stroke-width="1" stroke-linecap="square"/><path d="M98.46634,138.53965c-0.64584,0 -1.14062,-0.17709 -1.48437,-0.53125c-0.33334,-0.35416 -0.5,-0.85416 -0.5,-1.5v-14.0625c0,-0.65625 0.17188,-1.15104 0.51563,-1.48437c0.35416,-0.34375 0.84896,-0.51562 1.48438,-0.51562h6.15625c1.98959,0 3.52604,0.48438 4.60938,1.45313c1.08334,0.95834 1.625,2.29688 1.625,4.01563c0,1.11459 -0.24479,2.07813 -0.73437,2.89063c-0.48959,0.8125 -1.19791,1.4375 -2.125,1.875c-0.91666,0.4375 -2.04166,0.65625 -3.375,0.65625l0.20313,-0.42187h1.03125c0.71875,0 1.34375,0.17188 1.875,0.51563c0.53125,0.34375 0.98959,0.86979 1.375,1.57813l1.5625,2.92188c0.23959,0.41666 0.34896,0.82813 0.32813,1.23438c-0.01041,0.40625 -0.16146,0.73959 -0.45312,1c-0.28125,0.25 -0.70312,0.375 -1.26562,0.375c-0.55209,0 -1.00521,-0.11979 -1.35937,-0.35937c-0.34375,-0.23959 -0.65104,-0.60416 -0.92187,-1.09375l-2.42187,-4.48437c-0.26041,-0.46875 -0.57291,-0.78646 -0.9375,-0.95312c-0.35416,-0.17709 -0.79166,-0.26562 -1.3125,-0.26562h-1.9375v5.125c0,0.64584 -0.16666,1.14584 -0.5,1.5c-0.32291,0.35416 -0.80209,0.53125 -1.4375,0.53125zM100.40384,128.55528h3.53125c1.04166,0 1.82813,-0.20834 2.35938,-0.625c0.53125,-0.42709 0.79688,-1.0625 0.79688,-1.90625c0,-0.83334 -0.26562,-1.45834 -0.79687,-1.875c-0.53125,-0.42709 -1.31771,-0.64062 -2.35937,-0.64062h-3.53125zM119.88071,138.58653c-1.46875,0 -2.72916,-0.26562 -3.78125,-0.79687c-1.05209,-0.53125 -1.86459,-1.28125 -2.4375,-2.25c-0.5625,-0.97916 -0.84375,-2.125 -0.84375,-3.4375c0,-1.28125 0.27084,-2.40625 0.8125,-3.375c0.54166,-0.97916 1.29688,-1.73959 2.26563,-2.28125c0.96875,-0.55209 2.07291,-0.82812 3.3125,-0.82812c0.89584,0 1.70313,0.15104 2.42188,0.45313c0.72916,0.29166 1.35416,0.71354 1.875,1.26563c0.52084,0.54166 0.91666,1.20834 1.1875,2c0.27084,0.78125 0.40625,1.65104 0.40625,2.60938c0,0.32291 -0.10416,0.56771 -0.3125,0.73438c-0.19791,0.15625 -0.48959,0.23438 -0.875,0.23438h-7.95312v-1.98437h6.39063l-0.40625,0.35938c0,-0.6875 -0.10416,-1.26562 -0.3125,-1.73437c-0.19791,-0.46875 -0.48959,-0.81771 -0.875,-1.04687c-0.375,-0.23959 -0.84375,-0.35937 -1.40625,-0.35937c-0.625,0 -1.15625,0.14584 -1.59375,0.4375c-0.4375,0.28125 -0.77604,0.69271 -1.01562,1.23438c-0.22916,0.54166 -0.34375,1.19271 -0.34375,1.95313v0.20313c0,1.28125 0.29688,2.22916 0.89063,2.84375c0.60416,0.60416 1.49479,0.90625 2.67188,0.90625c0.40625,0 0.86979,-0.05209 1.39063,-0.15625c0.53125,-0.10416 1.02084,-0.26562 1.46875,-0.48437c0.39584,-0.1875 0.74479,-0.25 1.04688,-0.1875c0.30209,0.0625 0.53646,0.20313 0.70313,0.42188c0.16666,0.21875 0.26041,0.47396 0.28125,0.76563c0.03125,0.28125 -0.03125,0.5625 -0.1875,0.84375c-0.14584,0.27084 -0.39584,0.5 -0.75,0.6875c-0.57291,0.32291 -1.21875,0.5625 -1.9375,0.71875c-0.71875,0.16666 -1.41666,0.25 -2.09375,0.25zM132.09836,138.58653c-0.75,0 -1.51562,-0.06771 -2.29687,-0.20312c-0.78125,-0.13541 -1.49479,-0.36459 -2.14063,-0.6875c-0.33334,-0.16666 -0.57291,-0.38021 -0.71875,-0.64062c-0.14584,-0.26041 -0.21354,-0.52604 -0.20312,-0.79687c0.02084,-0.27084 0.10938,-0.51562 0.26563,-0.73437c0.16666,-0.21875 0.38021,-0.36459 0.64063,-0.4375c0.26041,-0.08334 0.55209,-0.05729 0.875,0.07813c0.69791,0.29166 1.33334,0.49479 1.90625,0.60938c0.57291,0.11459 1.13541,0.17188 1.6875,0.17188c0.72916,0 1.25521,-0.11459 1.57813,-0.34375c0.33334,-0.22916 0.5,-0.52604 0.5,-0.89062c0,-0.34375 -0.10937,-0.59896 -0.32812,-0.76562c-0.21875,-0.16666 -0.53646,-0.28646 -0.95312,-0.35937l-2.67187,-0.46875c-1.04166,-0.1875 -1.84896,-0.57291 -2.42188,-1.15625c-0.5625,-0.58334 -0.84375,-1.33334 -0.84375,-2.25c0,-0.84375 0.23438,-1.57291 0.70313,-2.1875c0.47917,-0.61459 1.13542,-1.08334 1.96875,-1.40625c0.84375,-0.33334 1.79688,-0.5 2.85938,-0.5c0.76041,0 1.45834,0.06771 2.09375,0.20313c0.64584,0.13541 1.26563,0.35416 1.85938,0.65625c0.30209,0.15625 0.51563,0.35938 0.64063,0.60938c0.125,0.25 0.16666,0.51041 0.125,0.78125c-0.04166,0.27084 -0.14584,0.51563 -0.3125,0.73438c-0.16666,0.21875 -0.38541,0.36459 -0.65625,0.4375c-0.26041,0.0625 -0.55729,0.02604 -0.89062,-0.10937c-0.54166,-0.25 -1.04166,-0.42709 -1.5,-0.53125c-0.45834,-0.11459 -0.89584,-0.17187 -1.3125,-0.17187c-0.76041,0 -1.3125,0.125 -1.65625,0.375c-0.33334,0.23959 -0.5,0.54688 -0.5,0.92188c0,0.28125 0.09375,0.52084 0.28125,0.71875c0.19791,0.1875 0.5,0.31771 0.90625,0.39063l2.67188,0.48438c1.09375,0.17709 1.92709,0.54166 2.5,1.09375c0.57291,0.55209 0.85938,1.30209 0.85938,2.25c0,1.28125 -0.50521,2.29166 -1.51562,3.03125c-1,0.72916 -2.33334,1.09375 -4,1.09375zM145.77689,138.58653c-1.16666,0 -2.14584,-0.19271 -2.9375,-0.57812c-0.78125,-0.39584 -1.36459,-0.96354 -1.75,-1.70312c-0.375,-0.73959 -0.5625,-1.67709 -0.5625,-2.8125v-4.76562h-1.0625c-0.46875,0 -0.83854,-0.125 -1.10937,-0.375c-0.26041,-0.25 -0.39062,-0.59896 -0.39062,-1.04687c0,-0.46875 0.13021,-0.82291 0.39063,-1.0625c0.27084,-0.25 0.64063,-0.375 1.10938,-0.375h1.0625v-1.92187c0,-0.64584 0.16666,-1.13021 0.5,-1.45312c0.34375,-0.33334 0.81771,-0.5 1.42188,-0.5c0.625,0 1.09896,0.16666 1.42188,0.5c0.32291,0.32291 0.48438,0.80729 0.48438,1.45313v1.92188h2.40625c0.46875,0 0.82813,0.125 1.07813,0.375c0.26041,0.23959 0.39063,0.59375 0.39063,1.0625c0,0.44791 -0.13021,0.79688 -0.39062,1.04688c-0.25,0.25 -0.60937,0.375 -1.07812,0.375h-2.40625v4.60938c0,0.70834 0.16146,1.23959 0.48438,1.59375c0.33334,0.35416 0.86459,0.53125 1.59375,0.53125c0.25,0 0.48438,-0.02084 0.70313,-0.0625c0.21875,-0.05209 0.42188,-0.08854 0.60938,-0.10937c0.23959,-0.02084 0.43229,0.05209 0.57813,0.21875c0.15625,0.15625 0.23438,0.50521 0.23438,1.04688c0,0.40625 -0.06771,0.76041 -0.20312,1.0625c-0.13541,0.30209 -0.36979,0.52084 -0.70312,0.65625c-0.21875,0.08334 -0.52084,0.15625 -0.90625,0.21875c-0.375,0.0625 -0.69791,0.09375 -0.96875,0.09375zM154.10324,138.58653c-0.90625,0 -1.72396,-0.17709 -2.45312,-0.53125c-0.72916,-0.35416 -1.29687,-0.83334 -1.70312,-1.4375c-0.40625,-0.61459 -0.60937,-1.30209 -0.60937,-2.0625c0,-0.90625 0.23438,-1.625 0.70313,-2.15625c0.47916,-0.54166 1.25,-0.92187 2.3125,-1.14062c1.0625,-0.22916 2.47396,-0.34375 4.23438,-0.34375h1.34375v1.96875h-1.3125c-0.86459,0 -1.5625,0.04688 -2.09375,0.14063c-0.53125,0.09375 -0.91146,0.25 -1.14062,0.46875c-0.22916,0.21875 -0.34375,0.52084 -0.34375,0.90625c0,0.47916 0.16146,0.86979 0.48438,1.17188c0.33334,0.30209 0.8125,0.45313 1.4375,0.45313c0.48959,0 0.92188,-0.11459 1.29688,-0.34375c0.38541,-0.22916 0.6875,-0.54166 0.90625,-0.9375c0.21875,-0.39584 0.32813,-0.84375 0.32813,-1.34375v-2.92187c0,-0.73959 -0.17187,-1.26562 -0.51562,-1.57812c-0.33334,-0.3125 -0.90104,-0.46875 -1.70312,-0.46875c-0.45834,0 -0.95312,0.05729 -1.48437,0.17188c-0.53125,0.10416 -1.11979,0.28125 -1.76562,0.53125c-0.36459,0.16666 -0.69271,0.20834 -0.98437,0.125c-0.29166,-0.09375 -0.51562,-0.26041 -0.67187,-0.5c-0.14584,-0.25 -0.21875,-0.52084 -0.21875,-0.8125c0,-0.30209 0.08334,-0.59375 0.25,-0.875c0.17709,-0.28125 0.45834,-0.48959 0.84375,-0.625c0.79166,-0.3125 1.53646,-0.52604 2.23438,-0.64062c0.70834,-0.125 1.35416,-0.1875 1.9375,-0.1875c1.30209,0 2.36979,0.19271 3.20313,0.57813c0.84375,0.375 1.47396,0.95834 1.89063,1.75c0.42709,0.78125 0.64063,1.78646 0.64063,3.01563v5.625c0,0.625 -0.15625,1.10938 -0.46875,1.45313c-0.30209,0.33334 -0.73959,0.5 -1.3125,0.5c-0.57291,0 -1.01562,-0.16666 -1.32812,-0.5c-0.3125,-0.34375 -0.46875,-0.82812 -0.46875,-1.45312v-0.9375l0.1875,0.15625c-0.10416,0.57291 -0.32291,1.06771 -0.65625,1.48438c-0.32291,0.40625 -0.73959,0.72396 -1.25,0.95313c-0.51041,0.22916 -1.09375,0.34375 -1.75,0.34375zM165.97666,138.53965c-0.63541,0 -1.125,-0.16666 -1.46875,-0.5c-0.33334,-0.34375 -0.5,-0.82812 -0.5,-1.45312v-9c0,-0.625 0.16146,-1.09896 0.48438,-1.42187c0.33334,-0.33334 0.79688,-0.5 1.39063,-0.5c0.60416,0 1.06771,0.16666 1.39063,0.5c0.32291,0.32291 0.48438,0.79688 0.48438,1.42188v1.32813h-0.25c0.19791,-1.02084 0.64063,-1.80729 1.32813,-2.35937c0.69791,-0.5625 1.59375,-0.875 2.6875,-0.9375c0.42709,-0.03125 0.75521,0.07813 0.98438,0.32813c0.22916,0.23959 0.34896,0.63541 0.35938,1.1875c0.04166,0.52084 -0.0625,0.9375 -0.3125,1.25c-0.23959,0.30209 -0.65104,0.48438 -1.23437,0.54688l-0.57812,0.04688c-0.95834,0.09375 -1.67187,0.375 -2.14062,0.84375c-0.45834,0.46875 -0.6875,1.15104 -0.6875,2.04688v4.71875c0,0.625 -0.16666,1.10938 -0.5,1.45313c-0.33334,0.33334 -0.8125,0.5 -1.4375,0.5zM181.28714,138.58653c-1.16666,0 -2.14584,-0.19271 -2.9375,-0.57812c-0.78125,-0.39584 -1.36459,-0.96354 -1.75,-1.70312c-0.375,-0.73959 -0.5625,-1.67709 -0.5625,-2.8125v-4.76562h-1.0625c-0.46875,0 -0.83854,-0.125 -1.10937,-0.375c-0.26041,-0.25 -0.39062,-0.59896 -0.39062,-1.04687c0,-0.46875 0.13021,-0.82291 0.39063,-1.0625c0.27084,-0.25 0.64063,-0.375 1.10938,-0.375h1.0625v-1.92187c0,-0.64584 0.16666,-1.13021 0.5,-1.45312c0.34375,-0.33334 0.81771,-0.5 1.42188,-0.5c0.625,0 1.09896,0.16666 1.42188,0.5c0.32291,0.32291 0.48438,0.80729 0.48438,1.45313v1.92188h2.40625c0.46875,0 0.82813,0.125 1.07813,0.375c0.26041,0.23959 0.39063,0.59375 0.39063,1.0625c0,0.44791 -0.13021,0.79688 -0.39062,1.04688c-0.25,0.25 -0.60937,0.375 -1.07812,0.375h-2.40625v4.60938c0,0.70834 0.16146,1.23959 0.48438,1.59375c0.33334,0.35416 0.86459,0.53125 1.59375,0.53125c0.25,0 0.48438,-0.02084 0.70313,-0.0625c0.21875,-0.05209 0.42188,-0.08854 0.60938,-0.10937c0.23959,-0.02084 0.43229,0.05209 0.57813,0.21875c0.15625,0.15625 0.23438,0.50521 0.23438,1.04688c0,0.40625 -0.06771,0.76041 -0.20312,1.0625c-0.13541,0.30209 -0.36979,0.52084 -0.70312,0.65625c-0.21875,0.08334 -0.52084,0.15625 -0.90625,0.21875c-0.375,0.0625 -0.69791,0.09375 -0.96875,0.09375zM198.58628,138.58653c-1.16666,0 -2.14584,-0.19271 -2.9375,-0.57812c-0.78125,-0.39584 -1.36459,-0.96354 -1.75,-1.70312c-0.375,-0.73959 -0.5625,-1.67709 -0.5625,-2.8125v-4.76562h-1.0625c-0.46875,0 -0.83854,-0.125 -1.10937,-0.375c-0.26041,-0.25 -0.39062,-0.59896 -0.39062,-1.04687c0,-0.46875 0.13021,-0.82291 0.39063,-1.0625c0.27084,-0.25 0.64063,-0.375 1.10938,-0.375h1.0625v-1.92187c0,-0.64584 0.16666,-1.13021 0.5,-1.45312c0.34375,-0.33334 0.81771,-0.5 1.42188,-0.5c0.625,0 1.09896,0.16666 1.42188,0.5c0.32291,0.32291 0.48438,0.80729 0.48438,1.45313v1.92188h2.40625c0.46875,0 0.82813,0.125 1.07813,0.375c0.26041,0.23959 0.39063,0.59375 0.39063,1.0625c0,0.44791 -0.13021,0.79688 -0.39062,1.04688c-0.25,0.25 -0.60937,0.375 -1.07812,0.375h-2.40625v4.60938c0,0.70834 0.16146,1.23959 0.48438,1.59375c0.33334,0.35416 0.86459,0.53125 1.59375,0.53125c0.25,0 0.48438,-0.02084 0.70313,-0.0625c0.21875,-0.05209 0.42188,-0.08854 0.60938,-0.10937c0.23959,-0.02084 0.43229,0.05209 0.57813,0.21875c0.15625,0.15625 0.23438,0.50521 0.23438,1.04688c0,0.40625 -0.06771,0.76041 -0.20312,1.0625c-0.13541,0.30209 -0.36979,0.52084 -0.70312,0.65625c-0.21875,0.08334 -0.52084,0.15625 -0.90625,0.21875c-0.375,0.0625 -0.69791,0.09375 -0.96875,0.09375zM205.01133,138.53965c-0.625,0 -1.10416,-0.16666 -1.4375,-0.5c-0.32291,-0.34375 -0.48437,-0.82812 -0.48437,-1.45312v-14.42187c0,-0.63541 0.16146,-1.11459 0.48438,-1.4375c0.33334,-0.33334 0.8125,-0.5 1.4375,-0.5c0.61459,0 1.08334,0.16666 1.40625,0.5c0.33334,0.32291 0.5,0.80209 0.5,1.4375v6.03125h-0.35937c0.38541,-0.82291 0.96354,-1.45834 1.73438,-1.90625c0.77084,-0.44791 1.64584,-0.67187 2.625,-0.67187c1,0 1.81771,0.19271 2.45313,0.57813c0.64584,0.375 1.125,0.94791 1.4375,1.71875c0.32291,0.76041 0.48438,1.73438 0.48438,2.92188v5.75c0,0.625 -0.16666,1.10938 -0.5,1.45313c-0.32291,0.33334 -0.79687,0.5 -1.42187,0.5c-0.60416,0 -1.07291,-0.16666 -1.40625,-0.5c-0.32291,-0.34375 -0.48437,-0.82812 -0.48437,-1.45312v-5.57812c0,-0.86459 -0.15625,-1.48437 -0.46875,-1.85937c-0.3125,-0.375 -0.79166,-0.5625 -1.4375,-0.5625c-0.8125,0 -1.45834,0.25521 -1.9375,0.76563c-0.47916,0.5 -0.71875,1.17188 -0.71875,2.01563v5.21875c0,1.30209 -0.63541,1.95313 -1.90625,1.95313zM220.08158,138.5084c-0.625,0 -1.10416,-0.18229 -1.4375,-0.54687c-0.32291,-0.36459 -0.48437,-0.875 -0.48437,-1.53125v-8.65625c0,-0.67709 0.16146,-1.19791 0.48438,-1.5625c0.33334,-0.36459 0.8125,-0.54687 1.4375,-0.54687c0.61459,0 1.08334,0.18229 1.40625,0.54688c0.33334,0.36459 0.5,0.88541 0.5,1.5625v8.65625c0,0.65625 -0.16146,1.16666 -0.48437,1.53125c-0.32291,0.36459 -0.79687,0.54688 -1.42187,0.54688zM220.08158,123.58653c-0.70834,0 -1.25521,-0.16146 -1.64062,-0.48437c-0.375,-0.33334 -0.5625,-0.80209 -0.5625,-1.40625c0,-0.625 0.1875,-1.10416 0.5625,-1.4375c0.38541,-0.33334 0.93229,-0.5 1.64063,-0.5c0.70834,0 1.25,0.16666 1.625,0.5c0.375,0.33334 0.5625,0.8125 0.5625,1.4375c0,0.60416 -0.1875,1.07291 -0.5625,1.40625c-0.375,0.32291 -0.91666,0.48438 -1.625,0.48438zM229.71329,138.58653c-0.75,0 -1.51562,-0.06771 -2.29687,-0.20312c-0.78125,-0.13541 -1.49479,-0.36459 -2.14062,-0.6875c-0.33334,-0.16666 -0.57291,-0.38021 -0.71875,-0.64062c-0.14584,-0.26041 -0.21354,-0.52604 -0.20312,-0.79687c0.02084,-0.27084 0.10938,-0.51562 0.26563,-0.73437c0.16666,-0.21875 0.38021,-0.36459 0.64063,-0.4375c0.26041,-0.08334 0.55209,-0.05729 0.875,0.07813c0.69791,0.29166 1.33334,0.49479 1.90625,0.60938c0.57291,0.11459 1.13541,0.17188 1.6875,0.17188c0.72916,0 1.25521,-0.11459 1.57813,-0.34375c0.33334,-0.22916 0.5,-0.52604 0.5,-0.89062c0,-0.34375 -0.10937,-0.59896 -0.32812,-0.76562c-0.21875,-0.16666 -0.53646,-0.28646 -0.95312,-0.35937l-2.67187,-0.46875c-1.04166,-0.1875 -1.84896,-0.57291 -2.42187,-1.15625c-0.5625,-0.58334 -0.84375,-1.33334 -0.84375,-2.25c0,-0.84375 0.23438,-1.57291 0.70313,-2.1875c0.47916,-0.61459 1.13541,-1.08334 1.96875,-1.40625c0.84375,-0.33334 1.79688,-0.5 2.85938,-0.5c0.76041,0 1.45834,0.06771 2.09375,0.20313c0.64584,0.13541 1.26563,0.35416 1.85938,0.65625c0.30209,0.15625 0.51563,0.35938 0.64063,0.60938c0.125,0.25 0.16666,0.51041 0.125,0.78125c-0.04166,0.27084 -0.14584,0.51563 -0.3125,0.73438c-0.16666,0.21875 -0.38541,0.36459 -0.65625,0.4375c-0.26041,0.0625 -0.55729,0.02604 -0.89062,-0.10937c-0.54166,-0.25 -1.04166,-0.42709 -1.5,-0.53125c-0.45834,-0.11459 -0.89584,-0.17187 -1.3125,-0.17187c-0.76041,0 -1.3125,0.125 -1.65625,0.375c-0.33334,0.23959 -0.5,0.54688 -0.5,0.92188c0,0.28125 0.09375,0.52084 0.28125,0.71875c0.19791,0.1875 0.5,0.31771 0.90625,0.39063l2.67188,0.48438c1.09375,0.17709 1.92709,0.54166 2.5,1.09375c0.57291,0.55209 0.85938,1.30209 0.85938,2.25c0,1.28125 -0.50521,2.29166 -1.51562,3.03125c-1,0.72916 -2.33334,1.09375 -4,1.09375zM246.44443,138.53965c-0.625,0 -1.10416,-0.16666 -1.4375,-0.5c-0.32291,-0.34375 -0.48437,-0.82812 -0.48437,-1.45312v-9c0,-0.625 0.16146,-1.09896 0.48438,-1.42187c0.33334,-0.33334 0.79688,-0.5 1.39063,-0.5c0.61459,0 1.07813,0.16666 1.39063,0.5c0.32291,0.32291 0.48438,0.79688 0.48438,1.42188v1.625l-0.28125,-1.01562c0.34375,-0.77084 0.86979,-1.39062 1.57813,-1.85937c0.70834,-0.47916 1.54166,-0.71875 2.5,-0.71875c0.96875,0 1.77084,0.22916 2.40625,0.6875c0.64584,0.44791 1.10416,1.14584 1.375,2.09375h-0.35937c0.375,-0.85416 0.94271,-1.53125 1.70313,-2.03125c0.77083,-0.5 1.65625,-0.75 2.65625,-0.75c0.95833,0 1.74479,0.19271 2.35938,0.57813c0.625,0.375 1.08854,0.94791 1.39063,1.71875c0.30208,0.76041 0.45313,1.73438 0.45313,2.92188v5.75c0,0.625 -0.16667,1.10938 -0.5,1.45313c-0.32292,0.33334 -0.79167,0.5 -1.40625,0.5c-0.61458,0 -1.08854,-0.16666 -1.42187,-0.5c-0.33333,-0.34375 -0.5,-0.82812 -0.5,-1.45312v-5.625c0,-0.83334 -0.13021,-1.4375 -0.39062,-1.8125c-0.26042,-0.375 -0.70312,-0.5625 -1.32812,-0.5625c-0.72917,0 -1.29687,0.25521 -1.70312,0.76563c-0.39583,0.5 -0.59375,1.21354 -0.59375,2.14063v5.09375c0,0.625 -0.16667,1.10938 -0.5,1.45313c-0.33334,0.33334 -0.80209,0.5 -1.40625,0.5c-0.60416,0 -1.07812,-0.16666 -1.42187,-0.5c-0.33334,-0.34375 -0.5,-0.82812 -0.5,-1.45312v-5.625c0,-0.83334 -0.13021,-1.4375 -0.39062,-1.8125c-0.26041,-0.375 -0.70312,-0.5625 -1.32812,-0.5625c-0.72916,0 -1.29687,0.25521 -1.70312,0.76563c-0.40625,0.5 -0.60937,1.21354 -0.60937,2.14063v5.09375c0,1.30209 -0.63541,1.95313 -1.90625,1.95313zM268.91427,138.5084c-0.625,0 -1.10417,-0.18229 -1.4375,-0.54687c-0.32292,-0.36459 -0.48437,-0.875 -0.48437,-1.53125v-8.65625c0,-0.67709 0.16146,-1.19791 0.48438,-1.5625c0.33333,-0.36459 0.8125,-0.54687 1.4375,-0.54687c0.61458,0 1.08333,0.18229 1.40625,0.54688c0.33333,0.36459 0.5,0.88541 0.5,1.5625v8.65625c0,0.65625 -0.16146,1.16666 -0.48437,1.53125c-0.32292,0.36459 -0.79687,0.54688 -1.42187,0.54688zM268.91427,123.58653c-0.70833,0 -1.25521,-0.16146 -1.64062,-0.48437c-0.375,-0.33334 -0.5625,-0.80209 -0.5625,-1.40625c0,-0.625 0.1875,-1.10416 0.5625,-1.4375c0.38542,-0.33334 0.93229,-0.5 1.64063,-0.5c0.70833,0 1.25,0.16666 1.625,0.5c0.375,0.33334 0.5625,0.8125 0.5625,1.4375c0,0.60416 -0.1875,1.07291 -0.5625,1.40625c-0.375,0.32291 -0.91667,0.48438 -1.625,0.48438zM275.70227,138.53965c-0.625,0 -1.10417,-0.16666 -1.4375,-0.5c-0.32292,-0.34375 -0.48437,-0.82812 -0.48437,-1.45312v-9c0,-0.625 0.16146,-1.09896 0.48438,-1.42187c0.33333,-0.33334 0.79688,-0.5 1.39063,-0.5c0.60417,0 1.06771,0.16666 1.39063,0.5c0.32292,0.32291 0.48438,0.79688 0.48438,1.42188v1.45313l-0.28125,-0.84375c0.38542,-0.82291 0.96354,-1.45834 1.73438,-1.90625c0.77083,-0.44791 1.64583,-0.67187 2.625,-0.67187c1,0 1.81771,0.19271 2.45313,0.57813c0.64583,0.375 1.125,0.94791 1.4375,1.71875c0.32292,0.76041 0.48438,1.73438 0.48438,2.92188v5.75c0,0.625 -0.16667,1.10938 -0.5,1.45313c-0.32292,0.33334 -0.79687,0.5 -1.42187,0.5c-0.60417,0 -1.07292,-0.16666 -1.40625,-0.5c-0.32292,-0.34375 -0.48437,-0.82812 -0.48437,-1.45312v-5.57812c0,-0.86459 -0.15625,-1.48437 -0.46875,-1.85937c-0.3125,-0.375 -0.79167,-0.5625 -1.4375,-0.5625c-0.8125,0 -1.45833,0.25521 -1.9375,0.76563c-0.47917,0.5 -0.71875,1.17188 -0.71875,2.01563v5.21875c0,1.30209 -0.63542,1.95313 -1.90625,1.95313zM290.77252,138.5084c-0.625,0 -1.10417,-0.18229 -1.4375,-0.54687c-0.32292,-0.36459 -0.48437,-0.875 -0.48437,-1.53125v-8.65625c0,-0.67709 0.16146,-1.19791 0.48438,-1.5625c0.33333,-0.36459 0.8125,-0.54687 1.4375,-0.54687c0.61458,0 1.08333,0.18229 1.40625,0.54688c0.33333,0.36459 0.5,0.88541 0.5,1.5625v8.65625c0,0.65625 -0.16146,1.16666 -0.48437,1.53125c-0.32292,0.36459 -0.79687,0.54688 -1.42187,0.54688zM290.77252,123.58653c-0.70833,0 -1.25521,-0.16146 -1.64062,-0.48437c-0.375,-0.33334 -0.5625,-0.80209 -0.5625,-1.40625c0,-0.625 0.1875,-1.10416 0.5625,-1.4375c0.38542,-0.33334 0.93229,-0.5 1.64063,-0.5c0.70833,0 1.25,0.16666 1.625,0.5c0.375,0.33334 0.5625,0.8125 0.5625,1.4375c0,0.60416 -0.1875,1.07291 -0.5625,1.40625c-0.375,0.32291 -0.91667,0.48438 -1.625,0.48438zM301.62299,143.14903c-0.91667,0 -1.79167,-0.07812 -2.625,-0.23437c-0.83333,-0.15625 -1.57292,-0.38541 -2.21875,-0.6875c-0.38542,-0.16666 -0.66146,-0.38541 -0.82812,-0.65625c-0.15625,-0.27084 -0.22396,-0.55729 -0.20312,-0.85937c0.03125,-0.30209 0.13542,-0.57291 0.3125,-0.8125c0.17708,-0.23959 0.40104,-0.40625 0.67188,-0.5c0.27083,-0.08334 0.55729,-0.05729 0.85938,0.07813c0.73958,0.33334 1.42708,0.54688 2.0625,0.64063c0.63542,0.10416 1.18229,0.15625 1.64063,0.15625c1.07292,0 1.88021,-0.24479 2.42188,-0.73437c0.54167,-0.48959 0.8125,-1.23959 0.8125,-2.25v-1.92187h0.23438c-0.26042,0.78125 -0.78646,1.41666 -1.57812,1.90625c-0.79167,0.48959 -1.67187,0.73438 -2.64062,0.73438c-1.10417,0 -2.07292,-0.25521 -2.90625,-0.76562c-0.82292,-0.52084 -1.46354,-1.25 -1.92187,-2.1875c-0.45833,-0.9375 -0.6875,-2.02604 -0.6875,-3.26562c0,-0.92709 0.13021,-1.77084 0.39063,-2.53125c0.26042,-0.76041 0.63021,-1.40625 1.10938,-1.9375c0.48958,-0.54166 1.07292,-0.95834 1.75,-1.25c0.6875,-0.30209 1.44271,-0.45312 2.26563,-0.45312c1,0 1.88542,0.23959 2.65625,0.71875c0.77083,0.47916 1.28125,1.10938 1.53125,1.89063l-0.25,0.8125v-1.45312c0,-0.625 0.16146,-1.09896 0.48438,-1.42187c0.33333,-0.33334 0.80208,-0.5 1.40625,-0.5c0.61458,0 1.07813,0.16666 1.39063,0.5c0.32292,0.32291 0.48438,0.79688 0.48438,1.42188v9.28125c0,2.07291 -0.57292,3.63541 -1.71875,4.6875c-1.13542,1.0625 -2.77083,1.59375 -4.90625,1.59375zM301.68549,135.1334c0.58333,0 1.07813,-0.13021 1.48438,-0.39062c0.41667,-0.27084 0.73958,-0.65625 0.96875,-1.15625c0.23958,-0.5 0.35938,-1.09896 0.35938,-1.79687c0,-1.04166 -0.26042,-1.85416 -0.78125,-2.4375c-0.51042,-0.58334 -1.1875,-0.875 -2.03125,-0.875c-0.57292,0 -1.07292,0.13021 -1.5,0.39063c-0.41667,0.26041 -0.73958,0.64063 -0.96875,1.14063c-0.21875,0.5 -0.32812,1.09375 -0.32812,1.78125c0,1.05209 0.25,1.875 0.75,2.46875c0.51042,0.58334 1.19271,0.875 2.04688,0.875zM315.41852,138.58653c-0.90625,0 -1.72396,-0.17709 -2.45312,-0.53125c-0.72917,-0.35416 -1.29687,-0.83334 -1.70312,-1.4375c-0.40625,-0.61459 -0.60937,-1.30209 -0.60937,-2.0625c0,-0.90625 0.23438,-1.625 0.70313,-2.15625c0.47917,-0.54166 1.25,-0.92187 2.3125,-1.14062c1.0625,-0.22916 2.47396,-0.34375 4.23438,-0.34375h1.34375v1.96875h-1.3125c-0.86458,0 -1.5625,0.04688 -2.09375,0.14063c-0.53125,0.09375 -0.91146,0.25 -1.14062,0.46875c-0.22917,0.21875 -0.34375,0.52084 -0.34375,0.90625c0,0.47916 0.16146,0.86979 0.48438,1.17188c0.33333,0.30209 0.8125,0.45313 1.4375,0.45313c0.48958,0 0.92188,-0.11459 1.29688,-0.34375c0.38542,-0.22916 0.6875,-0.54166 0.90625,-0.9375c0.21875,-0.39584 0.32813,-0.84375 0.32813,-1.34375v-2.92187c0,-0.73959 -0.17187,-1.26562 -0.51562,-1.57812c-0.33333,-0.3125 -0.90104,-0.46875 -1.70312,-0.46875c-0.45833,0 -0.95312,0.05729 -1.48437,0.17188c-0.53125,0.10416 -1.11979,0.28125 -1.76562,0.53125c-0.36458,0.16666 -0.69271,0.20834 -0.98437,0.125c-0.29167,-0.09375 -0.51562,-0.26041 -0.67187,-0.5c-0.14583,-0.25 -0.21875,-0.52084 -0.21875,-0.8125c0,-0.30209 0.08333,-0.59375 0.25,-0.875c0.17708,-0.28125 0.45833,-0.48959 0.84375,-0.625c0.79167,-0.3125 1.53646,-0.52604 2.23438,-0.64062c0.70833,-0.125 1.35417,-0.1875 1.9375,-0.1875c1.30208,0 2.36979,0.19271 3.20313,0.57813c0.84375,0.375 1.47396,0.95834 1.89063,1.75c0.42708,0.78125 0.64063,1.78646 0.64063,3.01563v5.625c0,0.625 -0.15625,1.10938 -0.46875,1.45313c-0.30208,0.33334 -0.73958,0.5 -1.3125,0.5c-0.57292,0 -1.01562,-0.16666 -1.32812,-0.5c-0.3125,-0.34375 -0.46875,-0.82812 -0.46875,-1.45312v-0.9375l0.1875,0.15625c-0.10417,0.57291 -0.32292,1.06771 -0.65625,1.48438c-0.32292,0.40625 -0.73958,0.72396 -1.25,0.95313c-0.51042,0.22916 -1.09375,0.34375 -1.75,0.34375zM327.29193,138.53965c-0.625,0 -1.10417,-0.16666 -1.4375,-0.5c-0.32292,-0.34375 -0.48437,-0.82812 -0.48437,-1.45312v-9c0,-0.625 0.16146,-1.09896 0.48438,-1.42187c0.33333,-0.33334 0.79688,-0.5 1.39063,-0.5c0.61458,0 1.07813,0.16666 1.39063,0.5c0.32292,0.32291 0.48438,0.79688 0.48438,1.42188v1.625l-0.28125,-1.01562c0.34375,-0.77084 0.86979,-1.39062 1.57813,-1.85937c0.70833,-0.47916 1.54167,-0.71875 2.5,-0.71875c0.96875,0 1.77083,0.22916 2.40625,0.6875c0.64583,0.44791 1.10417,1.14584 1.375,2.09375h-0.35937c0.375,-0.85416 0.94271,-1.53125 1.70313,-2.03125c0.77083,-0.5 1.65625,-0.75 2.65625,-0.75c0.95833,0 1.74479,0.19271 2.35938,0.57813c0.625,0.375 1.08854,0.94791 1.39063,1.71875c0.30208,0.76041 0.45313,1.73438 0.45313,2.92188v5.75c0,0.625 -0.16667,1.10938 -0.5,1.45313c-0.32292,0.33334 -0.79167,0.5 -1.40625,0.5c-0.61458,0 -1.08854,-0.16666 -1.42187,-0.5c-0.33333,-0.34375 -0.5,-0.82812 -0.5,-1.45312v-5.625c0,-0.83334 -0.13021,-1.4375 -0.39062,-1.8125c-0.26042,-0.375 -0.70312,-0.5625 -1.32812,-0.5625c-0.72917,0 -1.29687,0.25521 -1.70312,0.76563c-0.39583,0.5 -0.59375,1.21354 -0.59375,2.14063v5.09375c0,0.625 -0.16667,1.10938 -0.5,1.45313c-0.33333,0.33334 -0.80208,0.5 -1.40625,0.5c-0.60417,0 -1.07812,-0.16666 -1.42187,-0.5c-0.33333,-0.34375 -0.5,-0.82812 -0.5,-1.45312v-5.625c0,-0.83334 -0.13021,-1.4375 -0.39062,-1.8125c-0.26042,-0.375 -0.70312,-0.5625 -1.32812,-0.5625c-0.72917,0 -1.29687,0.25521 -1.70312,0.76563c-0.40625,0.5 -0.60937,1.21354 -0.60937,2.14063v5.09375c0,1.30209 -0.63542,1.95313 -1.90625,1.95313zM354.29303,138.58653c-1.46875,0 -2.72917,-0.26562 -3.78125,-0.79687c-1.05208,-0.53125 -1.86458,-1.28125 -2.4375,-2.25c-0.5625,-0.97916 -0.84375,-2.125 -0.84375,-3.4375c0,-1.28125 0.27083,-2.40625 0.8125,-3.375c0.54167,-0.97916 1.29688,-1.73959 2.26563,-2.28125c0.96875,-0.55209 2.07292,-0.82812 3.3125,-0.82812c0.89583,0 1.70313,0.15104 2.42188,0.45313c0.72917,0.29166 1.35417,0.71354 1.875,1.26563c0.52083,0.54166 0.91667,1.20834 1.1875,2c0.27083,0.78125 0.40625,1.65104 0.40625,2.60938c0,0.32291 -0.10417,0.56771 -0.3125,0.73438c-0.19792,0.15625 -0.48958,0.23438 -0.875,0.23438h-7.95312v-1.98437h6.39063l-0.40625,0.35938c0,-0.6875 -0.10417,-1.26562 -0.3125,-1.73437c-0.19792,-0.46875 -0.48958,-0.81771 -0.875,-1.04687c-0.375,-0.23959 -0.84375,-0.35937 -1.40625,-0.35937c-0.625,0 -1.15625,0.14584 -1.59375,0.4375c-0.4375,0.28125 -0.77604,0.69271 -1.01562,1.23438c-0.22917,0.54166 -0.34375,1.19271 -0.34375,1.95313v0.20313c0,1.28125 0.29688,2.22916 0.89063,2.84375c0.60417,0.60416 1.49479,0.90625 2.67188,0.90625c0.40625,0 0.86979,-0.05209 1.39063,-0.15625c0.53125,-0.10416 1.02083,-0.26562 1.46875,-0.48437c0.39583,-0.1875 0.74479,-0.25 1.04688,-0.1875c0.30208,0.0625 0.53646,0.20313 0.70313,0.42188c0.16667,0.21875 0.26042,0.47396 0.28125,0.76563c0.03125,0.28125 -0.03125,0.5625 -0.1875,0.84375c-0.14583,0.27084 -0.39583,0.5 -0.75,0.6875c-0.57292,0.32291 -1.21875,0.5625 -1.9375,0.71875c-0.71875,0.16666 -1.41667,0.25 -2.09375,0.25zM365.86676,132.78965c-0.36458,0 -0.65625,-0.11979 -0.875,-0.35937c-0.20833,-0.25 -0.3125,-0.58854 -0.3125,-1.01562c0,-0.48959 0.05729,-0.94791 0.17188,-1.375c0.125,-0.4375 0.31771,-0.875 0.57813,-1.3125c0.26042,-0.4375 0.60938,-0.88541 1.04688,-1.34375c0.3125,-0.35416 0.5625,-0.66146 0.75,-0.92187c0.19792,-0.26041 0.33333,-0.51041 0.40625,-0.75c0.07292,-0.25 0.10938,-0.5 0.10938,-0.75c0,-0.47916 -0.17187,-0.85416 -0.51562,-1.125c-0.34375,-0.27084 -0.83854,-0.40625 -1.48437,-0.40625c-0.60417,0 -1.16667,0.07813 -1.6875,0.23438c-0.51042,0.15625 -1.01042,0.375 -1.5,0.65625c-0.4375,0.23959 -0.83333,0.33334 -1.1875,0.28125c-0.34375,-0.0625 -0.61458,-0.21354 -0.8125,-0.45312c-0.19792,-0.25 -0.31771,-0.54166 -0.35937,-0.875c-0.03125,-0.34375 0.04688,-0.68229 0.23438,-1.01562c0.1875,-0.33334 0.5,-0.625 0.9375,-0.875c0.6875,-0.40625 1.45313,-0.70834 2.29688,-0.90625c0.84375,-0.20834 1.63021,-0.3125 2.35938,-0.3125c1.11458,0 2.09375,0.1875 2.9375,0.5625c0.84375,0.375 1.49479,0.88541 1.95313,1.53125c0.46875,0.63541 0.70313,1.38541 0.70313,2.25c0,0.52084 -0.07812,1.01041 -0.23437,1.46875c-0.14583,0.44791 -0.39062,0.89584 -0.73437,1.34375c-0.33333,0.44791 -0.79167,0.91666 -1.375,1.40625c-0.53125,0.4375 -0.94792,0.83334 -1.25,1.1875c-0.30208,0.34375 -0.52083,0.67188 -0.65625,0.98438c-0.13542,0.3125 -0.22917,0.64584 -0.28125,1c-0.05208,0.25 -0.17708,0.46354 -0.375,0.64063c-0.1875,0.16666 -0.46875,0.25 -0.84375,0.25zM365.81989,138.43028c-0.67708,0 -1.21354,-0.20312 -1.60937,-0.60937c-0.39583,-0.40625 -0.59375,-0.92709 -0.59375,-1.5625c0,-0.625 0.19792,-1.13541 0.59375,-1.53125c0.39583,-0.39584 0.93229,-0.59375 1.60938,-0.59375c0.67708,0 1.20313,0.19791 1.57813,0.59375c0.38542,0.39584 0.57813,0.90625 0.57813,1.53125c0,0.63541 -0.19271,1.15625 -0.57812,1.5625c-0.375,0.40625 -0.90104,0.60938 -1.57812,0.60938z" fill="#a6a6a6" stroke-width="1" stroke-linecap="square"/></g></g></svg>