<svg xmlns="http://www.w3.org/2000/svg" xmlns:xlink="http://www.w3.org/1999/xlink" version="1.1" width="147.71148" height="45.93336" viewBox="0,0,147.71148,45.93336"><g><g data-paper-data="{&quot;isPaintingLayer&quot;:true}" fill-rule="nonzero" stroke-linecap="butt" stroke-linejoin="round" stroke-miterlimit="10" stroke-dasharray="" stroke-dashoffset="0" style="mix-blend-mode: normal"><path d="M240.22572,164.54089c1.94785,-4.42915 6.15176,-7.50757 11.03614,-7.50757c6.73375,0 12.1988,5.83349 12.1988,13.0212c0,14.15565 -14.33236,18.54509 -23.23494,32.91216c-9.41638,-14.45602 -23.23486,-18.28981 -23.23486,-32.91216c0,-7.1877 5.46506,-13.0212 12.1988,-13.0212c4.88441,0 9.08833,3.07842 11.03606,7.50757z" fill="#3d3d3d" stroke-width="0" stroke="none" transform="matrix(1,0,0,1,-166.14427,-157.03332)"/><path d="M290.62081,164.5409c1.94785,-4.42915 6.15176,-7.50758 11.03614,-7.50758c6.73375,0 12.1988,5.83349 12.1988,13.0212c0,14.15565 -14.33236,18.54509 -23.23494,32.91216c-9.41638,-14.45603 -23.23487,-18.28982 -23.23487,-32.91216c0,-7.1877 5.46506,-13.0212 12.1988,-13.0212c4.88442,0 9.08833,3.07843 11.03607,7.50758z" fill="#3d3d3d" stroke-width="0" stroke="none" transform="matrix(1,0,0,1,-166.14427,-157.03332)"/><path d="M189.37912,164.5409c1.94785,-4.42915 6.15176,-7.50758 11.03614,-7.50758c6.73374,0 12.1988,5.83349 12.1988,13.0212c0,14.15565 -14.33236,18.54509 -23.23493,32.91216c-9.41638,-14.45603 -23.23486,-18.28982 -23.23486,-32.91216c0,-7.1877 5.46505,-13.0212 12.1988,-13.0212c4.88441,0 9.08833,3.07843 11.03607,7.50758z" fill="#ff4c4c" stroke-width="0" stroke="none" transform="matrix(1,0,0,1,-166.14427,-157.03332)"/></g></g></svg>