<svg version="1.1" xmlns="http://www.w3.org/2000/svg" xmlns:xlink="http://www.w3.org/1999/xlink" width="162.33853" height="52.55362" viewBox="0,0,162.33853,52.55362"><g transform="translate(-158.83074,-154.88986)"><g data-paper-data="{&quot;isPaintingLayer&quot;:true}" fill-rule="nonzero" stroke="none" stroke-width="1" stroke-linejoin="miter" stroke-miterlimit="10" stroke-dasharray="" stroke-dashoffset="0" style="mix-blend-mode: normal"><path d="M321.16927,162.67214v39.32345c0,3.00421 -2.44263,5.44789 -5.44894,5.44789h-151.4417c-3.00316,0 -5.44789,-2.44368 -5.44789,-5.44789v-39.3245c0,-3.00421 2.44473,-5.44789 5.44789,-5.44789h151.4417c3.00631,0 5.44894,2.44473 5.44894,5.44894z" fill="#57a642" stroke-linecap="butt"/><path d="M321.16927,160.3388v39.32345c0,3.00421 -2.44263,5.44789 -5.44894,5.44789h-151.4417c-3.00316,0 -5.44789,-2.44368 -5.44789,-5.44789v-39.3245c0,-3.00421 2.44473,-5.44789 5.44789,-5.44789h151.4417c3.00631,0 5.44894,2.44473 5.44894,5.44894z" fill="#87ff66" stroke-linecap="butt"/><path d="M197.10995,192.04391c-0.92589,0 -1.63523,-0.25387 -2.12804,-0.7616c-0.47787,-0.50774 -0.71681,-1.22456 -0.71681,-2.15044v-20.16036c0,-0.94082 0.2464,-1.65016 0.73921,-2.12804c0.50774,-0.49281 1.2171,-0.73921 2.12804,-0.73921h8.82576c2.85232,0 5.05502,0.69442 6.60812,2.08324c1.5531,1.37389 2.32964,3.29286 2.32964,5.7569c0,1.59789 -0.35094,2.97926 -1.05282,4.14408c-0.70188,1.16482 -1.71736,2.06083 -3.04645,2.68805c-1.31415,0.62722 -2.92698,0.94082 -4.83849,0.94082l0.29121,-0.60481h1.47842c1.03041,0 1.92644,0.2464 2.68805,0.73921c0.7616,0.49281 1.41869,1.24695 1.97123,2.26244l2.24004,4.18887c0.34348,0.59734 0.50028,1.18722 0.4704,1.76963c-0.01493,0.58241 -0.23147,1.06028 -0.64961,1.43363c-0.40322,0.35841 -1.00802,0.5376 -1.81444,0.5376c-0.79148,0 -1.4411,-0.17173 -1.94883,-0.51521c-0.49281,-0.34348 -0.93335,-0.86615 -1.32162,-1.56803l-3.47206,-6.42892c-0.37334,-0.67201 -0.82134,-1.12748 -1.34403,-1.36642c-0.50774,-0.25387 -1.13495,-0.38081 -1.88163,-0.38081h-2.77764v7.34732c0,0.92589 -0.23893,1.6427 -0.71681,2.15044c-0.46294,0.50774 -1.14989,0.7616 -2.06083,0.7616zM199.8876,177.73006h5.06249c1.49336,0 2.62085,-0.29867 3.38246,-0.89601c0.7616,-0.61228 1.14242,-1.52323 1.14242,-2.73285c0,-1.19469 -0.38081,-2.09071 -1.14242,-2.68805c-0.7616,-0.61228 -1.8891,-0.91842 -3.38246,-0.91842h-5.06249zM227.81014,192.11111c-2.10564,0 -3.9126,-0.38081 -5.4209,-1.14242c-1.5083,-0.7616 -2.67312,-1.83683 -3.49446,-3.22565c-0.80641,-1.40375 -1.20963,-3.04645 -1.20963,-4.92809c0,-1.83683 0.38828,-3.44967 1.16482,-4.83849c0.77654,-1.40375 1.85923,-2.49391 3.24806,-3.27046c1.38882,-0.79148 2.97179,-1.18722 4.74888,-1.18722c1.28429,0 2.44164,0.21653 3.47206,0.64961c1.04535,0.41814 1.94136,1.02294 2.68805,1.81444c0.74668,0.77654 1.31415,1.7323 1.70242,2.86726c0.38828,1.12001 0.58241,2.36698 0.58241,3.74087c0,0.46294 -0.14933,0.81388 -0.448,1.05282c-0.28374,0.224 -0.70188,0.33601 -1.25442,0.33601h-11.4018v-2.84485h9.16176l-0.58241,0.51521c0,-0.98562 -0.14933,-1.81444 -0.448,-2.48644c-0.28374,-0.67201 -0.70188,-1.17229 -1.25442,-1.50083c-0.5376,-0.34348 -1.20963,-0.51521 -2.01604,-0.51521c-0.89601,0 -1.65763,0.20907 -2.28483,0.62722c-0.62722,0.40322 -1.11254,0.99309 -1.45603,1.76963c-0.32854,0.77654 -0.49281,1.70989 -0.49281,2.80005v0.29121c0,1.83683 0.42561,3.19579 1.27683,4.07687c0.86615,0.86615 2.14297,1.29922 3.83047,1.29922c0.58241,0 1.24695,-0.07467 1.99363,-0.224c0.7616,-0.14933 1.4635,-0.38081 2.10564,-0.69442c0.56748,-0.26881 1.06775,-0.35841 1.50083,-0.26881c0.43307,0.0896 0.76907,0.29121 1.00802,0.60481c0.23893,0.3136 0.37334,0.67948 0.40322,1.09762c0.04481,0.40322 -0.04481,0.80641 -0.26881,1.20963c-0.20907,0.38828 -0.56748,0.71681 -1.07522,0.98562c-0.82134,0.46294 -1.74723,0.80641 -2.77764,1.03041c-1.03041,0.23893 -2.03097,0.35841 -3.00165,0.35841zM247.14316,192.11111c-1.67256,0 -3.07632,-0.27628 -4.21127,-0.82881c-1.12001,-0.56748 -1.9563,-1.38135 -2.50885,-2.44164c-0.5376,-1.06028 -0.80641,-2.40432 -0.80641,-4.03208v-6.83212h-1.52323c-0.67201,0 -1.20216,-0.17919 -1.59042,-0.5376c-0.37334,-0.35841 -0.56001,-0.85869 -0.56001,-1.50083c0,-0.67201 0.18666,-1.17975 0.56001,-1.52323c0.38828,-0.35841 0.91842,-0.5376 1.59042,-0.5376h1.52323v-2.75524c0,-0.92589 0.23893,-1.62029 0.71681,-2.08324c0.49281,-0.47787 1.17229,-0.71681 2.03844,-0.71681c0.89601,0 1.5755,0.23893 2.03844,0.71681c0.46294,0.46294 0.69442,1.15735 0.69442,2.08324v2.75524h3.44967c0.67201,0 1.18722,0.17919 1.54563,0.5376c0.37334,0.34348 0.56001,0.85122 0.56001,1.52323c0,0.64214 -0.18666,1.14242 -0.56001,1.50083c-0.35841,0.35841 -0.87362,0.5376 -1.54563,0.5376h-3.44967v6.60812c0,1.01548 0.23147,1.7771 0.69442,2.28483c0.47787,0.50774 1.23949,0.7616 2.28483,0.7616c0.35841,0 0.69442,-0.02987 1.00802,-0.0896c0.3136,-0.07467 0.60481,-0.12694 0.87362,-0.1568c0.34348,-0.02987 0.61975,0.07467 0.82881,0.3136c0.224,0.224 0.33601,0.72428 0.33601,1.50083c0,0.58241 -0.09707,1.09015 -0.29121,1.52323c-0.19413,0.43307 -0.53013,0.74668 -1.00802,0.94082c-0.3136,0.11948 -0.74668,0.224 -1.29922,0.3136c-0.5376,0.0896 -1.00055,0.13441 -1.38882,0.13441zM255.87673,192.04391c-0.91095,0 -1.61282,-0.23893 -2.10564,-0.71681c-0.47787,-0.49281 -0.71681,-1.18722 -0.71681,-2.08324v-12.90263c0,-0.89601 0.23147,-1.5755 0.69442,-2.03844c0.47787,-0.47787 1.14242,-0.71681 1.99363,-0.71681c0.86615,0 1.5307,0.23893 1.99363,0.71681c0.46294,0.46294 0.69442,1.14242 0.69442,2.03844v1.90403h-0.35841c0.28374,-1.4635 0.91842,-2.59098 1.90403,-3.38246c1.00055,-0.80641 2.28483,-1.25442 3.85287,-1.34403c0.61228,-0.04481 1.08269,0.11201 1.41122,0.4704c0.32854,0.34348 0.50028,0.91095 0.51521,1.70242c0.05973,0.74668 -0.0896,1.34403 -0.448,1.79204c-0.34348,0.43307 -0.93335,0.69442 -1.76963,0.78401l-0.82881,0.0672c-1.37389,0.13441 -2.39685,0.5376 -3.06885,1.20963c-0.65708,0.67201 -0.98562,1.65016 -0.98562,2.93445v6.76491c0,0.89601 -0.23893,1.59042 -0.71681,2.08324c-0.47787,0.47787 -1.16482,0.71681 -2.06083,0.71681zM273.96487,198.56242c-0.62722,0 -1.14989,-0.17173 -1.56803,-0.51521c-0.40322,-0.32854 -0.64214,-0.76907 -0.71681,-1.32162c-0.07467,-0.5376 0.0224,-1.10509 0.29121,-1.70242l2.44164,-5.37609v2.24004l-6.42892,-14.73946c-0.23893,-0.62722 -0.32107,-1.20963 -0.2464,-1.74723c0.0896,-0.55254 0.35841,-0.99309 0.80641,-1.32162c0.448,-0.32854 1.06775,-0.49281 1.85923,-0.49281c0.65708,0 1.18722,0.1568 1.59042,0.4704c0.40322,0.29867 0.76907,0.86615 1.09762,1.70242l4.30087,10.90899h-1.16482l4.41288,-10.9314c0.34348,-0.82134 0.72428,-1.38135 1.14242,-1.68003c0.43307,-0.3136 1.01548,-0.4704 1.74723,-0.4704c0.62722,0 1.12748,0.16427 1.50083,0.49281c0.37334,0.32854 0.59734,0.7616 0.67201,1.29922c0.0896,0.52268 -0.00747,1.09762 -0.29121,1.72483l-8.53455,19.35394c-0.35841,0.82134 -0.7616,1.37389 -1.20963,1.65763c-0.448,0.29867 -1.01548,0.448 -1.70242,0.448z" fill="#57a642" stroke-linecap="square"/></g></g></svg>