<svg version="1.1" xmlns="http://www.w3.org/2000/svg" xmlns:xlink="http://www.w3.org/1999/xlink" width="336.5833" height="132.5" viewBox="0,0,336.5833,132.5"><g transform="translate(-71.70835,-113.75)"><g data-paper-data="{&quot;isPaintingLayer&quot;:true}" fill-rule="nonzero" stroke-linejoin="miter" stroke-miterlimit="10" stroke-dasharray="" stroke-dashoffset="0" style="mix-blend-mode: normal"><path d="M273.20833,198v-63h63v63z" fill="#000000" stroke="#ffffff" stroke-width="6.5" stroke-linecap="butt"/><text transform="translate(281.36044,171.92727) scale(0.42273,0.42273)" font-size="40" xml:space="preserve" fill="#ffffff" fill-rule="nonzero" stroke="#ffffff" stroke-width="2" stroke-linecap="butt" stroke-linejoin="miter" stroke-miterlimit="10" stroke-dasharray="" stroke-dashoffset="0" font-family="Pixel" font-weight="normal" text-anchor="start" style="mix-blend-mode: normal"><tspan x="0" dy="0">◄ / A</tspan></text><path d="M342.04165,197.91667v-63h63v63z" fill="#000000" stroke="#ffffff" stroke-width="6.5" stroke-linecap="butt"/><text transform="translate(350.37499,171.67728) scale(0.42273,0.42273)" font-size="40" xml:space="preserve" fill="#ffffff" fill-rule="nonzero" stroke="#ffffff" stroke-width="2" stroke-linecap="butt" stroke-linejoin="miter" stroke-miterlimit="10" stroke-dasharray="" stroke-dashoffset="0" font-family="Pixel" font-weight="normal" text-anchor="start" style="mix-blend-mode: normal"><tspan x="0" dy="0">► / D</tspan></text><path d="M74.95835,180v-63h63v63z" fill="#000000" stroke="#ffffff" stroke-width="6.5" stroke-linecap="butt"/><text transform="translate(80.45835,153.875) scale(0.46875,0.46875)" font-size="40" xml:space="preserve" fill="#ffffff" fill-rule="nonzero" stroke="#ffffff" stroke-width="2" stroke-linecap="butt" stroke-linejoin="miter" stroke-miterlimit="10" stroke-dasharray="" stroke-dashoffset="0" font-family="Pixel" font-weight="normal" text-anchor="start" style="mix-blend-mode: normal"><tspan x="0" dy="0">▲ / W</tspan></text><path d="M74.95835,243v-63h63v63z" fill="#000000" stroke="#ffffff" stroke-width="6.5" stroke-linecap="butt"/><text transform="translate(80.45835,217.875) scale(0.46875,0.46875)" font-size="40" xml:space="preserve" fill="#ffffff" fill-rule="nonzero" stroke="#ffffff" stroke-width="2" stroke-linecap="butt" stroke-linejoin="miter" stroke-miterlimit="10" stroke-dasharray="" stroke-dashoffset="0" font-family="Pixel" font-weight="normal" text-anchor="start" style="mix-blend-mode: normal"><tspan x="0" dy="0">▼ / S</tspan></text><path d="M151.16592,154.60203c-0.38336,0 -0.67638,-0.10575 -0.87908,-0.31726c-0.20269,-0.21591 -0.30404,-0.51555 -0.30404,-0.89891v-9.80205c0,-0.38336 0.11016,-0.68079 0.33048,-0.8923c0.22032,-0.21591 0.52216,-0.32387 0.90552,-0.32387c0.33929,0 0.60588,0.0661 0.79976,0.19829c0.19829,0.12779 0.38336,0.35031 0.55521,0.66757l3.90628,7.13837h-0.57504l3.90628,-7.13837c0.17185,-0.31726 0.35471,-0.53978 0.5486,-0.66757c0.19829,-0.13219 0.46047,-0.19829 0.78654,-0.19829c0.38776,0 0.6852,0.10796 0.8923,0.32387c0.2071,0.21151 0.31065,0.50894 0.31065,0.8923v9.80205c0,0.38336 -0.10135,0.68299 -0.30404,0.89891c-0.20269,0.21151 -0.49572,0.31726 -0.87908,0.31726c-0.38336,0 -0.68079,-0.10575 -0.8923,-0.31726c-0.2071,-0.21591 -0.31065,-0.51555 -0.31065,-0.89891v-6.85416h0.37675l-3.15278,5.63138c-0.13219,0.21591 -0.2754,0.37895 -0.42962,0.48911c-0.14982,0.10575 -0.35031,0.15863 -0.60147,0.15863c-0.24676,0 -0.44945,-0.05728 -0.60808,-0.17185c-0.15863,-0.11457 -0.29964,-0.2732 -0.42301,-0.47589l-3.17922,-5.65121h0.40319v6.87399c0,0.38336 -0.09914,0.68299 -0.29743,0.89891c-0.19388,0.21151 -0.48911,0.31726 -0.88569,0.31726zM168.54626,154.63508c-0.8945,0 -1.67223,-0.17405 -2.33319,-0.52216c-0.65655,-0.35251 -1.16549,-0.85484 -1.52682,-1.50699c-0.36132,-0.65655 -0.54199,-1.42988 -0.54199,-2.31997c0,-0.66537 0.10135,-1.26243 0.30404,-1.7912c0.20269,-0.52877 0.49792,-0.98263 0.88569,-1.36158c0.39217,-0.37895 0.85925,-0.66757 1.40124,-0.86586c0.54199,-0.19829 1.14567,-0.29743 1.81103,-0.29743c0.89009,0 1.66342,0.17626 2.31997,0.52877c0.66096,0.34811 1.17431,0.84383 1.54004,1.48716c0.37014,0.64334 0.55521,1.41005 0.55521,2.30014c0,0.67859 -0.10575,1.28226 -0.31726,1.81103c-0.2071,0.52877 -0.50233,0.98704 -0.88569,1.3748c-0.38336,0.38336 -0.84823,0.67418 -1.39463,0.87247c-0.54639,0.19388 -1.15228,0.29082 -1.81764,0.29082zM168.54626,152.7249c0.37014,0 0.6896,-0.09033 0.95839,-0.27099c0.2732,-0.18066 0.48911,-0.44725 0.64774,-0.79976c0.15863,-0.35692 0.23795,-0.81298 0.23795,-1.36819c0,-0.824 -0.16965,-1.42988 -0.50894,-1.81764c-0.33929,-0.38776 -0.78434,-0.58165 -1.33514,-0.58165c-0.36132,0 -0.68079,0.08592 -0.95839,0.25777c-0.2776,0.16744 -0.49352,0.42962 -0.64774,0.78654c-0.14982,0.35251 -0.22473,0.80417 -0.22473,1.35497c0,0.824 0.16965,1.43649 0.50894,1.83747c0.33929,0.40098 0.77993,0.60147 1.32192,0.60147zM177.83355,154.60203c-0.32607,0 -0.61469,-0.08592 -0.86586,-0.25777c-0.24676,-0.17626 -0.44284,-0.44064 -0.58825,-0.79315l-2.55792,-5.88916c-0.12338,-0.29082 -0.16965,-0.56182 -0.1388,-0.81298c0.03525,-0.25557 0.15643,-0.45827 0.36353,-0.60808c0.21151,-0.15422 0.50453,-0.23134 0.87908,-0.23134c0.30404,0 0.5508,0.0705 0.74028,0.21151c0.19388,0.14101 0.36353,0.40759 0.50894,0.79976l1.9961,5.07618h-0.54199l2.08203,-5.0894c0.15863,-0.38336 0.33268,-0.64554 0.52216,-0.78654c0.19388,-0.14101 0.46047,-0.21151 0.79976,-0.21151c0.29082,0 0.52436,0.07711 0.70062,0.23134c0.17626,0.14982 0.28421,0.34811 0.32387,0.59486c0.03966,0.24676 -0.00881,0.51775 -0.14541,0.81298l-2.60418,5.90238c-0.14982,0.36132 -0.3459,0.62791 -0.58825,0.79976c-0.24235,0.16744 -0.53758,0.25117 -0.88569,0.25117zM187.45924,154.63508c-0.97822,0 -1.81985,-0.17626 -2.52487,-0.52877c-0.70502,-0.35692 -1.24701,-0.85925 -1.62596,-1.50699c-0.37895,-0.65215 -0.56843,-1.41666 -0.56843,-2.29353c0,-0.85925 0.18066,-1.61274 0.54199,-2.26049c0.36132,-0.64774 0.86586,-1.15448 1.5136,-1.52021c0.64774,-0.37014 1.38361,-0.55521 2.20761,-0.55521c0.59927,0 1.14126,0.09914 1.62596,0.29743c0.48471,0.19829 0.90111,0.4803 1.24922,0.84603c0.35251,0.36573 0.6191,0.81298 0.79976,1.34175c0.18066,0.52436 0.27099,1.10601 0.27099,1.74494c0,0.21591 -0.0683,0.37895 -0.2049,0.48911c-0.1366,0.10575 -0.33489,0.15863 -0.59486,0.15863h-5.31412v-1.32192h4.26981l-0.27099,0.23795c0,-0.46267 -0.0683,-0.84823 -0.2049,-1.15668c-0.1366,-0.31286 -0.33268,-0.5486 -0.58825,-0.70723c-0.25117,-0.15863 -0.56182,-0.23795 -0.93195,-0.23795c-0.41861,0 -0.77553,0.09694 -1.07076,0.29082c-0.29082,0.18947 -0.51555,0.46488 -0.67418,0.8262c-0.15863,0.36132 -0.23795,0.79756 -0.23795,1.3087v0.13219c0,0.85925 0.20049,1.49157 0.60147,1.89696c0.40098,0.40539 0.99585,0.60808 1.78459,0.60808c0.26879,0 0.57724,-0.03305 0.92534,-0.09914c0.35251,-0.0705 0.68079,-0.17846 0.98483,-0.32387c0.25998,-0.12338 0.49131,-0.16524 0.69401,-0.12558c0.20269,0.03966 0.35912,0.13219 0.46928,0.2776c0.11457,0.14541 0.18066,0.31506 0.19829,0.50894c0.01762,0.18947 -0.02423,0.37895 -0.12558,0.56843c-0.10135,0.18507 -0.27099,0.33929 -0.50894,0.46267c-0.38336,0.21591 -0.81519,0.37675 -1.29548,0.4825c-0.47589,0.10575 -0.94077,0.15863 -1.39463,0.15863zM198.71327,154.45001c-0.42742,0 -0.7579,-0.11897 -0.99144,-0.35692c-0.22913,-0.23795 -0.3437,-0.56402 -0.3437,-0.97822v-9.29311c0,-0.44064 0.11236,-0.77332 0.33709,-0.99805c0.22473,-0.22473 0.5508,-0.33709 0.97822,-0.33709c0.41861,0 0.74028,0.11236 0.965,0.33709c0.22913,0.22473 0.3437,0.55741 0.3437,0.99805v8.41403h4.53419c0.36132,0 0.63893,0.09694 0.83281,0.29082c0.19829,0.18947 0.29743,0.45827 0.29743,0.80637c0,0.36132 -0.09914,0.63893 -0.29743,0.83281c-0.19388,0.18947 -0.47149,0.28421 -0.83281,0.28421zM211.08035,154.63508c-0.97821,0 -1.81983,-0.17626 -2.52486,-0.52877c-0.70502,-0.35692 -1.24701,-0.85925 -1.62596,-1.50699c-0.37895,-0.65215 -0.56843,-1.41666 -0.56843,-2.29353c0,-0.85925 0.18066,-1.61274 0.54199,-2.26049c0.36132,-0.64774 0.86586,-1.15448 1.5136,-1.52021c0.64774,-0.37014 1.38361,-0.55521 2.2076,-0.55521c0.59927,0 1.14126,0.09914 1.62596,0.29743c0.48471,0.19829 0.90111,0.4803 1.24922,0.84603c0.35251,0.36573 0.6191,0.81298 0.79976,1.34175c0.18066,0.52436 0.27099,1.10601 0.27099,1.74494c0,0.21591 -0.0683,0.37895 -0.2049,0.48911c-0.1366,0.10575 -0.33489,0.15863 -0.59486,0.15863h-5.31411v-1.32192h4.26979l-0.27099,0.23795c0,-0.46267 -0.0683,-0.84823 -0.2049,-1.15668c-0.1366,-0.31286 -0.33268,-0.5486 -0.58825,-0.70723c-0.25117,-0.15863 -0.56182,-0.23795 -0.93195,-0.23795c-0.41861,0 -0.77552,0.09694 -1.07074,0.29082c-0.29082,0.18947 -0.51555,0.46488 -0.67418,0.8262c-0.15863,0.36132 -0.23795,0.79756 -0.23795,1.3087v0.13219c0,0.85925 0.20049,1.49157 0.60147,1.89696c0.40098,0.40539 0.99584,0.60808 1.78458,0.60808c0.26879,0 0.57724,-0.03305 0.92534,-0.09914c0.35251,-0.0705 0.68079,-0.17846 0.98483,-0.32387c0.25998,-0.12338 0.49131,-0.16524 0.69401,-0.12558c0.20269,0.03966 0.35912,0.13219 0.46928,0.2776c0.11457,0.14541 0.18066,0.31506 0.19829,0.50894c0.01762,0.18947 -0.02423,0.37895 -0.12558,0.56843c-0.10135,0.18507 -0.27099,0.33929 -0.50894,0.46267c-0.38336,0.21591 -0.81519,0.37675 -1.29548,0.4825c-0.47589,0.10575 -0.94077,0.15863 -1.39463,0.15863zM217.93291,154.60203c-0.4142,0 -0.73146,-0.11236 -0.95178,-0.33709c-0.22032,-0.22473 -0.33048,-0.54639 -0.33048,-0.965v-5.24803h-0.60808c-0.31726,0 -0.56402,-0.08372 -0.74028,-0.25117c-0.17185,-0.16744 -0.25777,-0.39878 -0.25777,-0.69401c0,-0.31726 0.08592,-0.55741 0.25777,-0.72045c0.17626,-0.16304 0.42301,-0.24456 0.74028,-0.24456h1.34836l-0.74028,0.67418v-0.52216c0,-1.20735 0.30184,-2.10846 0.90552,-2.70333c0.60368,-0.59927 1.49157,-0.9606 2.66367,-1.08398l0.54199,-0.05288c0.29082,-0.02203 0.52436,0.02423 0.70062,0.1388c0.17626,0.11016 0.29082,0.25557 0.3437,0.43623c0.05728,0.18066 0.0683,0.36353 0.03305,0.5486c-0.03084,0.18507 -0.10575,0.34811 -0.22473,0.48911c-0.11897,0.14101 -0.27981,0.21812 -0.4825,0.23134l-0.23795,0.01983c-0.60808,0.04406 -1.04211,0.18727 -1.30209,0.42962c-0.25998,0.24235 -0.38997,0.61249 -0.38997,1.11041v0.57504l-0.31726,-0.29082h1.52021c0.32607,0 0.57283,0.08152 0.74028,0.24456c0.17185,0.16304 0.25777,0.40319 0.25777,0.72045c0,0.29523 -0.08592,0.52656 -0.25777,0.69401c-0.16744,0.16744 -0.4142,0.25117 -0.74028,0.25117h-1.20295v5.24803c0,0.86806 -0.42301,1.30209 -1.26904,1.30209zM226.03709,154.63508c-0.77553,0 -1.42547,-0.12999 -1.94983,-0.38997c-0.52436,-0.25998 -0.91433,-0.63673 -1.1699,-1.13024c-0.25117,-0.49792 -0.37675,-1.12363 -0.37675,-1.87713v-3.18583h-0.71384c-0.31726,0 -0.56402,-0.08372 -0.74028,-0.25117c-0.17185,-0.16744 -0.25777,-0.39878 -0.25777,-0.69401c0,-0.31726 0.08592,-0.55741 0.25777,-0.72045c0.17626,-0.16304 0.42301,-0.24456 0.74028,-0.24456h0.71384v-1.28887c0,-0.42742 0.11236,-0.75129 0.33709,-0.97161c0.22473,-0.22032 0.53978,-0.33048 0.94517,-0.33048c0.41861,0 0.73367,0.11016 0.94517,0.33048c0.21591,0.22032 0.32387,0.54419 0.32387,0.97161v1.28887h1.60613c0.31726,0 0.55961,0.08152 0.72706,0.24456c0.17185,0.16304 0.25777,0.40319 0.25777,0.72045c0,0.29523 -0.08592,0.52656 -0.25777,0.69401c-0.16744,0.16744 -0.4098,0.25117 -0.72706,0.25117h-1.60613v3.08008c0,0.47589 0.11016,0.83281 0.33048,1.07076c0.22032,0.23354 0.57283,0.35031 1.05754,0.35031c0.16744,0 0.32387,-0.01542 0.46928,-0.04627c0.14982,-0.03525 0.28642,-0.05949 0.4098,-0.07271c0.15863,-0.00881 0.28862,0.03966 0.38997,0.14541c0.10135,0.10575 0.15202,0.33929 0.15202,0.70062c0,0.2732 -0.04627,0.51114 -0.1388,0.71384c-0.08813,0.20269 -0.24456,0.34811 -0.46928,0.43623c-0.14541,0.05728 -0.3459,0.10575 -0.60147,0.14541c-0.25557,0.03966 -0.47369,0.05949 -0.65435,0.05949z" fill="#ffffff" stroke="none" stroke-width="1" stroke-linecap="square"/><path d="M151.17604,217.40674c-0.38336,0 -0.67638,-0.10575 -0.87908,-0.31726c-0.20269,-0.21591 -0.30404,-0.51555 -0.30404,-0.89891v-9.80205c0,-0.38336 0.11016,-0.68079 0.33048,-0.8923c0.22032,-0.21591 0.52216,-0.32387 0.90552,-0.32387c0.33929,0 0.60588,0.0661 0.79976,0.19829c0.19829,0.12779 0.38336,0.35031 0.55521,0.66757l3.90628,7.13837h-0.57504l3.90628,-7.13837c0.17185,-0.31726 0.35471,-0.53978 0.5486,-0.66757c0.19829,-0.13219 0.46047,-0.19829 0.78654,-0.19829c0.38776,0 0.6852,0.10796 0.8923,0.32387c0.2071,0.21151 0.31065,0.50894 0.31065,0.8923v9.80205c0,0.38336 -0.10135,0.68299 -0.30404,0.89891c-0.20269,0.21151 -0.49572,0.31726 -0.87908,0.31726c-0.38336,0 -0.68079,-0.10575 -0.8923,-0.31726c-0.2071,-0.21591 -0.31065,-0.51555 -0.31065,-0.89891v-6.85416h0.37675l-3.15278,5.63138c-0.13219,0.21591 -0.2754,0.37895 -0.42962,0.48911c-0.14982,0.10575 -0.35031,0.15863 -0.60147,0.15863c-0.24676,0 -0.44945,-0.05728 -0.60808,-0.17185c-0.15863,-0.11457 -0.29964,-0.2732 -0.42301,-0.47589l-3.17922,-5.65121h0.40319v6.87399c0,0.38336 -0.09914,0.68299 -0.29743,0.89891c-0.19388,0.21151 -0.48911,0.31726 -0.88569,0.31726zM168.55638,217.43979c-0.8945,0 -1.67223,-0.17405 -2.33319,-0.52216c-0.65655,-0.35251 -1.16549,-0.85484 -1.52682,-1.50699c-0.36132,-0.65655 -0.54199,-1.42988 -0.54199,-2.31997c0,-0.66537 0.10135,-1.26243 0.30404,-1.7912c0.20269,-0.52877 0.49792,-0.98263 0.88569,-1.36158c0.39217,-0.37895 0.85925,-0.66757 1.40124,-0.86586c0.54199,-0.19829 1.14567,-0.29743 1.81103,-0.29743c0.89009,0 1.66342,0.17626 2.31997,0.52877c0.66096,0.34811 1.17431,0.84383 1.54004,1.48716c0.37014,0.64334 0.55521,1.41005 0.55521,2.30014c0,0.67859 -0.10575,1.28226 -0.31726,1.81103c-0.2071,0.52877 -0.50233,0.98704 -0.88569,1.3748c-0.38336,0.38336 -0.84823,0.67418 -1.39463,0.87247c-0.54639,0.19388 -1.15228,0.29082 -1.81764,0.29082zM168.55638,215.52962c0.37014,0 0.6896,-0.09033 0.95839,-0.27099c0.2732,-0.18066 0.48911,-0.44725 0.64774,-0.79976c0.15863,-0.35692 0.23795,-0.81298 0.23795,-1.36819c0,-0.824 -0.16965,-1.42988 -0.50894,-1.81764c-0.33929,-0.38776 -0.78434,-0.58165 -1.33514,-0.58165c-0.36132,0 -0.68079,0.08592 -0.95839,0.25777c-0.2776,0.16744 -0.49352,0.42962 -0.64774,0.78654c-0.14982,0.35251 -0.22473,0.80417 -0.22473,1.35497c0,0.824 0.16965,1.43649 0.50894,1.83747c0.33929,0.40098 0.77993,0.60147 1.32192,0.60147zM177.84368,217.40674c-0.32607,0 -0.61469,-0.08592 -0.86586,-0.25777c-0.24676,-0.17626 -0.44284,-0.44064 -0.58825,-0.79315l-2.55792,-5.88916c-0.12338,-0.29082 -0.16965,-0.56182 -0.1388,-0.81298c0.03525,-0.25557 0.15643,-0.45827 0.36353,-0.60808c0.21151,-0.15422 0.50453,-0.23134 0.87908,-0.23134c0.30404,0 0.5508,0.0705 0.74028,0.21151c0.19388,0.14101 0.36353,0.40759 0.50894,0.79976l1.9961,5.07618h-0.54199l2.08203,-5.0894c0.15863,-0.38336 0.33268,-0.64554 0.52216,-0.78654c0.19388,-0.14101 0.46047,-0.21151 0.79976,-0.21151c0.29082,0 0.52436,0.07711 0.70062,0.23134c0.17626,0.14982 0.28421,0.34811 0.32387,0.59486c0.03966,0.24676 -0.00881,0.51775 -0.14541,0.81298l-2.60418,5.90238c-0.14982,0.36132 -0.3459,0.62791 -0.58825,0.79976c-0.24235,0.16744 -0.53758,0.25117 -0.88569,0.25117zM187.46937,217.43979c-0.97822,0 -1.81985,-0.17626 -2.52487,-0.52877c-0.70502,-0.35692 -1.24701,-0.85925 -1.62596,-1.50699c-0.37895,-0.65215 -0.56843,-1.41666 -0.56843,-2.29353c0,-0.85925 0.18066,-1.61274 0.54199,-2.26049c0.36132,-0.64774 0.86586,-1.15448 1.5136,-1.52021c0.64774,-0.37014 1.38361,-0.55521 2.20761,-0.55521c0.59927,0 1.14126,0.09914 1.62596,0.29743c0.48471,0.19829 0.90111,0.4803 1.24922,0.84603c0.35251,0.36573 0.6191,0.81298 0.79976,1.34175c0.18066,0.52436 0.27099,1.10601 0.27099,1.74494c0,0.21591 -0.0683,0.37895 -0.2049,0.48911c-0.1366,0.10575 -0.33489,0.15863 -0.59486,0.15863h-5.31412v-1.32192h4.26981l-0.27099,0.23795c0,-0.46267 -0.0683,-0.84823 -0.2049,-1.15668c-0.1366,-0.31286 -0.33268,-0.5486 -0.58825,-0.70723c-0.25117,-0.15863 -0.56182,-0.23795 -0.93195,-0.23795c-0.41861,0 -0.77553,0.09694 -1.07076,0.29082c-0.29082,0.18947 -0.51555,0.46488 -0.67418,0.8262c-0.15863,0.36132 -0.23795,0.79756 -0.23795,1.3087v0.13219c0,0.85925 0.20049,1.49157 0.60147,1.89696c0.40098,0.40539 0.99585,0.60808 1.78459,0.60808c0.26879,0 0.57724,-0.03305 0.92534,-0.09914c0.35251,-0.0705 0.68079,-0.17846 0.98483,-0.32387c0.25998,-0.12338 0.49131,-0.16524 0.69401,-0.12558c0.20269,0.03966 0.35912,0.13219 0.46928,0.2776c0.11457,0.14541 0.18066,0.31506 0.19829,0.50894c0.01762,0.18947 -0.02423,0.37895 -0.12558,0.56843c-0.10135,0.18507 -0.27099,0.33929 -0.50894,0.46267c-0.38336,0.21591 -0.81519,0.37675 -1.29548,0.4825c-0.47589,0.10575 -0.94077,0.15863 -1.39463,0.15863zM198.70357,217.40674c-0.42742,0 -0.7535,-0.11677 -0.97822,-0.35031c-0.22473,-0.23795 -0.33709,-0.57283 -0.33709,-1.00466v-9.39225c0,-0.43623 0.11457,-0.76671 0.3437,-0.99144c0.23354,-0.22913 0.56402,-0.3437 0.99144,-0.3437h4.11118c1.33073,0 2.35743,0.32167 3.08008,0.965c0.72265,0.64334 1.08398,1.54004 1.08398,2.69011c0,0.74468 -0.16524,1.38802 -0.49572,1.93001c-0.32607,0.54199 -0.79756,0.9606 -1.41446,1.25583c-0.61249,0.29082 -1.36378,0.43623 -2.25388,0.43623l0.1388,-0.29082h0.69401c0.47149,0 0.88348,0.11677 1.236,0.35031c0.35692,0.22913 0.66537,0.58165 0.92534,1.05754l1.05093,1.94322c0.15863,0.28201 0.23134,0.55961 0.21812,0.83281c-0.00881,0.26879 -0.11016,0.48911 -0.30404,0.66096c-0.18947,0.16744 -0.47149,0.25117 -0.84603,0.25117c-0.37014,0 -0.67198,-0.07932 -0.90552,-0.23795c-0.22913,-0.15863 -0.43403,-0.40098 -0.61469,-0.72706l-1.62596,-2.99415c-0.16744,-0.31726 -0.37454,-0.53097 -0.6213,-0.64113c-0.24235,-0.11457 -0.53758,-0.17185 -0.88569,-0.17185h-1.28226v3.41717c0,0.43183 -0.11016,0.76671 -0.33048,1.00466c-0.22032,0.23354 -0.54639,0.35031 -0.97822,0.35031zM200.01227,210.73765h2.34641c0.70062,0 1.22718,-0.14101 1.5797,-0.42301c0.35692,-0.28201 0.53538,-0.70502 0.53538,-1.26904c0,-0.5508 -0.17846,-0.96721 -0.53538,-1.24922c-0.35251,-0.28201 -0.87908,-0.42301 -1.5797,-0.42301h-2.34641zM210.22912,217.38691c-0.41861,0 -0.73807,-0.12118 -0.95839,-0.36353c-0.22032,-0.24235 -0.33048,-0.58165 -0.33048,-1.01788v-5.79002c0,-0.44945 0.11016,-0.79536 0.33048,-1.03771c0.22032,-0.24235 0.53978,-0.36353 0.95839,-0.36353c0.40539,0 0.71824,0.12118 0.93856,0.36353c0.22032,0.24235 0.33048,0.58825 0.33048,1.03771v5.79002c0,0.43623 -0.10796,0.77553 -0.32387,1.01788c-0.21151,0.24235 -0.52656,0.36353 -0.94517,0.36353zM210.22912,207.42624c-0.47149,0 -0.83501,-0.11016 -1.09059,-0.33048c-0.25557,-0.22032 -0.38336,-0.53317 -0.38336,-0.93856c0,-0.41861 0.12779,-0.73807 0.38336,-0.95839c0.25557,-0.22032 0.6191,-0.33048 1.09059,-0.33048c0.47589,0 0.83722,0.11016 1.08398,0.33048c0.24676,0.22032 0.37014,0.53978 0.37014,0.95839c0,0.40539 -0.12338,0.71824 -0.37014,0.93856c-0.24676,0.22032 -0.60808,0.33048 -1.08398,0.33048zM217.47378,220.48682c-0.61249,0 -1.19854,-0.05067 -1.75816,-0.15202c-0.55521,-0.10135 -1.04652,-0.25337 -1.47394,-0.45606c-0.25998,-0.11457 -0.44505,-0.26218 -0.55521,-0.44284c-0.10575,-0.18066 -0.14982,-0.37234 -0.13219,-0.57504c0.01762,-0.20269 0.08592,-0.38336 0.2049,-0.54199c0.11897,-0.15863 0.26879,-0.26879 0.44945,-0.33048c0.18066,-0.06169 0.37234,-0.04627 0.57504,0.04627c0.49352,0.22473 0.95178,0.37014 1.3748,0.43623c0.42301,0.0705 0.78654,0.10575 1.09059,0.10575c0.72265,0 1.26464,-0.16524 1.62596,-0.49572c0.36132,-0.32607 0.54199,-0.8262 0.54199,-1.50038v-1.28887h0.15202c-0.16744,0.51995 -0.51775,0.94297 -1.05093,1.26904c-0.52877,0.32607 -1.11482,0.48911 -1.75816,0.48911c-0.74468,0 -1.39463,-0.17185 -1.94983,-0.51555c-0.5508,-0.3437 -0.97822,-0.8284 -1.28226,-1.45411c-0.30404,-0.62571 -0.45606,-1.35056 -0.45606,-2.17456c0,-0.6213 0.08592,-1.18532 0.25777,-1.69206c0.17626,-0.50674 0.42522,-0.94077 0.74689,-1.30209c0.32167,-0.36132 0.71163,-0.64113 1.1699,-0.83942c0.45827,-0.19829 0.9628,-0.29743 1.5136,-0.29743c0.66537,0 1.25362,0.16083 1.76476,0.4825c0.51555,0.32167 0.85925,0.74248 1.0311,1.26243l-0.17185,0.54199v-0.965c0,-0.41861 0.11016,-0.73587 0.33048,-0.95178c0.22032,-0.22032 0.53317,-0.33048 0.93856,-0.33048c0.40539,0 0.71384,0.11016 0.92534,0.33048c0.21591,0.21591 0.32387,0.53317 0.32387,0.95178v6.1932c0,1.38802 -0.38115,2.43454 -1.14346,3.13956c-0.7579,0.70502 -1.85289,1.05754 -3.28497,1.05754zM217.52004,215.13965c0.38336,0 0.71384,-0.09033 0.99144,-0.27099c0.2776,-0.18066 0.49352,-0.43623 0.64774,-0.76671c0.15863,-0.33489 0.23795,-0.73367 0.23795,-1.19634c0,-0.70062 -0.17185,-1.24481 -0.51555,-1.63257c-0.3437,-0.38776 -0.79756,-0.58165 -1.36158,-0.58165c-0.38336,0 -0.71604,0.08813 -0.99805,0.26438c-0.28201,0.17185 -0.50013,0.42522 -0.65435,0.7601c-0.14982,0.33048 -0.22473,0.72706 -0.22473,1.18973c0,0.70062 0.16965,1.24922 0.50894,1.64579c0.33929,0.39217 0.79536,0.58825 1.36819,0.58825zM225.16999,217.40674c-0.41861,0 -0.73807,-0.11236 -0.95839,-0.33709c-0.22032,-0.22473 -0.33048,-0.54639 -0.33048,-0.965v-9.6302c0,-0.42742 0.11016,-0.75129 0.33048,-0.97161c0.22032,-0.22032 0.53978,-0.33048 0.95839,-0.33048c0.40539,0 0.71824,0.11016 0.93856,0.33048c0.22032,0.22032 0.33048,0.54419 0.33048,0.97161v4.03186h-0.23795c0.25998,-0.55521 0.64554,-0.98263 1.15668,-1.28226c0.51555,-0.29964 1.1016,-0.44945 1.75816,-0.44945c0.66537,0 1.21176,0.12779 1.63918,0.38336c0.42742,0.25557 0.74689,0.64113 0.95839,1.15668c0.21591,0.51114 0.32387,1.16109 0.32387,1.94983v3.84018c0,0.41861 -0.11016,0.74028 -0.33048,0.965c-0.21591,0.22473 -0.53317,0.33709 -0.95178,0.33709c-0.40539,0 -0.71824,-0.11236 -0.93856,-0.33709c-0.22032,-0.22473 -0.33048,-0.54639 -0.33048,-0.965v-3.72121c0,-0.57724 -0.10575,-0.99144 -0.31726,-1.24261c-0.2071,-0.25557 -0.52436,-0.38336 -0.95178,-0.38336c-0.54199,0 -0.97382,0.16965 -1.29548,0.50894c-0.32167,0.33929 -0.4825,0.79095 -0.4825,1.35497v3.48326c0,0.86806 -0.42301,1.30209 -1.26904,1.30209zM238.02697,217.43979c-0.77553,0 -1.42547,-0.12999 -1.94983,-0.38997c-0.52436,-0.25998 -0.91433,-0.63673 -1.1699,-1.13024c-0.25117,-0.49792 -0.37675,-1.12363 -0.37675,-1.87713v-3.18583h-0.71384c-0.31726,0 -0.56402,-0.08372 -0.74028,-0.25117c-0.17185,-0.16744 -0.25777,-0.39878 -0.25777,-0.69401c0,-0.31726 0.08592,-0.55741 0.25777,-0.72045c0.17626,-0.16304 0.42301,-0.24456 0.74028,-0.24456h0.71384v-1.28887c0,-0.42742 0.11236,-0.75129 0.33709,-0.97161c0.22473,-0.22032 0.53978,-0.33048 0.94517,-0.33048c0.41861,0 0.73367,0.11016 0.94517,0.33048c0.21591,0.22032 0.32387,0.54419 0.32387,0.97161v1.28887h1.60613c0.31726,0 0.55961,0.08152 0.72706,0.24456c0.17185,0.16304 0.25777,0.40319 0.25777,0.72045c0,0.29523 -0.08592,0.52656 -0.25777,0.69401c-0.16744,0.16744 -0.4098,0.25117 -0.72706,0.25117h-1.60613v3.08008c0,0.47589 0.11016,0.83281 0.33048,1.07076c0.22032,0.23354 0.57283,0.35031 1.05754,0.35031c0.16744,0 0.32387,-0.01542 0.46928,-0.04627c0.14982,-0.03525 0.28642,-0.05949 0.4098,-0.07271c0.15863,-0.00881 0.28862,0.03966 0.38997,0.14541c0.10135,0.10575 0.15202,0.33929 0.15202,0.70062c0,0.2732 -0.04627,0.51114 -0.1388,0.71384c-0.08813,0.20269 -0.24456,0.34811 -0.46928,0.43623c-0.14541,0.05728 -0.3459,0.10575 -0.60147,0.14541c-0.25557,0.03966 -0.47369,0.05949 -0.65435,0.05949z" fill="#ffffff" stroke="none" stroke-width="1" stroke-linecap="square"/><path d="M284.32156,222.94574c-0.40182,0.01386 -0.71588,-0.09006 -0.9422,-0.31176c-0.22169,-0.22631 -0.33254,-0.51728 -0.33254,-0.87292c0,-0.2725 0.08082,-0.51267 0.24248,-0.7205c0.15703,-0.20784 0.38796,-0.31637 0.69279,-0.32561l0.51959,-0.03464c0.4711,-0.03695 0.82442,-0.1732 1.05997,-0.40875c0.23555,-0.23555 0.35332,-0.5958 0.35332,-1.08075v-7.64841c0,-0.448 0.11777,-0.79209 0.35332,-1.03226c0.24017,-0.24479 0.57733,-0.36718 1.01147,-0.36718c0.45262,0 0.79671,0.12239 1.03226,0.36718c0.23555,0.24017 0.35332,0.58425 0.35332,1.03226v7.61377c0,0.78054 -0.13856,1.441 -0.41567,1.98138c-0.27712,0.53576 -0.6951,0.95143 -1.25395,1.24702c-0.55423,0.29559 -1.23779,0.4711 -2.05066,0.52652zM294.14755,223.00117c-0.73436,0 -1.34401,-0.13625 -1.82897,-0.40875c-0.48495,-0.2725 -0.84289,-0.68355 -1.07383,-1.23317c-0.23093,-0.54961 -0.3464,-1.23086 -0.3464,-2.04373v-4.01126c0,-0.448 0.11546,-0.78285 0.3464,-1.00455c0.23093,-0.22631 0.55885,-0.33947 0.98376,-0.33947c0.42953,0 0.76207,0.11316 0.99762,0.33947c0.23555,0.22169 0.35332,0.55654 0.35332,1.00455v4.08054c0,0.5219 0.10623,0.90987 0.31868,1.16389c0.21246,0.25402 0.54961,0.38103 1.01147,0.38103c0.50805,0 0.92372,-0.18013 1.24702,-0.54038c0.32792,-0.36487 0.49188,-0.84289 0.49188,-1.43408v-3.65101c0,-0.448 0.11546,-0.78285 0.3464,-1.00455c0.23093,-0.22631 0.55885,-0.33947 0.98376,-0.33947c0.43877,0 0.77131,0.11316 0.99762,0.33947c0.23093,0.22169 0.3464,0.55654 0.3464,1.00455v6.29747c0,0.90987 -0.43184,1.3648 -1.29552,1.3648c-0.42491,0 -0.75052,-0.11777 -0.97684,-0.35332c-0.22169,-0.23555 -0.33254,-0.57271 -0.33254,-1.01147v-1.1916l0.26326,0.69279c-0.25864,0.60504 -0.63044,1.07383 -1.11539,1.40637c-0.48495,0.32792 -1.05766,0.49188 -1.71812,0.49188zM302.78249,222.96653c-0.43877,0 -0.77362,-0.11777 -1.00455,-0.35332c-0.22631,-0.23555 -0.33947,-0.57271 -0.33947,-1.01147v-6.29747c0,-0.43877 0.11316,-0.77131 0.33947,-0.99762c0.23093,-0.23093 0.55423,-0.3464 0.96991,-0.3464c0.42491,0 0.74821,0.11546 0.96991,0.3464c0.22631,0.22631 0.33947,0.55885 0.33947,0.99762v1.13618l-0.19398,-0.70665c0.24017,-0.54499 0.60735,-0.98376 1.10154,-1.3163c0.49881,-0.33254 1.08306,-0.49881 1.75276,-0.49881c0.67432,0 1.23548,0.16165 1.68348,0.48495c0.45262,0.31868 0.77362,0.80826 0.96298,1.46872h-0.2494c0.25864,-0.60504 0.65584,-1.08075 1.1916,-1.42715c0.54038,-0.35101 1.15927,-0.52652 1.85668,-0.52652c0.67432,0 1.22624,0.13394 1.65577,0.40182c0.43415,0.26788 0.75745,0.67201 0.96991,1.21238c0.21246,0.53576 0.31868,1.217 0.31868,2.04373v4.02511c0,0.43877 -0.11546,0.77593 -0.3464,1.01147c-0.22631,0.23555 -0.55423,0.35332 -0.98376,0.35332c-0.43415,0 -0.76669,-0.11777 -0.99762,-0.35332c-0.23093,-0.23555 -0.3464,-0.57271 -0.3464,-1.01147v-3.93505c0,-0.58194 -0.09237,-1.00455 -0.27712,-1.26781c-0.18474,-0.26788 -0.49419,-0.40182 -0.92834,-0.40182c-0.50805,0 -0.90525,0.17782 -1.1916,0.53345c-0.28173,0.35563 -0.4226,0.85675 -0.4226,1.50336v3.56787c0,0.43877 -0.11546,0.77593 -0.3464,1.01147c-0.23093,0.23555 -0.55885,0.35332 -0.98376,0.35332c-0.42491,0 -0.75745,-0.11777 -0.99762,-0.35332c-0.23555,-0.23555 -0.35332,-0.57271 -0.35332,-1.01147v-3.93505c0,-0.58194 -0.09237,-1.00455 -0.27712,-1.26781c-0.18013,-0.26788 -0.48957,-0.40182 -0.92834,-0.40182c-0.50805,0 -0.90525,0.17782 -1.1916,0.53345c-0.28173,0.35563 -0.4226,0.85675 -0.4226,1.50336v3.56787c0,0.90987 -0.44339,1.3648 -1.33016,1.3648zM318.51463,226.16029c-0.43877,0 -0.77362,-0.11546 -1.00455,-0.3464c-0.23093,-0.23093 -0.3464,-0.5704 -0.3464,-1.0184v-9.49123c0,-0.43877 0.11546,-0.77131 0.3464,-0.99762c0.23093,-0.23093 0.55423,-0.3464 0.96991,-0.3464c0.43877,0 0.769,0.11546 0.99069,0.3464c0.22631,0.22631 0.33947,0.55885 0.33947,0.99762v1.20546l-0.19398,-0.69279c0.17551,-0.56809 0.53114,-1.02533 1.0669,-1.37173c0.54038,-0.35101 1.15927,-0.52652 1.85668,-0.52652c0.75745,0 1.42253,0.18474 1.99524,0.55423c0.57271,0.36487 1.0184,0.88446 1.33709,1.55878c0.3233,0.67432 0.48495,1.47795 0.48495,2.41091c0,0.93296 -0.16165,1.74352 -0.48495,2.4317c-0.31868,0.68355 -0.76207,1.21007 -1.33016,1.57956c-0.56347,0.36487 -1.23086,0.5473 -2.00217,0.5473c-0.68355,0 -1.29321,-0.16858 -1.82897,-0.50574c-0.53114,-0.33716 -0.89139,-0.77824 -1.08075,-1.32323h0.21477v3.6233c0,0.448 -0.11546,0.78747 -0.3464,1.0184c-0.23093,0.23093 -0.55885,0.3464 -0.98376,0.3464zM321.74303,220.999c0.37872,0 0.71126,-0.09468 0.99762,-0.28404c0.29097,-0.18936 0.51498,-0.46879 0.67201,-0.83828c0.16165,-0.37411 0.24248,-0.85213 0.24248,-1.43408c0,-0.86368 -0.17782,-1.49874 -0.53345,-1.90517c-0.35101,-0.40644 -0.81057,-0.60966 -1.37865,-0.60966c-0.37872,0 -0.71357,0.09006 -1.00455,0.27019c-0.28635,0.17551 -0.51267,0.45031 -0.67893,0.82442c-0.16627,0.36949 -0.2494,0.84289 -0.2494,1.42022c0,0.86368 0.17782,1.50567 0.53345,1.92596c0.35563,0.42029 0.82211,0.63044 1.39944,0.63044z" fill="#ffffff" stroke="none" stroke-width="1" stroke-linecap="square"/><path d="M350.84704,223.2837c-1.34863,0 -2.50097,-0.26557 -3.45703,-0.79671c-0.95605,-0.53114 -1.69272,-1.27935 -2.21,-2.24464c-0.51267,-0.96529 -0.769,-2.10377 -0.769,-3.41546c0,-0.97915 0.14318,-1.8613 0.42953,-2.64646c0.29097,-0.78978 0.71357,-1.4641 1.26781,-2.02295c0.55885,-0.56347 1.23779,-0.99762 2.0368,-1.30245c0.79902,-0.30945 1.69965,-0.46417 2.70188,-0.46417c0.59118,0 1.1916,0.0739 1.80126,0.22169c0.60966,0.1478 1.13849,0.35794 1.58649,0.63044c0.29559,0.16627 0.4965,0.37411 0.60273,0.62351c0.10623,0.24479 0.13856,0.49188 0.09699,0.74129c-0.04157,0.2494 -0.14318,0.46417 -0.30483,0.6443c-0.15703,0.17551 -0.35332,0.28635 -0.58887,0.33254c-0.23555,0.04619 -0.50112,-0.00693 -0.79671,-0.15934c-0.35563,-0.21246 -0.72974,-0.36487 -1.12232,-0.45724c-0.38796,-0.09699 -0.78285,-0.14549 -1.18467,-0.14549c-0.78978,0 -1.45486,0.15703 -1.99524,0.4711c-0.53576,0.30945 -0.93989,0.75976 -1.21238,1.35094c-0.2725,0.59118 -0.40875,1.31861 -0.40875,2.18229c0,0.85444 0.13625,1.58418 0.40875,2.18922c0.2725,0.60042 0.67662,1.05766 1.21238,1.37173c0.54038,0.30945 1.20546,0.46417 1.99524,0.46417c0.37872,0 0.76669,-0.04619 1.16389,-0.13856c0.3972,-0.09699 0.77824,-0.24479 1.1431,-0.44339c0.30483,-0.15241 0.57733,-0.20784 0.81749,-0.16627c0.24479,0.04157 0.448,0.1478 0.60966,0.31868c0.16165,0.17089 0.26095,0.37411 0.2979,0.60966c0.04157,0.23555 0.01386,0.47341 -0.08313,0.71357c-0.09237,0.23555 -0.26788,0.43415 -0.52652,0.5958c-0.43877,0.29559 -0.97684,0.52652 -1.6142,0.69279c-0.63737,0.16627 -1.27012,0.2494 -1.89825,0.2494zM358.06618,223.24906c-0.448,0 -0.79209,-0.11777 -1.03226,-0.35332c-0.23555,-0.23555 -0.35332,-0.57271 -0.35332,-1.01147v-6.29747c0,-0.43877 0.11546,-0.77131 0.3464,-0.99762c0.23093,-0.23093 0.55423,-0.3464 0.96991,-0.3464c0.42491,0 0.74821,0.11546 0.96991,0.3464c0.22631,0.22631 0.33947,0.55885 0.33947,0.99762v0.92141h-0.1732c0.13856,-0.70665 0.45031,-1.25395 0.93527,-1.64191c0.48495,-0.39258 1.11308,-0.61427 1.88439,-0.66508c0.29559,-0.02309 0.5219,0.05311 0.67893,0.22862c0.16165,0.17089 0.24709,0.45031 0.25633,0.83828c0.02771,0.36487 -0.04619,0.65584 -0.22169,0.87292c-0.17089,0.21246 -0.45724,0.34178 -0.85906,0.38796l-0.40875,0.03464c-0.6697,0.06004 -1.16851,0.25633 -1.49643,0.58887c-0.3233,0.32792 -0.48495,0.80595 -0.48495,1.43408v3.29768c0,0.43877 -0.11546,0.77593 -0.3464,1.01147c-0.23093,0.23555 -0.56578,0.35332 -1.00455,0.35332zM368.01936,223.2837c-0.93758,0 -1.75276,-0.18244 -2.44555,-0.5473c-0.68817,-0.36949 -1.22162,-0.89601 -1.60035,-1.57956c-0.37872,-0.68817 -0.56809,-1.49874 -0.56809,-2.4317c0,-0.69741 0.10623,-1.32323 0.31868,-1.87746c0.21246,-0.55423 0.5219,-1.02995 0.92834,-1.42715c0.41106,-0.3972 0.90063,-0.69972 1.46872,-0.90756c0.56809,-0.20784 1.20084,-0.31176 1.89825,-0.31176c0.93296,0 1.74352,0.18474 2.4317,0.55423c0.69279,0.36487 1.23086,0.88446 1.6142,1.55878c0.38796,0.67432 0.58194,1.47795 0.58194,2.41091c0,0.71126 -0.11085,1.34401 -0.33254,1.89825c-0.21708,0.55423 -0.52652,1.03457 -0.92834,1.441c-0.40182,0.40182 -0.88908,0.70665 -1.46179,0.91448c-0.57271,0.20322 -1.20777,0.30483 -1.90517,0.30483zM368.01936,221.28153c0.38796,0 0.72281,-0.09468 1.00455,-0.28404c0.28635,-0.18936 0.51267,-0.46879 0.67893,-0.83828c0.16627,-0.37411 0.2494,-0.85213 0.2494,-1.43408c0,-0.86368 -0.17782,-1.49874 -0.53345,-1.90517c-0.35563,-0.40644 -0.82211,-0.60966 -1.39944,-0.60966c-0.37872,0 -0.71357,0.09006 -1.00455,0.27019c-0.29097,0.17551 -0.51728,0.45031 -0.67893,0.82442c-0.15703,0.36949 -0.23555,0.84289 -0.23555,1.42022c0,0.86368 0.17782,1.50567 0.53345,1.92596c0.35563,0.42029 0.81749,0.63044 1.38558,0.63044zM377.4887,223.2837c-0.73436,0 -1.34401,-0.13625 -1.82897,-0.40875c-0.48495,-0.2725 -0.84289,-0.68355 -1.07383,-1.23317c-0.23093,-0.54961 -0.3464,-1.23086 -0.3464,-2.04373v-4.01126c0,-0.448 0.11546,-0.78285 0.3464,-1.00455c0.23093,-0.22631 0.55885,-0.33947 0.98376,-0.33947c0.42953,0 0.76207,0.11316 0.99762,0.33947c0.23555,0.22169 0.35332,0.55654 0.35332,1.00455v4.08054c0,0.5219 0.10623,0.90987 0.31868,1.16389c0.21246,0.25402 0.54961,0.38103 1.01147,0.38103c0.50805,0 0.92372,-0.18013 1.24702,-0.54038c0.32792,-0.36487 0.49188,-0.84289 0.49188,-1.43408v-3.65101c0,-0.448 0.11546,-0.78285 0.3464,-1.00455c0.23093,-0.22631 0.55885,-0.33947 0.98376,-0.33947c0.43877,0 0.77131,0.11316 0.99762,0.33947c0.23093,0.22169 0.3464,0.55654 0.3464,1.00455v6.29747c0,0.90987 -0.43184,1.3648 -1.29552,1.3648c-0.42491,0 -0.75052,-0.11777 -0.97684,-0.35332c-0.22169,-0.23555 -0.33254,-0.57271 -0.33254,-1.01147v-1.1916l0.26326,0.69279c-0.25864,0.60504 -0.63044,1.07383 -1.11539,1.40637c-0.48495,0.32792 -1.05766,0.49188 -1.71812,0.49188zM388.97794,223.2837c-0.9422,0 -1.76662,-0.18474 -2.47326,-0.55423c-0.70203,-0.37411 -1.24241,-0.90294 -1.62113,-1.58649c-0.37872,-0.68817 -0.56809,-1.49874 -0.56809,-2.4317c0,-0.69741 0.10623,-1.32323 0.31868,-1.87746c0.21246,-0.55885 0.5219,-1.03226 0.92834,-1.42022c0.41106,-0.39258 0.90525,-0.69279 1.48257,-0.90063c0.58194,-0.20784 1.22624,-0.31176 1.93289,-0.31176c0.36949,0 0.75976,0.04619 1.17082,0.13856c0.41567,0.08775 0.82442,0.23786 1.22624,0.45031c0.23555,0.10623 0.3972,0.25633 0.48495,0.45031c0.09237,0.19398 0.1247,0.39489 0.09699,0.60273c-0.02309,0.20784 -0.09699,0.39258 -0.22169,0.55423c-0.12008,0.15703 -0.27481,0.26326 -0.46417,0.31868c-0.18936,0.05081 -0.40413,0.01847 -0.6443,-0.09699c-0.22169,-0.13394 -0.45493,-0.22862 -0.69972,-0.28404c-0.24017,-0.06004 -0.46648,-0.09006 -0.67893,-0.09006c-0.35563,0 -0.6697,0.05542 -0.9422,0.16627c-0.2725,0.11085 -0.50112,0.27019 -0.68586,0.47803c-0.18013,0.20784 -0.32099,0.46648 -0.4226,0.77593c-0.10161,0.30483 -0.15241,0.65815 -0.15241,1.05997c0,0.78054 0.19167,1.39251 0.57502,1.8359c0.38796,0.44339 0.93065,0.66508 1.62806,0.66508c0.21246,0 0.43646,-0.0254 0.67201,-0.07621c0.23555,-0.05542 0.4711,-0.1478 0.70665,-0.27712c0.24017,-0.12008 0.45493,-0.1501 0.6443,-0.09006c0.18936,0.06004 0.33947,0.17089 0.45031,0.33254c0.11085,0.15703 0.17551,0.33947 0.19398,0.5473c0.01847,0.20784 -0.01847,0.40875 -0.11085,0.60273c-0.08775,0.19398 -0.24248,0.34409 -0.46417,0.45031c-0.40182,0.20322 -0.80364,0.34871 -1.20546,0.43646c-0.40182,0.08775 -0.78747,0.13163 -1.15696,0.13163zM394.56653,223.24906c-0.43877,0 -0.77362,-0.11777 -1.00455,-0.35332c-0.23093,-0.23555 -0.3464,-0.57271 -0.3464,-1.01147v-10.09396c0,-0.448 0.11546,-0.78747 0.3464,-1.0184c0.23093,-0.23093 0.56578,-0.3464 1.00455,-0.3464c0.42491,0 0.75283,0.11546 0.98376,0.3464c0.23093,0.23093 0.3464,0.5704 0.3464,1.0184v4.22602h-0.2494c0.2725,-0.58194 0.67662,-1.02995 1.21238,-1.34401c0.54038,-0.31407 1.15465,-0.4711 1.84282,-0.4711c0.69739,0 1.27009,0.13394 1.71809,0.40182c0.448,0.26788 0.78285,0.67201 1.00455,1.21238c0.22631,0.53576 0.33947,1.217 0.33947,2.04373v4.02511c0,0.43877 -0.11546,0.77593 -0.3464,1.01147c-0.22631,0.23555 -0.55885,0.35332 -0.99762,0.35332c-0.42491,0 -0.75283,-0.11777 -0.98376,-0.35332c-0.23091,-0.23555 -0.34637,-0.57271 -0.34637,-1.01147v-3.90041c0,-0.60504 -0.11085,-1.03919 -0.33254,-1.30245c-0.21708,-0.26788 -0.54961,-0.40182 -0.99762,-0.40182c-0.56809,0 -1.02071,0.17782 -1.35787,0.53345c-0.33716,0.35563 -0.50574,0.82904 -0.50574,1.42022v3.65101c0,0.90987 -0.44339,1.3648 -1.33016,1.3648z" fill="#ffffff" stroke="none" stroke-width="1" stroke-linecap="square"/></g></g></svg>