<svg version="1.1" xmlns="http://www.w3.org/2000/svg" xmlns:xlink="http://www.w3.org/1999/xlink" width="272.19019" height="27.96865" viewBox="0,0,272.19019,27.96865"><g transform="translate(-103.90491,-166.01568)"><g data-paper-data="{&quot;isPaintingLayer&quot;:true}" fill="#ffffff" fill-rule="nonzero" stroke="none" stroke-width="1" stroke-linecap="square" stroke-linejoin="miter" stroke-miterlimit="10" stroke-dasharray="" stroke-dashoffset="0" style="mix-blend-mode: normal"><path d="M106.89564,193.90918c-0.97186,0 -1.71329,-0.26551 -2.22427,-0.79653c-0.51098,-0.54104 -0.76647,-1.3025 -0.76647,-2.28438v-21.65654c0,-0.97186 0.25549,-1.72832 0.76647,-2.26935c0.51098,-0.54104 1.2524,-0.81156 2.22427,-0.81156c0.95183,0 1.68323,0.27052 2.19421,0.81156c0.521,0.54104 0.7815,1.29749 0.7815,2.26935v8.16065h12.60919v-8.16065c0,-0.97186 0.25549,-1.72832 0.76647,-2.26935c0.521,-0.54104 1.2524,-0.81156 2.19421,-0.81156c0.98189,0 1.72832,0.27052 2.2393,0.81156c0.51098,0.54104 0.76647,1.29749 0.76647,2.26935v21.65654c0,0.98189 -0.25549,1.74334 -0.76647,2.28438c-0.51098,0.53102 -1.25741,0.79653 -2.2393,0.79653c-0.9418,0 -1.67321,-0.26551 -2.19421,-0.79653c-0.51098,-0.54104 -0.76647,-1.3025 -0.76647,-2.28438v-8.53637h-12.60919v8.53637c0,0.98189 -0.25048,1.74334 -0.75144,2.28438c-0.50096,0.53102 -1.24238,0.79653 -2.22427,0.79653zM146.49355,193.98432c-2.66511,0 -5.0046,-0.58111 -7.01846,-1.74334c-2.01386,-1.17225 -3.58187,-2.81039 -4.70402,-4.91443c-1.11213,-2.10404 -1.6682,-4.55373 -1.6682,-7.3491c0,-2.12408 0.31059,-4.03774 0.93179,-5.74101c0.63121,-1.71329 1.53795,-3.17609 2.72022,-4.38842c1.18227,-1.22235 2.59999,-2.16415 4.25316,-2.82542c1.65317,-0.67129 3.48168,-1.00693 5.48552,-1.00693c2.71521,0 5.07473,0.57611 7.07858,1.72832c2.00385,1.15221 3.56183,2.77532 4.67397,4.86934c1.11213,2.09402 1.6682,4.53871 1.6682,7.33407c0,2.12408 -0.32062,4.04777 -0.96184,5.77107c-0.64123,1.71329 -1.55298,3.18611 -2.73525,4.41848c-1.17225,1.23236 -2.57995,2.18419 -4.2231,2.85548c-1.64315,0.66127 -3.47667,0.9919 -5.50055,0.9919zM146.49355,188.90458c1.5129,0 2.80037,-0.35067 3.86241,-1.05202c1.06204,-0.71137 1.88361,-1.73833 2.46473,-3.08091c0.58111,-1.34258 0.87167,-2.94064 0.87167,-4.7942c0,-2.8154 -0.63121,-4.99959 -1.89363,-6.55257c-1.2524,-1.55298 -3.02079,-2.32947 -5.30518,-2.32947c-1.49287,0 -2.78033,0.34566 -3.86241,1.03699c-1.07206,0.69133 -1.88862,1.70327 -2.4497,3.03582c-0.56108,1.33255 -0.84161,2.93563 -0.84161,4.80922c0,2.79536 0.6262,4.98456 1.8786,6.5676c1.26242,1.57302 3.02079,2.35953 5.27512,2.35953zM173.84781,193.90918c-0.82157,0 -1.48785,-0.19537 -1.99883,-0.58612c-0.51098,-0.40077 -0.92177,-1.01194 -1.23236,-1.83352l-7.7699,-21.85192c-0.34065,-0.98189 -0.27553,-1.81849 0.19537,-2.50981c0.48092,-0.69133 1.31252,-1.03699 2.49479,-1.03699c0.82157,0 1.45279,0.19537 1.89363,0.58612c0.45086,0.38073 0.82157,0.98189 1.11213,1.80346l6.34217,18.89124h-1.65317l6.68783,-18.86118c0.31059,-0.81156 0.69133,-1.41772 1.14219,-1.81849c0.45086,-0.40077 1.04701,-0.60115 1.78843,-0.60115c0.72138,0 1.29749,0.20039 1.72832,0.60115c0.44085,0.40077 0.81156,1.02196 1.11213,1.86357l6.38725,18.81609h-1.41271l6.4624,-18.89124c0.25048,-0.79152 0.60616,-1.38766 1.06705,-1.78843c0.46088,-0.40077 1.09209,-0.60115 1.89363,-0.60115c1.00192,0 1.73333,0.34566 2.19421,1.03699c0.46088,0.69133 0.51098,1.52793 0.15029,2.50981l-7.84505,21.88197c-0.28054,0.80154 -0.66628,1.40269 -1.15722,1.80346c-0.49094,0.39075 -1.15722,0.58612 -1.99883,0.58612c-0.82157,0 -1.47784,-0.19537 -1.96878,-0.58612c-0.48092,-0.40077 -0.87668,-1.01194 -1.18728,-1.83352l-6.08668,-17.20801h0.93179l-6.16182,17.23807c-0.30058,0.80154 -0.69133,1.40269 -1.17225,1.80346c-0.4709,0.39075 -1.11714,0.58612 -1.93872,0.58612zM227.10149,193.90918c-0.98189,0 -1.72832,-0.26551 -2.2393,-0.79653c-0.51098,-0.54104 -0.76647,-1.3025 -0.76647,-2.28438v-19.46233h-6.80806c-0.80154,0 -1.42273,-0.21541 -1.86357,-0.64624c-0.43082,-0.44085 -0.64624,-1.04701 -0.64624,-1.81849c0,-0.79152 0.21541,-1.39768 0.64624,-1.81849c0.44085,-0.43082 1.06204,-0.64624 1.86357,-0.64624h19.58256c0.79152,0 1.40269,0.21541 1.83352,0.64624c0.44085,0.42081 0.66127,1.02697 0.66127,1.81849c0,0.77148 -0.22042,1.37764 -0.66127,1.81849c-0.43082,0.43082 -1.042,0.64624 -1.83352,0.64624h-6.80806v19.46233c0,0.98189 -0.25048,1.74334 -0.75144,2.28438c-0.50096,0.53102 -1.23738,0.79653 -2.20924,0.79653zM252.91201,193.98432c-2.66511,0 -5.0046,-0.58111 -7.01846,-1.74334c-2.01386,-1.17225 -3.58187,-2.81039 -4.70402,-4.91443c-1.11213,-2.10404 -1.6682,-4.55373 -1.6682,-7.3491c0,-2.12408 0.31059,-4.03774 0.93179,-5.74101c0.63121,-1.71329 1.53795,-3.17609 2.72022,-4.38842c1.18227,-1.22235 2.59999,-2.16415 4.25316,-2.82542c1.65317,-0.67129 3.48168,-1.00693 5.48552,-1.00693c2.71521,0 5.07473,0.57611 7.07858,1.72832c2.00385,1.15221 3.56183,2.77532 4.67397,4.86934c1.11213,2.09402 1.6682,4.53871 1.6682,7.33407c0,2.12408 -0.32062,4.04777 -0.96184,5.77107c-0.64123,1.71329 -1.55298,3.18611 -2.73525,4.41848c-1.17225,1.23236 -2.57995,2.18419 -4.2231,2.85548c-1.64315,0.66127 -3.47667,0.9919 -5.50055,0.9919zM252.91201,188.90458c1.5129,0 2.80037,-0.35067 3.86241,-1.05202c1.06204,-0.71137 1.88361,-1.73833 2.46473,-3.08091c0.58111,-1.34258 0.87167,-2.94064 0.87167,-4.7942c0,-2.8154 -0.63121,-4.99959 -1.89363,-6.55257c-1.2524,-1.55298 -3.02079,-2.32947 -5.30518,-2.32947c-1.49287,0 -2.78033,0.34566 -3.86241,1.03699c-1.07206,0.69133 -1.88862,1.70327 -2.4497,3.03582c-0.56108,1.33255 -0.84161,2.93563 -0.84161,4.80922c0,2.79536 0.6262,4.98456 1.8786,6.5676c1.26242,1.57302 3.02079,2.35953 5.27512,2.35953zM284.68292,193.90918c-0.97186,0 -1.71329,-0.26551 -2.22427,-0.79653c-0.51098,-0.54104 -0.76647,-1.3025 -0.76647,-2.28438v-21.35596c0,-0.9919 0.2605,-1.74334 0.7815,-2.25432c0.53102,-0.521 1.28246,-0.7815 2.25432,-0.7815h9.3479c3.02581,0 5.36028,0.76647 7.00343,2.29941c1.64315,1.52292 2.46473,3.64199 2.46473,6.35719c0,2.72523 -0.82157,4.85932 -2.46473,6.40228c-1.64315,1.53294 -3.97763,2.29941 -7.00343,2.29941h-6.41728v7.03349c0,0.98189 -0.25048,1.74334 -0.75144,2.28438c-0.50096,0.53102 -1.24238,0.79653 -2.22427,0.79653zM287.65863,179.18093h5.42538c1.53294,0 2.70018,-0.34566 3.50172,-1.03699c0.81156,-0.70134 1.21734,-1.7183 1.21734,-3.05085c0,-1.33255 -0.40578,-2.32947 -1.21734,-2.99074c-0.80154,-0.67129 -1.96878,-1.00693 -3.50172,-1.00693h-5.42538zM310.27452,193.56352c-0.97186,0 -1.7233,-0.27052 -2.25432,-0.81156c-0.521,-0.54104 -0.7815,-1.28246 -0.7815,-2.22427v-21.13053c0,-1.00192 0.25549,-1.75837 0.76647,-2.26935c0.51098,-0.51098 1.2524,-0.76647 2.22427,-0.76647c0.95183,0 1.68323,0.25549 2.19421,0.76647c0.521,0.51098 0.7815,1.26743 0.7815,2.26935v19.1317h10.30978c0.82157,0 1.45279,0.22042 1.89363,0.66127c0.45086,0.43082 0.6763,1.042 0.6763,1.83352c0,0.82157 -0.22543,1.45279 -0.6763,1.89363c-0.44085,0.43082 -1.07206,0.64624 -1.89363,0.64624zM329.58897,193.90918c-0.72138,0 -1.30751,-0.16532 -1.75837,-0.49595c-0.44085,-0.34065 -0.72138,-0.79152 -0.84161,-1.35259c-0.11021,-0.56108 0,-1.18728 0.33063,-1.8786l9.84388,-21.5814c0.41079,-0.87167 0.89672,-1.50789 1.4578,-1.90866c0.5711,-0.40077 1.22735,-0.60115 1.96878,-0.60115c0.74142,0 1.39267,0.20039 1.95375,0.60115c0.5711,0.40077 1.04701,1.03699 1.42774,1.90866l9.93406,21.5814c0.33063,0.69133 0.45086,1.32755 0.36069,1.90866c-0.09017,0.5711 -0.35568,1.01695 -0.79653,1.33757c-0.43082,0.32062 -0.9919,0.48092 -1.68323,0.48092c-0.87167,0 -1.54797,-0.20539 -2.02889,-0.61618c-0.4709,-0.41079 -0.8867,-1.05202 -1.24739,-1.92369l-2.29941,-5.35026l2.38958,1.65317h-16.05079l2.38958,-1.65317l-2.26935,5.35026c-0.39075,0.90173 -0.79653,1.55298 -1.21734,1.95375c-0.42081,0.39075 -1.042,0.58612 -1.86357,0.58612zM340.51493,172.79368l-4.92946,11.72249l-1.03699,-1.48785h12.03809l-1.03699,1.48785l-4.95951,-11.72249zM364.71551,193.90918c-0.97186,0 -1.7183,-0.26551 -2.2393,-0.79653c-0.51098,-0.54104 -0.76647,-1.31252 -0.76647,-2.31444v-11.16642l1.23236,3.42657l-9.07741,-12.87971c-0.36069,-0.54104 -0.51599,-1.12716 -0.46589,-1.75837c0.0501,-0.63121 0.30559,-1.17726 0.76647,-1.63814c0.4709,-0.46088 1.12716,-0.69133 1.96878,-0.69133c0.62119,0 1.17726,0.1553 1.6682,0.46589c0.50096,0.31059 0.98189,0.79653 1.44277,1.4578l6.16182,8.89707h-1.23236l6.16182,-8.89707c0.48092,-0.69133 0.95683,-1.18227 1.42774,-1.47283c0.48092,-0.30058 1.042,-0.45086 1.68323,-0.45086c0.82157,0 1.46281,0.21541 1.92369,0.64624c0.46088,0.42081 0.70134,0.94682 0.72138,1.57803c0.03006,0.62119 -0.18536,1.26743 -0.64624,1.93872l-8.95718,12.80456l1.18728,-3.42657v11.16642c0,2.07398 -0.98689,3.11097 -2.96068,3.11097z"/></g></g></svg>