<svg version="1.1" xmlns="http://www.w3.org/2000/svg" xmlns:xlink="http://www.w3.org/1999/xlink" width="200.0859" height="60.38292" viewBox="0,0,200.0859,60.38292"><g transform="translate(-139.95705,-151.28796)"><g data-paper-data="{&quot;isPaintingLayer&quot;:true}" fill-rule="nonzero" stroke="none" stroke-linejoin="miter" stroke-miterlimit="10" stroke-dasharray="" stroke-dashoffset="0" style="mix-blend-mode: normal"><path d="M340.04295,182.95816c0,15.8576 -12.85378,28.71272 -28.71138,28.71272h-142.66182c-15.85759,0 -28.7127,-12.85511 -28.7127,-28.71272c0,-15.85627 12.85511,-28.71137 28.7127,-28.71137h142.66182c15.8576,0 28.71138,12.8551 28.71138,28.71137z" fill="#57a642" stroke-width="0" stroke-linecap="butt"/><path d="M340.04295,179.99933c0,15.8576 -12.85378,28.71272 -28.71138,28.71272h-142.66182c-15.85759,0 -28.7127,-12.85511 -28.7127,-28.71272c0,-15.85627 12.85511,-28.71137 28.7127,-28.71137h142.66182c15.8576,0 28.71138,12.8551 28.71138,28.71137z" fill="#87ff66" stroke-width="0" stroke-linecap="butt"/><path d="M165.08712,191.16519c-0.7258,0 -1.27821,-0.20161 -1.65724,-0.60483c-0.37903,-0.40322 -0.56854,-0.97579 -0.56854,-1.71772v-17.64898c0,-0.78225 0.18951,-1.37902 0.56854,-1.7903c0.37903,-0.41935 0.89112,-0.62902 1.53627,-0.62902c0.55644,0 0.98386,0.10887 1.28224,0.32661c0.29838,0.21774 0.64515,0.57257 1.04031,1.0645l10.86277,13.85064h-0.83467v-12.94339c0,-0.7258 0.18951,-1.29031 0.56854,-1.69353c0.38709,-0.40322 0.94354,-0.60483 1.66933,-0.60483c0.71773,0 1.26611,0.20161 1.64514,0.60483c0.38709,0.40322 0.58064,0.96773 0.58064,1.69353v17.86672c0,0.67741 -0.17742,1.21773 -0.53225,1.62095c-0.34677,0.40322 -0.81854,0.60483 -1.41531,0.60483c-0.58064,0 -1.04434,-0.1129 -1.39111,-0.33871c-0.33871,-0.2258 -0.7016,-0.5887 -1.0887,-1.0887l-10.83857,-13.83854h0.79838v12.94339c0,0.74193 -0.18548,1.3145 -0.55644,1.71772c-0.37096,0.40322 -0.92741,0.60483 -1.66933,0.60483zM193.66755,191.22567c-1.7903,0 -3.33061,-0.32258 -4.62091,-0.96773c-1.29031,-0.65322 -2.28223,-1.57256 -2.97577,-2.75803c-0.69354,-1.19353 -1.04031,-2.59271 -1.04031,-4.19753c0,-1.57256 0.33064,-2.95158 0.99192,-4.13705c0.66128,-1.18547 1.58466,-2.11288 2.77013,-2.78222c1.18547,-0.67741 2.53223,-1.01612 4.04027,-1.01612c1.09676,0 2.08868,0.18145 2.97577,0.54435c0.88709,0.3629 1.64917,0.87902 2.28626,1.54837c0.64515,0.66935 1.13305,1.48788 1.46369,2.45562c0.33064,0.95967 0.49596,2.02417 0.49596,3.19351c0,0.39516 -0.125,0.69354 -0.375,0.89515c-0.25,0.19355 -0.61289,0.29032 -1.0887,0.29032h-9.72569v-2.41933h7.81442l-0.49596,0.43548c0,-0.84676 -0.125,-1.5524 -0.375,-2.11691c-0.25,-0.57257 -0.60886,-1.00402 -1.0766,-1.29434c-0.45967,-0.29032 -1.02821,-0.43548 -1.70562,-0.43548c-0.76612,0 -1.41934,0.17742 -1.95965,0.53225c-0.53225,0.34677 -0.94354,0.8508 -1.23386,1.51208c-0.29032,0.66128 -0.43548,1.45966 -0.43548,2.39513v0.24193c0,1.57256 0.36693,2.7298 1.10079,3.47173c0.73386,0.74193 1.82256,1.11289 3.26609,1.11289c0.49193,0 1.05644,-0.06048 1.69353,-0.18145c0.64515,-0.12903 1.24595,-0.32661 1.8024,-0.59273c0.4758,-0.2258 0.89918,-0.30242 1.27015,-0.22984c0.37096,0.07258 0.65725,0.24193 0.85886,0.50806c0.20968,0.26613 0.33064,0.5766 0.3629,0.93144c0.03226,0.34677 -0.04435,0.69354 -0.22984,1.04031c-0.18548,0.33871 -0.49596,0.62096 -0.93144,0.84676c-0.70161,0.39516 -1.49192,0.68951 -2.37094,0.88305c-0.87096,0.19355 -1.72175,0.29032 -2.55239,0.29032zM204.32852,191.1047c-0.58064,0 -1.04837,-0.15726 -1.40321,-0.47177c-0.34677,-0.32258 -0.52822,-0.72983 -0.54435,-1.22176c-0.00806,-0.5 0.19758,-1.00805 0.61693,-1.52417l4.79026,-5.89106v2.10481l-4.45156,-5.44348c-0.43548,-0.54031 -0.64515,-1.05644 -0.62902,-1.54837c0.02419,-0.5 0.20968,-0.90321 0.55644,-1.20966c0.35484,-0.30645 0.82257,-0.45967 1.40321,-0.45967c0.55644,0 1.02015,0.09274 1.39111,0.27822c0.37096,0.18548 0.72176,0.49193 1.05241,0.91934l3.31448,4.24592h-1.64514l3.31448,-4.24592c0.35484,-0.42742 0.71773,-0.73386 1.0887,-0.91934c0.37096,-0.18548 0.82257,-0.27822 1.35482,-0.27822c0.58064,0 1.04434,0.16129 1.39111,0.48387c0.35484,0.31451 0.53629,0.72176 0.54435,1.22176c0.01613,0.49193 -0.19355,0.99596 -0.62902,1.51208l-4.46365,5.44348v-2.10481l4.83865,5.89106c0.42742,0.49193 0.62902,0.98789 0.60483,1.48788c-0.01613,0.49193 -0.20564,0.90321 -0.56854,1.23386c-0.35484,0.33064 -0.82257,0.49596 -1.40321,0.49596c-0.55644,0 -1.01612,-0.09677 -1.37902,-0.29032c-0.3629,-0.20161 -0.71773,-0.50806 -1.0645,-0.91934l-3.62899,-4.60881h1.58466l-3.62899,4.60881c-0.33064,0.39516 -0.67741,0.69757 -1.04031,0.90725c-0.35484,0.20161 -0.81047,0.30242 -1.36692,0.30242zM227.48194,191.22567c-1.41934,0 -2.60884,-0.2379 -3.5685,-0.7137c-0.95967,-0.4758 -1.67337,-1.16531 -2.1411,-2.06852c-0.45967,-0.91128 -0.68951,-2.05643 -0.68951,-3.43544v-5.83057h-1.30644c-0.58064,0 -1.03225,-0.15322 -1.35482,-0.45967c-0.31451,-0.30645 -0.47177,-0.72983 -0.47177,-1.27015c0,-0.58064 0.15726,-1.02015 0.47177,-1.31853c0.32258,-0.29838 0.77418,-0.44758 1.35482,-0.44758h1.30644v-2.35884c0,-0.78225 0.20564,-1.37498 0.61693,-1.7782c0.41129,-0.40322 0.98789,-0.60483 1.72982,-0.60483c0.76612,0 1.34273,0.20161 1.72982,0.60483c0.39516,0.40322 0.59273,0.99596 0.59273,1.7782v2.35884h2.93948c0.58064,0 1.02418,0.14919 1.33063,0.44758c0.31451,0.29838 0.47177,0.73789 0.47177,1.31853c0,0.54031 -0.15726,0.9637 -0.47177,1.27015c-0.30645,0.30645 -0.74999,0.45967 -1.33063,0.45967h-2.93948v5.63703c0,0.87096 0.20161,1.52417 0.60483,1.95965c0.40322,0.42742 1.04837,0.64112 1.93546,0.64112c0.30645,0 0.59273,-0.02823 0.85886,-0.08468c0.27419,-0.06452 0.52419,-0.10887 0.74999,-0.13306c0.29032,-0.01613 0.52822,0.07258 0.7137,0.26613c0.18548,0.19355 0.27822,0.62096 0.27822,1.28224c0,0.5 -0.08468,0.93547 -0.25403,1.30644c-0.16129,0.37096 -0.44758,0.63709 -0.85886,0.79838c-0.26613,0.10484 -0.63306,0.19355 -1.10079,0.26613c-0.46773,0.07258 -0.86692,0.10887 -1.19757,0.10887zM244.02382,190.88696c-0.78225,0 -1.38708,-0.21774 -1.81449,-0.65322c-0.41935,-0.43548 -0.62902,-1.03225 -0.62902,-1.7903v-17.00786c0,-0.80644 0.20564,-1.41531 0.61693,-1.82659c0.41129,-0.41129 1.00805,-0.61693 1.7903,-0.61693c0.76612,0 1.35482,0.20564 1.76611,0.61693c0.41935,0.41129 0.62902,1.02015 0.62902,1.82659v15.399h8.29828c0.66128,0 1.16934,0.17742 1.52417,0.53225c0.3629,0.34677 0.54435,0.8387 0.54435,1.47579c0,0.66128 -0.18145,1.16934 -0.54435,1.52417c-0.35484,0.34677 -0.86289,0.52015 -1.52417,0.52015zM266.65755,191.22567c-1.7903,0 -3.33061,-0.32258 -4.62091,-0.96773c-1.29031,-0.65322 -2.28223,-1.57256 -2.97577,-2.75803c-0.69354,-1.19353 -1.04031,-2.59271 -1.04031,-4.19753c0,-1.57256 0.33064,-2.95158 0.99192,-4.13705c0.66128,-1.18547 1.58466,-2.11288 2.77013,-2.78222c1.18547,-0.67741 2.53223,-1.01612 4.04027,-1.01612c1.09676,0 2.08868,0.18145 2.97577,0.54435c0.88709,0.3629 1.64917,0.87902 2.28626,1.54837c0.64515,0.66935 1.13305,1.48788 1.46369,2.45562c0.33064,0.95967 0.49596,2.02417 0.49596,3.19351c0,0.39516 -0.125,0.69354 -0.375,0.89515c-0.25,0.19355 -0.61289,0.29032 -1.0887,0.29032h-9.72569v-2.41933h7.81442l-0.49596,0.43548c0,-0.84676 -0.125,-1.5524 -0.375,-2.11691c-0.25,-0.57257 -0.60886,-1.00402 -1.0766,-1.29434c-0.45967,-0.29032 -1.02821,-0.43548 -1.70562,-0.43548c-0.76612,0 -1.41934,0.17742 -1.95965,0.53225c-0.53225,0.34677 -0.94354,0.8508 -1.23386,1.51208c-0.29032,0.66128 -0.43548,1.45966 -0.43548,2.39513v0.24193c0,1.57256 0.36693,2.7298 1.10079,3.47173c0.73386,0.74193 1.82256,1.11289 3.26609,1.11289c0.49193,0 1.05644,-0.06048 1.69353,-0.18145c0.64515,-0.12903 1.24595,-0.32661 1.8024,-0.59273c0.4758,-0.2258 0.89918,-0.30242 1.27015,-0.22984c0.37096,0.07258 0.65725,0.24193 0.85886,0.50806c0.20968,0.26613 0.33064,0.5766 0.3629,0.93144c0.03226,0.34677 -0.04435,0.69354 -0.22984,1.04031c-0.18548,0.33871 -0.49596,0.62096 -0.93144,0.84676c-0.7016,0.39516 -1.49192,0.68951 -2.37094,0.88305c-0.87096,0.19355 -1.72175,0.29032 -2.55239,0.29032zM281.92831,191.16519c-0.59677,0 -1.12499,-0.15726 -1.58466,-0.47177c-0.45161,-0.32258 -0.81047,-0.80644 -1.0766,-1.4516l-4.68139,-10.77809c-0.2258,-0.53225 -0.31048,-1.02821 -0.25403,-1.48788c0.06452,-0.46773 0.28629,-0.8387 0.66531,-1.11289c0.38709,-0.28226 0.92338,-0.42338 1.60885,-0.42338c0.55644,0 1.00805,0.12903 1.35482,0.38709c0.35484,0.25806 0.66531,0.74596 0.93144,1.46369l3.65318,9.29021h-0.99192l3.81044,-9.3144c0.29032,-0.7016 0.60886,-1.18144 0.95563,-1.4395c0.35484,-0.25806 0.84273,-0.38709 1.46369,-0.38709c0.53225,0 0.95967,0.14113 1.28224,0.42338c0.32258,0.27419 0.52015,0.63709 0.59273,1.0887c0.07258,0.45161 -0.01613,0.94757 -0.26613,1.48788l-4.76607,10.80229c-0.27419,0.66128 -0.63306,1.14918 -1.0766,1.46369c-0.44354,0.30645 -0.98386,0.45967 -1.62095,0.45967zM299.54486,191.22567c-1.7903,0 -3.33061,-0.32258 -4.62091,-0.96773c-1.29031,-0.65322 -2.28223,-1.57256 -2.97577,-2.75803c-0.69354,-1.19353 -1.04031,-2.59271 -1.04031,-4.19753c0,-1.57256 0.33064,-2.95158 0.99192,-4.13705c0.66128,-1.18547 1.58466,-2.11288 2.77013,-2.78222c1.18547,-0.67741 2.53223,-1.01612 4.04027,-1.01612c1.09676,0 2.08868,0.18145 2.97577,0.54435c0.88709,0.3629 1.64917,0.87902 2.28626,1.54837c0.64515,0.66935 1.13305,1.48788 1.46369,2.45562c0.33064,0.95967 0.49596,2.02417 0.49596,3.19351c0,0.39516 -0.125,0.69354 -0.375,0.89515c-0.25,0.19355 -0.61289,0.29032 -1.0887,0.29032h-9.72569v-2.41933h7.81442l-0.49596,0.43548c0,-0.84676 -0.125,-1.5524 -0.375,-2.11691c-0.25,-0.57257 -0.60886,-1.00402 -1.0766,-1.29434c-0.45967,-0.29032 -1.02821,-0.43548 -1.70562,-0.43548c-0.76612,0 -1.41934,0.17742 -1.95965,0.53225c-0.53225,0.34677 -0.94354,0.8508 -1.23386,1.51208c-0.29032,0.66128 -0.43548,1.45966 -0.43548,2.39513v0.24193c0,1.57256 0.36693,2.7298 1.10079,3.47173c0.73386,0.74193 1.82256,1.11289 3.26609,1.11289c0.49193,0 1.05644,-0.06048 1.69353,-0.18145c0.64515,-0.12903 1.24595,-0.32661 1.8024,-0.59273c0.4758,-0.2258 0.89918,-0.30242 1.27015,-0.22984c0.37096,0.07258 0.65725,0.24193 0.85886,0.50806c0.20968,0.26613 0.33064,0.5766 0.3629,0.93144c0.03226,0.34677 -0.04435,0.69354 -0.22984,1.04031c-0.18548,0.33871 -0.49596,0.62096 -0.93144,0.84676c-0.7016,0.39516 -1.49192,0.68951 -2.37094,0.88305c-0.87096,0.19355 -1.72175,0.29032 -2.55239,0.29032zM314.1387,191.22567c-1.83869,0 -3.21367,-0.50806 -4.12495,-1.52417c-0.91128,-1.02418 -1.36692,-2.54835 -1.36692,-4.57252v-13.9716c0,-0.78225 0.20161,-1.37498 0.60483,-1.7782c0.40322,-0.40322 0.98789,-0.60483 1.75401,-0.60483c0.74193,0 1.3145,0.20161 1.71772,0.60483c0.40322,0.40322 0.60483,0.99596 0.60483,1.7782v13.77806c0,0.84676 0.18145,1.47175 0.54435,1.87498c0.3629,0.40322 0.84273,0.60483 1.4395,0.60483c0.16129,0 0.31451,-0.00806 0.45967,-0.02419c0.14516,-0.02419 0.30242,-0.03629 0.47177,-0.03629c0.33064,-0.04032 0.56048,0.06048 0.68951,0.30242c0.1371,0.23387 0.20564,0.7016 0.20564,1.40321c0,0.62096 -0.125,1.09273 -0.375,1.41531c-0.25,0.31451 -0.63306,0.52419 -1.14918,0.62902c-0.20161,0.01613 -0.43951,0.04032 -0.7137,0.07258c-0.26613,0.03226 -0.52015,0.04839 -0.76209,0.04839z" fill="#57a642" stroke-width="1" stroke-linecap="square"/></g></g></svg>