<svg version="1.1" xmlns="http://www.w3.org/2000/svg" xmlns:xlink="http://www.w3.org/1999/xlink" width="59.66524" height="61.40333" viewBox="0,0,59.66524,61.40333"><g transform="translate(-214.9267,-144.25655)"><g data-paper-data="{&quot;isPaintingLayer&quot;:true}" fill-rule="evenodd" stroke-miterlimit="10" stroke-dasharray="" stroke-dashoffset="0" style="mix-blend-mode: normal"><g><g><path d="M220.41382,192.45832c5.36659,-7.25713 12.31877,-10.91617 12.31877,-10.91617l12.13578,5.85447c0,0 -5.73249,9.08666 -8.35477,10.18437c0,0 -6.52533,-0.67085 -9.26958,-2.19542" fill="#f9a41e" stroke="none" stroke-width="1" stroke-linecap="butt" stroke-linejoin="miter"/><path d="M220.41382,192.45832c6.15936,-7.25713 12.31877,-10.91617 12.31877,-10.91617l12.13578,5.85447c0,0 -5.73249,9.08666 -8.35477,10.18437c0,0 -6.52533,-0.67085 -9.26958,-2.19542" fill="none" stroke="#231f20" stroke-width="0.9025" stroke-linecap="round" stroke-linejoin="round"/><path d="M241.45326,188.6163c-3.41511,7.07414 -10.91611,5.61053 -12.19681,2.80526c-1.28062,-2.80526 3.2322,-6.7692 5.67155,-7.8669c2.43936,-1.03677 9.02564,0 6.52525,5.06163z" fill="#ffffff" stroke="none" stroke-width="1" stroke-linecap="butt" stroke-linejoin="miter"/></g><g><path d="M227.91481,194.59274c-1.89048,2.07345 -3.35408,5.0617 -4.75675,7.80595c-2.74425,5.24462 -9.02557,2.37841 -7.56202,-2.3174c1.15873,-3.47606 4.81778,-7.62297 4.81778,-7.62297" fill="#f9a41e" stroke="none" stroke-width="1" stroke-linecap="butt" stroke-linejoin="miter"/><path d="M227.91481,194.59274c-1.89048,2.07345 -3.35408,5.0617 -4.75675,7.80595c-2.74425,5.24462 -9.02557,2.37841 -7.56202,-2.3174c1.15873,-3.47606 4.81778,-7.62297 4.81778,-7.62297" fill="none" stroke="#231f20" stroke-width="0.9025" stroke-linecap="round" stroke-linejoin="round"/></g><g><path d="M239.98965,199.83735c-1.46361,3.65904 -4.69574,5.54959 -7.25707,4.51282c-2.19542,-0.85378 -2.62235,-4.02494 -1.09771,-6.7692c1.70756,-3.0492 4.69575,-4.81777 6.95219,-4.14691c2.13441,0.73181 2.62228,3.29312 1.4026,6.40328z" fill="#f9a41e" stroke="none" stroke-width="1" stroke-linecap="butt" stroke-linejoin="miter"/><path d="M239.98965,199.83735c-1.46361,3.65904 -4.69574,5.54959 -7.25707,4.51282c-2.19542,-0.85378 -2.62235,-4.02494 -1.09771,-6.7692c1.70756,-3.0492 4.69575,-4.81777 6.95219,-4.14691c2.13441,0.73181 2.62228,3.29312 1.4026,6.40328z" fill="none" stroke="#231f20" stroke-width="0.9025" stroke-linecap="round" stroke-linejoin="round"/></g><g><path d="M258.34587,163.67386c3.47606,-2.56133 7.31807,-9.26957 8.35477,-11.89192c1.6466,-4.32983 8.17186,-0.85377 5.54958,4.87874c-2.56133,5.67155 -12.50175,10.91616 -12.50175,10.91616c-2.43935,1.46361 -4.75675,-1.34164 -1.4026,-3.90297z" fill="#f9a41e" stroke="none" stroke-width="1" stroke-linecap="butt" stroke-linejoin="miter"/><path d="M258.34587,163.67386c3.47606,-2.56133 7.31807,-9.26957 8.35477,-11.89192c1.6466,-4.32983 8.17186,-0.85377 5.54958,4.87874c-2.56133,5.67155 -12.50175,10.91616 -12.50175,10.91616c-2.43935,1.46361 -4.75675,-1.34164 -1.4026,-3.90297z" fill="none" stroke="#231f20" stroke-width="0.9025" stroke-linecap="round" stroke-linejoin="round"/></g><g><path d="M229.25646,182.63987c0,0 -4.93966,-0.60985 -7.1351,3.84203c-1.82952,3.96393 -8.59871,2.3174 -5.42762,-3.35416c2.80526,-5.06163 9.94044,-3.84195 9.94044,-3.84195z" fill="#f9a41e" stroke="none" stroke-width="1" stroke-linecap="butt" stroke-linejoin="miter"/><path d="M229.25646,182.63987c0,0 -4.93966,-0.60985 -7.1351,3.84203c-1.82952,3.96393 -8.29383,2.50029 -5.42762,-3.35416c2.43936,-5.06163 9.94044,-3.84195 9.94044,-3.84195z" fill="none" stroke="#231f20" stroke-width="0.9025" stroke-linecap="round" stroke-linejoin="round"/></g><g><path d="M248.58843,150.86722l6.09841,-6.15943l1.95149,8.53776c0,0 3.65904,1.82952 5.97643,6.0984c2.31739,4.20793 1.95149,7.684 1.95149,7.684c0,0 4.0859,0.54888 4.69575,5.85446c1.09771,10.12335 -10.85516,16.8316 -26.28409,15.429c-11.64798,-0.97574 -20.55164,-8.47681 -20.06377,-17.68536c0.48786,-8.29383 4.45186,-11.22106 4.45186,-11.22106l-1.34166,-14.02632l9.87942,6.89116c0,0 2.98818,-1.52455 6.40329,-1.70754c3.41511,-0.06096 6.28138,0.30495 6.28138,0.30495z" fill="#f9a41e" stroke="none" stroke-width="1" stroke-linecap="butt" stroke-linejoin="miter"/><path d="M264.50523,167.02795c2.43937,0.48786 3.84203,1.64659 4.69581,5.85446c1.21968,5.67155 -4.26889,17.44144 -26.28415,15.429c-7.25707,-0.60985 -15.12403,-3.96399 -12.50169,-13.59947c2.3174,-8.90367 15.85585,-3.11016 21.22243,-4.14692c5.42754,-0.97574 7.44006,-4.51281 12.8676,-3.53706z" fill="#ffffff" stroke="none" stroke-width="1" stroke-linecap="butt" stroke-linejoin="miter"/><path d="M237.48934,153.42855l-2.80526,-2.01251" fill="none" stroke="#231f20" stroke-width="0.63175" stroke-linecap="round" stroke-linejoin="round"/><path d="M248.58843,150.86722l6.09841,-6.15943l1.95149,8.53776c0,0 3.65904,1.82952 5.97643,6.0984c2.31739,4.20793 1.95149,7.684 1.95149,7.684c0,0 4.0859,0.54888 4.69575,5.85446c1.09771,10.12335 -10.85516,16.8316 -26.28409,15.429c-11.64798,-0.97574 -20.55164,-8.47681 -20.06377,-17.68536c0.48786,-8.29383 4.45186,-11.22106 4.45186,-11.22106l-1.34166,-14.02632l9.87942,6.89116c0,0 2.98818,-1.52455 6.40329,-1.70754c3.41511,-0.06096 6.28138,0.30495 6.28138,0.30495z" fill="none" stroke="#231f20" stroke-width="0.9025" stroke-linecap="round" stroke-linejoin="round"/></g><g fill="none" stroke="#231f20" stroke-width="0.9025" stroke-linecap="round" stroke-linejoin="round"><path d="M224.68269,173.85816c0,0 -2.62235,0.24393 -4.02496,0.30495c-1.40267,0 -4.45186,-0.30495 -4.45186,-0.30495"/><path d="M215.71801,166.60109c0,0 1.6466,0.36591 4.69581,1.7685c2.74425,1.2807 4.4518,2.62233 4.4518,2.62233"/></g><g><path d="M261.02917,159.46594c2.07346,3.35416 2.07346,7.07413 0,8.41579c-2.07346,1.34166 -5.42761,-0.36591 -7.56202,-3.72c-2.07345,-3.35416 -2.07345,-7.07414 0,-8.4158c2.07345,-1.2807 5.48856,0.36592 7.56202,3.72001z" fill="#ffffff" stroke="#231f20" stroke-width="0.9025" stroke-linecap="round" stroke-linejoin="round"/><path d="M260.02133,161.69028c0.24394,0.79275 -0.24394,1.58559 -0.91479,1.70755c-0.67079,0.18291 -1.46361,-0.30497 -1.64654,-1.09772c-0.24394,-0.79283 0.24394,-1.58558 0.91474,-1.70754c0.67085,-0.12196 1.40266,0.3659 1.64659,1.09771" fill="#231f20" stroke="none" stroke-width="1" stroke-linecap="butt" stroke-linejoin="miter"/></g><g><path d="M243.28278,161.47844c2.07345,3.35409 1.76856,7.31808 -0.67079,8.84265c-2.43936,1.52464 -6.15943,0.06103 -8.23287,-3.29313c-2.07345,-3.35409 -1.76851,-7.31809 0.67085,-8.84266c2.43936,-1.52464 6.15936,-0.06102 8.23281,3.29315z" fill="#ffffff" stroke="#231f20" stroke-width="0.9025" stroke-linecap="round" stroke-linejoin="round"/><path d="M242.09203,163.88571c0,0.79275 -0.60985,1.40259 -1.34166,1.40259c-0.67085,0 -1.34164,-0.67079 -1.34164,-1.46362c0,-0.79275 0.60984,-1.4026 1.34164,-1.4026c0.79275,0.06096 1.34166,0.67079 1.34166,1.46362" fill="#231f20" stroke="none" stroke-width="1" stroke-linecap="butt" stroke-linejoin="miter"/></g><g stroke="#231f20" stroke-linecap="round" stroke-linejoin="round"><path d="M251.08874,168.85747c1.21968,-0.18291 3.41511,-0.79276 3.65904,0.67086c0,0.60985 -1.21968,3.11014 -2.74425,3.17117c-1.46361,0.06096 -4.14692,-1.6466 -3.96399,-2.80526c0.18299,-1.09771 1.9515,-0.85378 3.04921,-1.03677z" fill="#231f20" stroke-width="0.63175"/><path d="M256.15045,174.95588c0.06096,1.46361 -9.5135,2.56133 -9.39154,0.67085" fill="none" stroke-width="0.9025"/></g><g fill="#231f20" stroke="#231f20" stroke-width="0.63175" stroke-linecap="round" stroke-linejoin="round" opacity="0.1"><path d="M229.74434,183.67663c-0.48786,0.36591 -1.03669,0.79275 -1.64653,1.21967"/><path d="M244.13656,188.49433c-0.24393,0.36591 -0.60985,0.91479 -1.03669,1.46361"/></g><g fill="none" stroke="#231f20" stroke-width="0.9025" stroke-linecap="round" stroke-linejoin="round"><path d="M274.1407,168.0037c0,0 -1.40259,1.15873 -3.4151,1.76857c-1.70756,0.54882 -5.06164,1.03669 -5.06164,1.03669"/><path d="M273.34794,176.48051c0,0 -1.40267,0.06096 -3.41511,-0.18299c-2.01251,-0.24393 -4.02495,-1.09771 -4.02495,-1.09771"/></g></g></g></g></svg>