<svg version="1.1" xmlns="http://www.w3.org/2000/svg" xmlns:xlink="http://www.w3.org/1999/xlink" width="200.0859" height="60.38292" viewBox="0,0,200.0859,60.38292"><g transform="translate(-139.95705,-151.28796)"><g data-paper-data="{&quot;isPaintingLayer&quot;:true}" fill-rule="nonzero" stroke="none" stroke-linejoin="miter" stroke-miterlimit="10" stroke-dasharray="" stroke-dashoffset="0" style="mix-blend-mode: normal"><path d="M340.04295,182.95816c0,15.8576 -12.85378,28.71272 -28.71138,28.71272h-142.66182c-15.85759,0 -28.7127,-12.85511 -28.7127,-28.71272c0,-15.85627 12.85511,-28.71137 28.7127,-28.71137h142.66182c15.8576,0 28.71138,12.8551 28.71138,28.71137z" fill="#a69842" stroke-width="0" stroke-linecap="butt"/><path d="M340.04295,179.99933c0,15.8576 -12.85378,28.71272 -28.71138,28.71272h-142.66182c-15.85759,0 -28.7127,-12.85511 -28.7127,-28.71272c0,-15.85627 12.85511,-28.71137 28.7127,-28.71137h142.66182c15.8576,0 28.71138,12.8551 28.71138,28.71137z" fill="#ffea66" stroke-width="0" stroke-linecap="butt"/><path d="M182.34937,192.44242c-0.89055,0 -1.57281,-0.24418 -2.04681,-0.73255c-0.45965,-0.48837 -0.68945,-1.17782 -0.68945,-2.06836v-19.3909c0,-0.90491 0.23701,-1.58718 0.71101,-2.04681c0.48835,-0.474 1.17064,-0.71099 2.04682,-0.71099h8.4889c2.74346,0 4.86209,0.66792 6.35591,2.00373c1.49383,1.32145 2.24073,3.16719 2.24073,5.53719c0,1.5369 -0.33754,2.86555 -1.01263,3.98591c-0.6751,1.12036 -1.65181,1.98218 -2.93018,2.58545c-1.26399,0.60327 -2.81526,0.90491 -4.65382,0.90491l0.2801,-0.58172h1.422c0.99109,0 1.85291,0.23701 2.58545,0.71101c0.73255,0.474 1.36455,1.19936 1.896,2.1761l2.15454,4.029c0.33037,0.57455 0.48118,1.14192 0.45246,1.7021c-0.01435,0.56018 -0.22264,1.01981 -0.62481,1.37891c-0.38782,0.34473 -0.96954,0.51709 -1.74517,0.51709c-0.76128,0 -1.38609,-0.16518 -1.87445,-0.49554c-0.474,-0.33036 -0.89772,-0.8331 -1.27117,-1.50818l-3.33954,-6.18353c-0.35908,-0.64636 -0.78999,-1.08446 -1.29273,-1.31427c-0.48835,-0.24418 -1.09163,-0.36627 -1.80982,-0.36627h-2.67163v7.0669c0,0.89054 -0.22981,1.57999 -0.68945,2.06836c-0.44526,0.48837 -1.10601,0.73255 -1.98218,0.73255zM185.021,178.67489h4.86927c1.43635,0 2.52082,-0.28727 3.25337,-0.86182c0.73255,-0.5889 1.09882,-1.46509 1.09882,-2.62854c0,-1.14909 -0.36627,-2.0109 -1.09881,-2.58545c-0.73255,-0.5889 -1.817,-0.88336 -3.25335,-0.88336h-4.86927zM211.87782,192.50706c-2.02527,0 -3.76326,-0.36627 -5.214,-1.09881c-1.45074,-0.73255 -2.5711,-1.76673 -3.36109,-3.10254c-0.77564,-1.35019 -1.16345,-2.93018 -1.16345,-4.74c0,-1.76673 0.37346,-3.318 1.12036,-4.65382c0.7469,-1.35019 1.78828,-2.39872 3.1241,-3.14563c1.33582,-0.76127 2.85835,-1.1419 4.56763,-1.1419c1.23528,0 2.34846,0.20827 3.33955,0.62482c1.00544,0.40219 1.86726,0.98391 2.58545,1.74519c0.71819,0.74691 1.26399,1.66618 1.63745,2.75782c0.37346,1.07727 0.56018,2.27663 0.56018,3.5981c0,0.44528 -0.14363,0.78282 -0.43091,1.01264c-0.2729,0.21545 -0.6751,0.32319 -1.20654,0.32319h-10.96662v-2.73626h8.81209l-0.56018,0.49555c0,-0.948 -0.14363,-1.74517 -0.43091,-2.39154c-0.2729,-0.64636 -0.6751,-1.12755 -1.20654,-1.44354c-0.51709,-0.33036 -1.16345,-0.49554 -1.93909,-0.49554c-0.86182,0 -1.59436,0.20109 -2.19764,0.60327c-0.60327,0.38782 -1.07009,0.95518 -1.40045,1.7021c-0.31599,0.74691 -0.474,1.64464 -0.474,2.69319v0.2801c0,1.76673 0.40937,3.07382 1.2281,3.92127c0.83308,0.8331 2.06118,1.24964 3.68428,1.24964c0.56018,0 1.19936,-0.07181 1.91755,-0.21545c0.73255,-0.14364 1.40764,-0.36627 2.02527,-0.6679c0.54583,-0.25855 1.027,-0.34473 1.44355,-0.25855c0.41655,0.08618 0.73973,0.2801 0.96955,0.58173c0.22981,0.30164 0.35908,0.65355 0.38782,1.05573c0.04309,0.38782 -0.04309,0.77564 -0.25855,1.16345c-0.2011,0.37345 -0.54583,0.68945 -1.03418,0.948c-0.78999,0.44528 -1.68054,0.77564 -2.67163,0.99109c-0.99109,0.22982 -1.95344,0.34473 -2.88709,0.34473zM228.72484,192.50706c-1.03418,0 -2.0899,-0.09337 -3.16717,-0.28008c-1.07727,-0.18673 -2.06118,-0.50272 -2.95172,-0.948c-0.45965,-0.22982 -0.78999,-0.52427 -0.99109,-0.88336c-0.2011,-0.3591 -0.29445,-0.72536 -0.28008,-1.09881c0.02874,-0.37345 0.15082,-0.71099 0.36628,-1.01263c0.22981,-0.30164 0.52427,-0.50272 0.88337,-0.60327c0.35908,-0.1149 0.76128,-0.079 1.20654,0.10773c0.96235,0.40219 1.83855,0.68227 2.62854,0.84028c0.78999,0.158 1.56563,0.23701 2.32691,0.23701c1.00544,0 1.73082,-0.158 2.1761,-0.474c0.45965,-0.316 0.68945,-0.72536 0.68945,-1.22808c0,-0.474 -0.15081,-0.82591 -0.45245,-1.05572c-0.30164,-0.22982 -0.73973,-0.395 -1.31427,-0.49554l-3.68426,-0.64636c-1.43635,-0.25855 -2.54955,-0.79 -3.33954,-1.59436c-0.77564,-0.80436 -1.16345,-1.83854 -1.16345,-3.10254c0,-1.16345 0.32319,-2.16891 0.96955,-3.01636c0.66072,-0.84745 1.56563,-1.49381 2.71473,-1.93909c1.16345,-0.45963 2.47773,-0.68945 3.94282,-0.68945c1.04854,0 2.01092,0.09337 2.88709,0.2801c0.89055,0.18673 1.74519,0.48837 2.56391,0.90491c0.41655,0.21545 0.71101,0.49555 0.88337,0.84028c0.17236,0.34473 0.22981,0.70382 0.17236,1.07727c-0.05745,0.37345 -0.2011,0.71101 -0.43091,1.01264c-0.22981,0.30164 -0.53145,0.50272 -0.90491,0.60327c-0.35908,0.08618 -0.76845,0.03591 -1.22808,-0.15081c-0.7469,-0.34473 -1.43635,-0.5889 -2.06836,-0.73255c-0.63201,-0.158 -1.23528,-0.23699 -1.80982,-0.23699c-1.04854,0 -1.80982,0.17236 -2.28382,0.51709c-0.45965,0.33036 -0.68945,0.7541 -0.68945,1.27119c0,0.38782 0.12927,0.71818 0.38782,0.99109c0.2729,0.25855 0.68945,0.43809 1.24964,0.53864l3.68428,0.66792c1.50818,0.24418 2.65728,0.74691 3.44727,1.50818c0.78999,0.76127 1.18501,1.79545 1.18501,3.10254c0,1.76673 -0.69664,3.16 -2.0899,4.17982c-1.37891,1.00546 -3.21746,1.50818 -5.51563,1.50818zM247.58632,192.50706c-1.60872,0 -2.95892,-0.26573 -4.05054,-0.79717c-1.07727,-0.54581 -1.88164,-1.32863 -2.41309,-2.34845c-0.51709,-1.01981 -0.77564,-2.31254 -0.77564,-3.87818v-6.57135h-1.46509c-0.64636,0 -1.15627,-0.17236 -1.52972,-0.51709c-0.35908,-0.34473 -0.53863,-0.82591 -0.53863,-1.44354c0,-0.64636 0.17955,-1.13473 0.53864,-1.46509c0.37346,-0.34473 0.88337,-0.51709 1.52973,-0.51709h1.46509v-2.65008c0,-0.89054 0.22981,-1.55846 0.68945,-2.00372c0.474,-0.45963 1.12755,-0.68945 1.96064,-0.68945c0.86182,0 1.51537,0.22982 1.96064,0.68945c0.44526,0.44528 0.66792,1.11318 0.66792,2.00373v2.6501h3.318c0.64636,0 1.14192,0.17236 1.48664,0.51709c0.35908,0.33036 0.53864,0.81873 0.53864,1.46509c0,0.61764 -0.17955,1.09882 -0.53863,1.44355c-0.34473,0.34473 -0.84027,0.51709 -1.48663,0.51709h-3.318v6.35591c0,0.97672 0.22264,1.70927 0.66792,2.19764c0.45965,0.48837 1.19219,0.73255 2.19764,0.73255c0.34473,0 0.66792,-0.02872 0.96955,-0.08618c0.30164,-0.07181 0.58173,-0.12209 0.84028,-0.15081c0.33037,-0.02872 0.59609,0.07181 0.79719,0.30164c0.21545,0.21545 0.32319,0.69664 0.32319,1.44355c0,0.56018 -0.09337,1.04855 -0.28008,1.46509c-0.18672,0.41654 -0.50991,0.71818 -0.96954,0.90491c-0.30164,0.1149 -0.71819,0.21545 -1.24964,0.30164c-0.51709,0.08618 -0.96235,0.12927 -1.33582,0.12927zM259.06755,192.50706c-1.24964,0 -2.37718,-0.24418 -3.38263,-0.73255c-1.00544,-0.48837 -1.78826,-1.14909 -2.34845,-1.98218c-0.56018,-0.84745 -0.84027,-1.79545 -0.84027,-2.844c0,-1.24964 0.32319,-2.24073 0.96955,-2.97327c0.66072,-0.74691 1.72364,-1.27117 3.18873,-1.57281c1.46509,-0.316 3.41136,-0.474 5.83882,-0.474h1.85291v2.71473h-1.80982c-1.19219,0 -2.15454,0.06464 -2.88709,0.19392c-0.73255,0.12927 -1.25682,0.34473 -1.57281,0.64636c-0.31599,0.30164 -0.474,0.71818 -0.474,1.24964c0,0.66073 0.22264,1.19936 0.66792,1.61592c0.45965,0.41654 1.12036,0.62482 1.98218,0.62482c0.6751,0 1.27119,-0.158 1.78828,-0.474c0.53145,-0.316 0.948,-0.74691 1.24964,-1.29273c0.30164,-0.54581 0.45246,-1.16345 0.45246,-1.85291v-4.02899c0,-1.01981 -0.23699,-1.74517 -0.71099,-2.17608c-0.45965,-0.43091 -1.24245,-0.64636 -2.34845,-0.64636c-0.63201,0 -1.31427,0.079 -2.04681,0.23701c-0.73255,0.14364 -1.54409,0.38782 -2.43463,0.73255c-0.50274,0.22982 -0.95518,0.28727 -1.35736,0.17236c-0.40217,-0.12927 -0.71099,-0.3591 -0.92645,-0.68945c-0.2011,-0.34473 -0.30164,-0.71818 -0.30164,-1.12036c0,-0.41654 0.11492,-0.81873 0.34473,-1.20654c0.24419,-0.38782 0.63201,-0.67509 1.16345,-0.86182c1.09163,-0.43091 2.11864,-0.72536 3.08101,-0.88336c0.97674,-0.17236 1.86726,-0.25855 2.67163,-0.25855c1.79546,0 3.26772,0.26573 4.41682,0.79719c1.16345,0.51709 2.03246,1.32145 2.60701,2.41309c0.58892,1.07727 0.88337,2.46336 0.88337,4.15828v7.75636c0,0.86182 -0.21545,1.52973 -0.64636,2.00373c-0.41655,0.45963 -1.01983,0.68945 -1.80982,0.68945c-0.78999,0 -1.40045,-0.22982 -1.83136,-0.68945c-0.43091,-0.474 -0.64636,-1.1419 -0.64636,-2.00372v-1.29273l0.25855,0.21545c-0.14363,0.79 -0.44526,1.47227 -0.90491,2.04682c-0.44526,0.56018 -1.01983,0.99827 -1.72364,1.31428c-0.70381,0.316 -1.50818,0.474 -2.41309,0.474zM275.43991,192.44242c-0.87619,0 -1.55127,-0.22982 -2.02527,-0.68945c-0.45963,-0.474 -0.68945,-1.1419 -0.68945,-2.00372v-12.41017c0,-0.86182 0.22264,-1.51537 0.66792,-1.96063c0.45963,-0.45963 1.09882,-0.68945 1.91755,-0.68945c0.8331,0 1.47227,0.22982 1.91755,0.68945c0.44528,0.44528 0.66792,1.09882 0.66792,1.96064v1.83137h-0.34473c0.27291,-1.40763 0.88337,-2.49209 1.83137,-3.25335c0.96237,-0.77564 2.19764,-1.20654 3.70582,-1.29273c0.5889,-0.04309 1.04137,0.10773 1.35737,0.45246c0.316,0.33036 0.48118,0.87619 0.49555,1.63745c0.05746,0.71818 -0.08618,1.29273 -0.43091,1.72364c-0.33036,0.41654 -0.89772,0.66792 -1.70208,0.7541l-0.79717,0.06464c-1.32145,0.12927 -2.30536,0.51709 -2.95172,1.16345c-0.632,0.64636 -0.948,1.58718 -0.948,2.82246v6.50672c0,0.86182 -0.22982,1.52973 -0.68945,2.00373c-0.45963,0.45963 -1.12036,0.68945 -1.98218,0.68945zM296.5517,192.50706c-1.60873,0 -2.9589,-0.26573 -4.05054,-0.79717c-1.0773,-0.54581 -1.88169,-1.32863 -2.41313,-2.34845c-0.51709,-1.01981 -0.77564,-2.31254 -0.77564,-3.87818v-6.57135h-1.46509c-0.64636,0 -1.15627,-0.17236 -1.52972,-0.51709c-0.3591,-0.34473 -0.53863,-0.82591 -0.53863,-1.44354c0,-0.64636 0.17955,-1.13473 0.53864,-1.46509c0.37345,-0.34473 0.88337,-0.51709 1.52973,-0.51709h1.46509v-2.65008c0,-0.89054 0.22982,-1.55846 0.68945,-2.00372c0.474,-0.45963 1.12755,-0.68945 1.96064,-0.68945c0.86185,0 1.51541,0.22982 1.96068,0.68945c0.44528,0.44528 0.66792,1.11318 0.66792,2.00373v2.6501h3.318c0.64636,0 1.14192,0.17236 1.48664,0.51709c0.3591,0.33036 0.53864,0.81873 0.53864,1.46509c0,0.61764 -0.17955,1.09882 -0.53863,1.44355c-0.34473,0.34473 -0.84027,0.51709 -1.48663,0.51709h-3.318v6.35591c0,0.97672 0.22264,1.70927 0.66792,2.19764c0.45963,0.48837 1.19218,0.73255 2.19764,0.73255c0.34473,0 0.66792,-0.02872 0.96955,-0.08618c0.30164,-0.07181 0.58173,-0.12209 0.84028,-0.15081c0.33036,-0.02872 0.59609,0.07181 0.79719,0.30164c0.21545,0.21545 0.32319,0.69664 0.32319,1.44355c0,0.56018 -0.09337,1.04855 -0.28008,1.46509c-0.18673,0.41654 -0.50991,0.71818 -0.96954,0.90491c-0.30164,0.1149 -0.71818,0.21545 -1.24964,0.30164c-0.51709,0.08618 -0.96237,0.12927 -1.33582,0.12927z" fill="#a69842" stroke-width="1" stroke-linecap="square"/></g></g></svg>