<svg version="1.1" xmlns="http://www.w3.org/2000/svg" xmlns:xlink="http://www.w3.org/1999/xlink" width="404.06952" height="32.90632" viewBox="0,0,404.06952,32.90632"><g transform="translate(-45.94044,-35.35317)"><g data-paper-data="{&quot;isPaintingLayer&quot;:true}" fill-rule="nonzero" stroke-linecap="butt" stroke-linejoin="miter" stroke-miterlimit="10" stroke-dasharray="" stroke-dashoffset="0" style="mix-blend-mode: normal"><g><path d="M56.00131,57.379c-0.9835,-6.9155 5.5017,-17.0583 16.4436,-17.0583c15.8289,0 29.076,18.841 63.5307,15.0912l6.9155,9.0978l-12.1406,2.5818l-18.0111,1.0143h-17.3349c0,0 -14.999,-1.168 -22.8366,-1.0143c-12.8168,0.2459 -15.4601,-4.1493 -16.5666,-9.7125z" fill="#ffffff" stroke="#e3deee" stroke-width="0.30736"/><path d="M193.82011,61.4976c-4.5488,3.9649 -16.044,6.5467 -26.5249,6.5467c-5.1021,0 -29.6906,0.0307 -54.4943,0.0307c7.8068,-2.7047 15.1219,-9.3744 18.257,-11.7103c3.9341,-2.9506 10.0813,-10.0813 15.0297,-11.8639c5.5324,-1.9671 7.8684,0.1844 12.0791,0.3995c3.7498,0.1844 9.5896,-5.1636 20.8696,-5.348c7.3151,-0.1229 12.6631,1.9056 16.2284,6.5467c3.9649,5.1636 3.0736,11.4644 -1.4446,15.3986z" fill="#e3deee" stroke="none" stroke-width="0.30736"/><path d="M75.79511,58.5777c7.6532,4.1801 12.2943,7.7761 19.6094,9.5281c-19.7016,0 -36.4525,0 -39.2188,-0.0308c-5.5324,-0.0614 -12.5709,-3.9649 -9.4973,-8.5138c4.1801,-6.1471 18.2263,-6.9462 29.1067,-0.9835z" fill="#e3deee" stroke="none" stroke-width="0.30736"/><path d="M242.0117,65.5861c3.7955,-2.1236 9.5338,-4.925 15.7692,-6.5968c6.9131,-1.8525 12.3804,-2.5303 15.5884,-2.6658c2.1237,-1.8074 23.3149,-21.1009 51.6,-20.7394c24.7607,0.2711 40.9365,10.4826 45.4097,13.4648c17.6217,-5.9643 28.0592,-6.868 41.2528,-4.654c18.3899,3.1177 16.0403,13.1937 16.4018,13.6907c0.4518,0.6326 7.4101,-1.9881 15.8595,2.44c5.151,2.711 7.6361,7.2746 4.5184,7.2746c-2.4399,0 -202.3332,-0.3163 -207.2131,0c-1.4459,0 -1.2199,-1.0845 0.8133,-2.2141z" fill="#ffffff" stroke="#e3deee" stroke-width="0.45184"/><path d="M273.3693,56.3235c2.1237,-1.8074 23.3149,-21.1009 51.6,-20.7394c24.7607,0.2711 40.9365,10.4826 45.4097,13.4648c-13.0129,4.1569 -24.0378,11.2056 -35.3789,11.7478c-14.4589,0.6777 -41.8403,-5.0154 -61.6308,-4.4732z" fill="#e3deee" stroke="none" stroke-width="0.45184"/></g></g></g></svg>