<svg version="1.1" xmlns="http://www.w3.org/2000/svg" xmlns:xlink="http://www.w3.org/1999/xlink" width="53.5" height="56.02442" viewBox="0,0,53.5,56.02442"><g transform="translate(-213.25,-153.11714)"><g data-paper-data="{&quot;isPaintingLayer&quot;:true}" fill-rule="nonzero" stroke="none" stroke-linecap="butt" stroke-linejoin="miter" stroke-miterlimit="10" stroke-dasharray="" stroke-dashoffset="0" style="mix-blend-mode: normal"><path d="M213.25,182.39157c0,-14.7736 11.9764,-26.75 26.75,-26.75c14.7736,0 26.75,11.9764 26.75,26.75c0,14.7736 -11.9764,26.75 -26.75,26.75c-14.7736,0 -26.75,-11.9764 -26.75,-26.75z" fill="#a68542" stroke-width="0"/><path d="M213.25,179.86715c0,-14.7736 11.9764,-26.75 26.75,-26.75c14.7736,0 26.75,11.9764 26.75,26.75c0,14.7736 -11.9764,26.75 -26.75,26.75c-14.7736,0 -26.75,-11.9764 -26.75,-26.75z" fill="#ffcc66" stroke-width="0"/><path d="M232.72555,196.38687c-2.37174,0 -4.29442,-1.92247 -4.29442,-4.29422v-24.4508c0,-2.37174 1.92267,-4.29442 4.29442,-4.29442v0c2.37155,0 4.29422,1.92268 4.29422,4.29442v24.4508c0,2.37174 -1.92268,4.29422 -4.29422,4.29422z" fill="#a68542" stroke-width="1"/><path d="M247.27465,196.38687c-2.37174,0 -4.29442,-1.92248 -4.29442,-4.29422v-24.4508c0,-2.37174 1.92268,-4.29442 4.29442,-4.29442v0c2.37154,0 4.29422,1.92268 4.29422,4.29442v24.4508c0,2.37174 -1.92267,4.29422 -4.29422,4.29422z" fill="#a68542" stroke-width="1"/></g></g></svg>