<svg version="1.1" xmlns="http://www.w3.org/2000/svg" xmlns:xlink="http://www.w3.org/1999/xlink" width="281.35723" height="29.07822" viewBox="0,0,281.35723,29.07822"><g transform="translate(-99.32139,-165.46095)"><g data-paper-data="{&quot;isPaintingLayer&quot;:true}" fill="#ffffff" fill-rule="nonzero" stroke="none" stroke-width="1" stroke-linecap="square" stroke-linejoin="miter" stroke-miterlimit="10" stroke-dasharray="" stroke-dashoffset="0" style="mix-blend-mode: normal"><path d="M110.40328,194.53906c-1.125,0 -2.26562,-0.08854 -3.42187,-0.26562c-1.15625,-0.16666 -2.26562,-0.41146 -3.32812,-0.73437c-1.05209,-0.32291 -1.98959,-0.72396 -2.8125,-1.20312c-0.58334,-0.3125 -0.99479,-0.72916 -1.23438,-1.25c-0.23959,-0.52084 -0.32812,-1.04687 -0.26562,-1.57812c0.0625,-0.54166 0.26041,-1.01562 0.59375,-1.42187c0.33333,-0.41666 0.76041,-0.68229 1.28125,-0.79687c0.52083,-0.125 1.10416,-0.02604 1.75,0.29688c1.09375,0.61459 2.28646,1.06771 3.57813,1.35938c1.29166,0.29166 2.57813,0.4375 3.85938,0.4375c1.94791,0 3.33334,-0.29687 4.15625,-0.89062c0.82292,-0.60416 1.23438,-1.35937 1.23438,-2.26562c0,-0.78125 -0.29166,-1.39584 -0.875,-1.84375c-0.58333,-0.45834 -1.60937,-0.84375 -3.07812,-1.15625l-4.51562,-0.96875c-2.5625,-0.53125 -4.46354,-1.44271 -5.70312,-2.73437c-1.23959,-1.29166 -1.85938,-2.99479 -1.85938,-5.10937c0,-1.33334 0.27604,-2.54166 0.82813,-3.625c0.5625,-1.09375 1.34896,-2.04166 2.35938,-2.84375c1.02083,-0.80209 2.22916,-1.41666 3.625,-1.84375c1.40625,-0.42709 2.94791,-0.64062 4.625,-0.64062c1.48958,0 2.95312,0.18229 4.39062,0.54688c1.44792,0.35416 2.71875,0.88021 3.8125,1.57813c0.53125,0.3125 0.89584,0.71875 1.09375,1.21875c0.19792,0.48959 0.26563,0.98438 0.20313,1.48438c-0.0625,0.48959 -0.26041,0.92188 -0.59375,1.29688c-0.33333,0.375 -0.75521,0.61459 -1.26562,0.71875c-0.51041,0.10416 -1.125,-0.01562 -1.84375,-0.35937c-0.875,-0.45834 -1.80729,-0.79166 -2.79687,-1c-0.98958,-0.21875 -2,-0.32812 -3.03125,-0.32812c-1.125,0 -2.08334,0.15104 -2.875,0.45313c-0.78125,0.29166 -1.38021,0.70313 -1.79687,1.23438c-0.40625,0.53125 -0.60937,1.14584 -0.60937,1.84375c0,0.77084 0.27604,1.39584 0.82813,1.875c0.5625,0.47916 1.53646,0.86459 2.92188,1.15625l4.53125,0.96875c2.60417,0.55209 4.54688,1.44791 5.82813,2.6875c1.28125,1.23959 1.92188,2.875 1.92188,4.90625c0,1.33334 -0.26562,2.54166 -0.79687,3.625c-0.53125,1.07291 -1.30729,2 -2.32812,2.78125c-1.01041,0.77084 -2.22396,1.36459 -3.64062,1.78125c-1.40625,0.40625 -2.98959,0.60938 -4.75,0.60938zM129.19952,194.10156c-1.04166,0 -1.84375,-0.28125 -2.40625,-0.84375c-0.55209,-0.5625 -0.82812,-1.35937 -0.82812,-2.39062v-21.71875c0,-1.04166 0.27604,-1.84375 0.82813,-2.40625c0.5625,-0.5625 1.36459,-0.84375 2.40625,-0.84375h13.96875c0.79166,0 1.39584,0.20834 1.8125,0.625c0.41666,0.41666 0.625,1.01041 0.625,1.78125c0,0.80209 -0.20834,1.41146 -0.625,1.82813c-0.41666,0.40625 -1.02084,0.60938 -1.8125,0.60938h-11.28125v6.59375h10.35938c0.82291,0 1.4375,0.20834 1.84375,0.625c0.41666,0.41666 0.625,1.02604 0.625,1.82813c0,0.79166 -0.20834,1.39584 -0.625,1.8125c-0.40625,0.41666 -1.02084,0.625 -1.84375,0.625h-10.35937v7.03125h11.28125c0.79166,0 1.39584,0.20834 1.8125,0.625c0.41666,0.41666 0.625,1.01041 0.625,1.78125c0,0.80209 -0.20834,1.41146 -0.625,1.82813c-0.41666,0.40625 -1.02084,0.60938 -1.8125,0.60938zM153.32134,194.10156c-1.01041,0 -1.79166,-0.28125 -2.34375,-0.84375c-0.54166,-0.5625 -0.8125,-1.33334 -0.8125,-2.3125v-21.96875c0,-1.04166 0.26563,-1.82812 0.79688,-2.35937c0.53125,-0.53125 1.30209,-0.79687 2.3125,-0.79687c0.98959,0 1.75,0.26563 2.28125,0.79688c0.54166,0.53125 0.8125,1.31771 0.8125,2.35938v19.89063h10.71875c0.85416,0 1.51041,0.22916 1.96875,0.6875c0.46875,0.44791 0.70313,1.08334 0.70313,1.90625c0,0.85416 -0.23437,1.51041 -0.70312,1.96875c-0.45834,0.44791 -1.11459,0.67188 -1.96875,0.67188zM176.31945,194.10156c-1.04166,0 -1.84375,-0.28125 -2.40625,-0.84375c-0.55209,-0.5625 -0.82812,-1.35937 -0.82812,-2.39062v-21.71875c0,-1.04166 0.27604,-1.84375 0.82813,-2.40625c0.5625,-0.5625 1.36459,-0.84375 2.40625,-0.84375h13.96875c0.79166,0 1.39584,0.20834 1.8125,0.625c0.41666,0.41666 0.625,1.01041 0.625,1.78125c0,0.80209 -0.20834,1.41146 -0.625,1.82813c-0.41666,0.40625 -1.02084,0.60938 -1.8125,0.60938h-11.28125v6.59375h10.35938c0.82291,0 1.4375,0.20834 1.84375,0.625c0.41666,0.41666 0.625,1.02604 0.625,1.82813c0,0.79166 -0.20834,1.39584 -0.625,1.8125c-0.40625,0.41666 -1.02084,0.625 -1.84375,0.625h-10.35937v7.03125h11.28125c0.79166,0 1.39584,0.20834 1.8125,0.625c0.41666,0.41666 0.625,1.01041 0.625,1.78125c0,0.80209 -0.20834,1.41146 -0.625,1.82813c-0.41666,0.40625 -1.02084,0.60938 -1.8125,0.60938zM210.95696,194.53906c-3.04166,0 -5.64062,-0.59896 -7.79687,-1.79687c-2.15625,-1.19791 -3.81771,-2.88541 -4.98437,-5.0625c-1.15625,-2.17709 -1.73437,-4.74479 -1.73437,-7.70312c0,-2.20834 0.32291,-4.19791 0.96875,-5.96875c0.65625,-1.78125 1.60938,-3.30209 2.85938,-4.5625c1.26041,-1.27084 2.79166,-2.25001 4.59375,-2.93751c1.80209,-0.69791 3.83334,-1.04687 6.09375,-1.04687c1.33334,0 2.6875,0.16666 4.0625,0.5c1.375,0.33334 2.56771,0.80729 3.57813,1.42188c0.66666,0.375 1.11979,0.84375 1.35938,1.40625c0.23959,0.55209 0.3125,1.10938 0.21875,1.67188c-0.09375,0.5625 -0.32291,1.04688 -0.6875,1.45313c-0.35416,0.39584 -0.79687,0.64584 -1.32812,0.75c-0.53125,0.10416 -1.13021,-0.01562 -1.79687,-0.35937c-0.80209,-0.47916 -1.64584,-0.82291 -2.53125,-1.03125c-0.875,-0.21875 -1.76562,-0.32812 -2.67187,-0.32812c-1.78125,0 -3.28125,0.35416 -4.5,1.0625c-1.20834,0.69791 -2.11979,1.71354 -2.73437,3.04688c-0.61459,1.33334 -0.92187,2.97396 -0.92187,4.92188c0,1.92709 0.30729,3.57291 0.92188,4.9375c0.61459,1.35416 1.52604,2.38541 2.73438,3.09375c1.21875,0.69791 2.71875,1.04688 4.5,1.04688c0.85416,0 1.72916,-0.10416 2.625,-0.3125c0.89584,-0.21875 1.75521,-0.55209 2.57813,-1c0.6875,-0.34375 1.30209,-0.46875 1.84375,-0.375c0.55209,0.09375 1.01041,0.33334 1.375,0.71875c0.36459,0.38541 0.58854,0.84375 0.67188,1.375c0.09375,0.53125 0.03125,1.06771 -0.1875,1.60938c-0.20834,0.53125 -0.60416,0.97916 -1.1875,1.34375c-0.98959,0.66666 -2.20312,1.1875 -3.64062,1.5625c-1.4375,0.375 -2.86459,0.5625 -4.28125,0.5625zM234.0888,194.46094c-1.02084,0 -1.79687,-0.27604 -2.32812,-0.82812c-0.53125,-0.5625 -0.79687,-1.35416 -0.79687,-2.375v-20.23437h-7.07813c-0.83334,0 -1.47916,-0.22396 -1.9375,-0.67187c-0.44791,-0.45834 -0.67187,-1.08854 -0.67187,-1.89062c0,-0.82291 0.22396,-1.45312 0.67188,-1.89062c0.45834,-0.44791 1.10416,-0.67187 1.9375,-0.67187h20.35938c0.82291,0 1.45833,0.22396 1.90625,0.67188c0.45833,0.4375 0.6875,1.06771 0.6875,1.89063c0,0.80209 -0.22917,1.43229 -0.6875,1.89063c-0.44792,0.44791 -1.08334,0.67188 -1.90625,0.67188h-7.07813v20.23438c0,1.02084 -0.26042,1.8125 -0.78125,2.375c-0.52084,0.55209 -1.28646,0.82813 -2.29687,0.82813zM263.84127,194.10156c-1.01042,0 -1.79167,-0.28125 -2.34375,-0.84375c-0.54167,-0.5625 -0.8125,-1.33334 -0.8125,-2.3125v-21.96875c0,-1.04166 0.26563,-1.82812 0.79688,-2.35937c0.53125,-0.53125 1.30208,-0.79687 2.3125,-0.79687c0.98958,0 1.75,0.26563 2.28125,0.79688c0.54166,0.53125 0.8125,1.31771 0.8125,2.35938v19.89063h10.71875c0.85416,0 1.51041,0.22916 1.96875,0.6875c0.46875,0.44791 0.70313,1.08334 0.70313,1.90625c0,0.85416 -0.23437,1.51041 -0.70312,1.96875c-0.45834,0.44791 -1.11459,0.67188 -1.96875,0.67188zM286.83938,194.10156c-1.04167,0 -1.84375,-0.28125 -2.40625,-0.84375c-0.55209,-0.5625 -0.82812,-1.35937 -0.82812,-2.39062v-21.71875c0,-1.04166 0.27604,-1.84375 0.82813,-2.40625c0.5625,-0.5625 1.36458,-0.84375 2.40625,-0.84375h13.96875c0.79166,0 1.39583,0.20834 1.8125,0.625c0.41666,0.41666 0.625,1.01041 0.625,1.78125c0,0.80209 -0.20834,1.41146 -0.625,1.82813c-0.41667,0.40625 -1.02084,0.60938 -1.8125,0.60938h-11.28125v6.59375h10.35938c0.82291,0 1.4375,0.20834 1.84375,0.625c0.41666,0.41666 0.625,1.02604 0.625,1.82813c0,0.79166 -0.20834,1.39584 -0.625,1.8125c-0.40625,0.41666 -1.02084,0.625 -1.84375,0.625h-10.35937v7.03125h11.28125c0.79166,0 1.39583,0.20834 1.8125,0.625c0.41666,0.41666 0.625,1.01041 0.625,1.78125c0,0.80209 -0.20834,1.41146 -0.625,1.82813c-0.41667,0.40625 -1.02084,0.60938 -1.8125,0.60938zM319.52369,194.46094c-0.85416,0 -1.55729,-0.19271 -2.10937,-0.57812c-0.54166,-0.38541 -0.98437,-0.97916 -1.32812,-1.78125l-10.07812,-22.40625c-0.375,-0.79166 -0.48437,-1.50001 -0.32812,-2.12501c0.15625,-0.63541 0.48959,-1.13021 1,-1.48437c0.51042,-0.36459 1.125,-0.54687 1.84375,-0.54687c0.90625,0 1.59896,0.20834 2.07813,0.625c0.47917,0.41666 0.88021,1.02084 1.20313,1.8125l8.84375,20.4375h-2l8.82813,-20.46875c0.35417,-0.80209 0.77084,-1.40104 1.25,-1.79687c0.47917,-0.40625 1.14584,-0.60937 2,-0.60937c0.71875,0 1.30729,0.18229 1.76563,0.54688c0.46875,0.35416 0.76042,0.84896 0.875,1.48438c0.125,0.625 0.01563,1.33334 -0.32812,2.125l-10.07812,22.40625c-0.375,0.80209 -0.82291,1.39584 -1.34375,1.78125c-0.52083,0.38541 -1.21875,0.57813 -2.09375,0.57813zM340.11929,194.10156c-1.04167,0 -1.84375,-0.28125 -2.40625,-0.84375c-0.55209,-0.5625 -0.82812,-1.35937 -0.82812,-2.39062v-21.71875c0,-1.04166 0.27604,-1.84375 0.82813,-2.40625c0.5625,-0.5625 1.36458,-0.84375 2.40625,-0.84375h13.96875c0.79166,0 1.39583,0.20834 1.8125,0.625c0.41666,0.41666 0.625,1.01041 0.625,1.78125c0,0.80209 -0.20834,1.41146 -0.625,1.82813c-0.41667,0.40625 -1.02084,0.60938 -1.8125,0.60938h-11.28125v6.59375h10.35938c0.82291,0 1.4375,0.20834 1.84375,0.625c0.41666,0.41666 0.625,1.02604 0.625,1.82813c0,0.79166 -0.20834,1.39584 -0.625,1.8125c-0.40625,0.41666 -1.02084,0.625 -1.84375,0.625h-10.35937v7.03125h11.28125c0.79166,0 1.39583,0.20834 1.8125,0.625c0.41666,0.41666 0.625,1.01041 0.625,1.78125c0,0.80209 -0.20834,1.41146 -0.625,1.82813c-0.41667,0.40625 -1.02084,0.60938 -1.8125,0.60938zM364.24111,194.10156c-1.01041,0 -1.79166,-0.28125 -2.34375,-0.84375c-0.54166,-0.5625 -0.8125,-1.33334 -0.8125,-2.3125v-21.96875c0,-1.04166 0.26563,-1.82812 0.79688,-2.35937c0.53125,-0.53125 1.30209,-0.79687 2.3125,-0.79687c0.98959,0 1.75,0.26563 2.28125,0.79688c0.54167,0.53125 0.8125,1.31771 0.8125,2.35938v19.89063h10.71875c0.85417,0 1.51042,0.22916 1.96875,0.6875c0.46875,0.44791 0.70313,1.08334 0.70313,1.90625c0,0.85416 -0.23437,1.51041 -0.70312,1.96875c-0.45833,0.44791 -1.11458,0.67188 -1.96875,0.67188z"/></g></g></svg>