<svg version="1.1" xmlns="http://www.w3.org/2000/svg" xmlns:xlink="http://www.w3.org/1999/xlink" width="139.3359" height="42.01926" viewBox="0,0,139.3359,42.01926"><g transform="translate(-170.33205,-160.00549)"><g data-paper-data="{&quot;isPaintingLayer&quot;:true}" fill-rule="nonzero" stroke="none" stroke-linejoin="miter" stroke-miterlimit="10" stroke-dasharray="" stroke-dashoffset="0" style="mix-blend-mode: normal"><path d="M309.66795,182.02977c0,11.04292 -8.95112,19.99498 -19.99404,19.99498h-99.3469c-11.04291,0 -19.99496,-8.95205 -19.99496,-19.99498c0,-11.042 8.95205,-19.99404 19.99496,-19.99404h99.3469c11.04292,0 19.99404,8.95204 19.99404,19.99404z" fill="#a69842" stroke-width="0" stroke-linecap="butt"/><path d="M309.66795,179.99953c0,11.04292 -8.95112,19.99498 -19.99404,19.99498h-99.3469c-11.04291,0 -19.99496,-8.95205 -19.99496,-19.99498c0,-11.042 8.95205,-19.99404 19.99496,-19.99404h99.3469c11.04292,0 19.99404,8.95204 19.99404,19.99404z" fill="#ffea66" stroke-width="0" stroke-linecap="butt"/><path d="M207.18283,188.24382c-0.61856,0 -1.09485,-0.16701 -1.42887,-0.50103c-0.32784,-0.33402 -0.49175,-0.80722 -0.49175,-1.41959v-12.89692c0,-0.61856 0.16392,-1.09485 0.49175,-1.42887c0.33402,-0.33402 0.81031,-0.50103 1.42887,-0.50103h8.29485c0.4701,0 0.82887,0.12371 1.07629,0.37114c0.24742,0.24742 0.37114,0.6 0.37114,1.05774c0,0.47629 -0.12371,0.83814 -0.37114,1.08557c-0.24742,0.24123 -0.60619,0.36186 -1.07629,0.36186h-6.69898v3.91547h6.15155c0.48866,0 0.85361,0.12371 1.09485,0.37114c0.24742,0.24742 0.37114,0.60927 0.37114,1.08557c0,0.4701 -0.12371,0.82887 -0.37114,1.07629c-0.24123,0.24742 -0.60619,0.37114 -1.09485,0.37114h-6.15155v4.17526h6.69898c0.4701,0 0.82887,0.12371 1.07629,0.37114c0.24742,0.24742 0.37114,0.6 0.37114,1.05774c0,0.47629 -0.12371,0.83814 -0.37114,1.08557c-0.24742,0.24123 -0.60619,0.36186 -1.07629,0.36186zM220.56036,188.41083c-0.44537,0 -0.80412,-0.12062 -1.07629,-0.36186c-0.26598,-0.24742 -0.40515,-0.55979 -0.41752,-0.93712c-0.00618,-0.38351 0.15154,-0.7732 0.4732,-1.16907l3.67423,-4.51856v1.61443l-3.41444,-4.17526c-0.33402,-0.41443 -0.49485,-0.81031 -0.48248,-1.18763c0.01856,-0.38351 0.16082,-0.69278 0.4268,-0.92783c0.27217,-0.23505 0.63093,-0.35258 1.07629,-0.35258c0.4268,0 0.78248,0.07113 1.06701,0.2134c0.28453,0.14227 0.55361,0.37732 0.80722,0.70515l2.54227,3.2567h-1.26186l2.54227,-3.2567c0.27217,-0.32784 0.55051,-0.56289 0.83505,-0.70515c0.28453,-0.14227 0.63093,-0.2134 1.03918,-0.2134c0.44537,0 0.80103,0.12371 1.06701,0.37114c0.27217,0.24123 0.41134,0.55361 0.41752,0.93712c0.01237,0.37732 -0.14846,0.76392 -0.48248,1.1598l-3.42372,4.17526v-1.61443l3.71135,4.51856c0.32784,0.37732 0.48248,0.75773 0.46392,1.14124c-0.01237,0.37732 -0.15774,0.69278 -0.43608,0.9464c-0.27217,0.25361 -0.63093,0.38041 -1.07629,0.38041c-0.4268,0 -0.77938,-0.07423 -1.05774,-0.22268c-0.27835,-0.15464 -0.55051,-0.38969 -0.81649,-0.70515l-2.78351,-3.53506h1.21546l-2.78351,3.53506c-0.25361,0.30309 -0.51959,0.53505 -0.79794,0.69588c-0.27217,0.15464 -0.62165,0.23196 -1.04846,0.23196zM238.3195,188.50362c-1.08866,0 -2.00104,-0.18247 -2.73712,-0.54743c-0.73608,-0.36495 -1.28351,-0.89382 -1.64227,-1.5866c-0.35258,-0.69897 -0.52886,-1.57732 -0.52886,-2.63506v-4.47217h-1.00206c-0.44537,0 -0.79176,-0.11752 -1.03918,-0.35258c-0.24123,-0.23505 -0.36186,-0.55979 -0.36186,-0.97423c0,-0.44537 0.12062,-0.78248 0.36186,-1.01134c0.24742,-0.22887 0.59381,-0.3433 1.03918,-0.3433h1.00206v-1.80928c0,-0.6 0.15774,-1.05464 0.4732,-1.36392c0.31546,-0.30928 0.75773,-0.46392 1.3268,-0.46392c0.58763,0 1.02989,0.15464 1.3268,0.46392c0.30309,0.30928 0.45464,0.76392 0.45464,1.36392v1.80928h2.25464c0.44537,0 0.78557,0.11443 1.02062,0.3433c0.24123,0.22887 0.36186,0.56598 0.36186,1.01134c0,0.41443 -0.12062,0.73918 -0.36186,0.97423c-0.23505,0.23505 -0.57526,0.35258 -1.02062,0.35258h-2.25464v4.32372c0,0.66804 0.15464,1.16907 0.46392,1.50309c0.30928,0.32784 0.80412,0.49175 1.48454,0.49175c0.23505,0 0.45464,-0.02165 0.65877,-0.06495c0.21031,-0.04948 0.40206,-0.08351 0.57526,-0.10206c0.22268,-0.01237 0.40515,0.05567 0.54743,0.20412c0.14227,0.14846 0.2134,0.47629 0.2134,0.98351c0,0.38351 -0.06495,0.71753 -0.19485,1.00206c-0.12371,0.28453 -0.3433,0.48866 -0.65877,0.61237c-0.20412,0.08041 -0.48557,0.14846 -0.84433,0.20412c-0.35876,0.05567 -0.66495,0.08351 -0.91855,0.08351zM244.04648,188.45722c-0.6,0 -1.06083,-0.15774 -1.38248,-0.4732c-0.31546,-0.31546 -0.4732,-0.76701 -0.4732,-1.35464v-8.43403c0,-0.58763 0.15464,-1.03299 0.46392,-1.33609c0.30928,-0.30928 0.74227,-0.46392 1.29897,-0.46392c0.56908,0 1.00206,0.15464 1.29897,0.46392c0.30309,0.30309 0.45464,0.74845 0.45464,1.33609v1.23403h-0.23196c0.18557,-0.9464 0.60309,-1.67938 1.25258,-2.19897c0.64949,-0.52578 1.49072,-0.82268 2.52372,-0.89072c0.39587,-0.03093 0.69897,0.07113 0.90928,0.30618c0.2165,0.22887 0.33093,0.60309 0.3433,1.12268c0.03711,0.48866 -0.06186,0.87835 -0.29691,1.16907c-0.22887,0.28453 -0.61237,0.45773 -1.15052,0.51959l-0.54743,0.04639c-0.8969,0.08041 -1.56495,0.3433 -2.00412,0.78866c-0.43299,0.43917 -0.64949,1.07939 -0.64949,1.92062v4.4165c0,0.58763 -0.15464,1.03918 -0.46392,1.35464c-0.30928,0.31546 -0.75773,0.4732 -1.34537,0.4732zM255.80141,188.50362c-0.85361,0 -1.62062,-0.16392 -2.30103,-0.49175c-0.68042,-0.33402 -1.21238,-0.78557 -1.59588,-1.35464c-0.37732,-0.57526 -0.56598,-1.21856 -0.56598,-1.9299c0,-0.85361 0.22268,-1.52784 0.66804,-2.02269c0.44537,-0.50103 1.16598,-0.85979 2.16186,-1.07629c0.99588,-0.2165 2.3165,-0.32474 3.96186,-0.32474h1.26186v1.85567h-1.23403c-0.81031,0 -1.46598,0.0433 -1.96701,0.12989c-0.49485,0.0866 -0.85052,0.23505 -1.06701,0.44537c-0.21031,0.20412 -0.31546,0.48866 -0.31546,0.85361c0,0.43917 0.15464,0.80412 0.46392,1.09485c0.30928,0.28453 0.75464,0.4268 1.33609,0.4268c0.46392,0 0.87217,-0.10824 1.22474,-0.32474c0.35876,-0.2165 0.64021,-0.51031 0.84433,-0.88144c0.20412,-0.37114 0.30618,-0.79484 0.30618,-1.27114v-2.72784c0,-0.69897 -0.15774,-1.19381 -0.4732,-1.48454c-0.31546,-0.29073 -0.85361,-0.43608 -1.61443,-0.43608c-0.4268,0 -0.89072,0.05258 -1.39175,0.15774c-0.49485,0.09897 -1.04227,0.26598 -1.64227,0.50103c-0.35258,0.16082 -0.66495,0.19794 -0.93712,0.11134c-0.26598,-0.0866 -0.4701,-0.24433 -0.61237,-0.4732c-0.14227,-0.23505 -0.2134,-0.48866 -0.2134,-0.76083c0,-0.27835 0.07732,-0.54743 0.23196,-0.80722c0.16082,-0.26598 0.42371,-0.46083 0.78866,-0.58454c0.74227,-0.30309 1.44124,-0.51031 2.09691,-0.62165c0.66186,-0.11134 1.27114,-0.16701 1.82784,-0.16701c1.21856,0 2.21753,0.17939 2.99691,0.53814c0.78557,0.35876 1.37629,0.90618 1.77217,1.64227c0.39587,0.73608 0.59381,1.68248 0.59381,2.83918v5.27011c0,0.58763 -0.14227,1.03918 -0.4268,1.35464c-0.28453,0.31546 -0.69588,0.4732 -1.23403,0.4732c-0.53814,0 -0.95567,-0.15774 -1.25258,-0.4732c-0.29073,-0.31546 -0.43608,-0.76701 -0.43608,-1.35464v-0.88144l0.16701,0.14846c-0.09278,0.53814 -0.29381,1.00206 -0.60309,1.39175c-0.30928,0.38351 -0.70206,0.6835 -1.17835,0.9c-0.47629,0.21031 -1.02371,0.31546 -1.64227,0.31546zM269.56047,188.50362c-0.69897,0 -1.4165,-0.06495 -2.15258,-0.19485c-0.73608,-0.12371 -1.40413,-0.33402 -2.00412,-0.63093c-0.31546,-0.16082 -0.54124,-0.36186 -0.67732,-0.60309c-0.13609,-0.24742 -0.19794,-0.49794 -0.18557,-0.75155c0.01856,-0.25361 0.10206,-0.48248 0.25052,-0.6866c0.15464,-0.21031 0.35258,-0.34949 0.59381,-0.41752c0.24742,-0.07423 0.52268,-0.04639 0.82577,0.08351c0.64949,0.26598 1.2433,0.45464 1.78144,0.56598c0.53814,0.11134 1.06701,0.16701 1.5866,0.16701c0.68041,0 1.17525,-0.10516 1.48453,-0.31546c0.30928,-0.2165 0.46392,-0.50103 0.46392,-0.85361c0,-0.31546 -0.10206,-0.55051 -0.30618,-0.70515c-0.20412,-0.16082 -0.50413,-0.27217 -0.9,-0.33402l-2.49588,-0.45464c-0.98351,-0.1732 -1.74124,-0.53196 -2.2732,-1.07629c-0.52578,-0.55051 -0.78866,-1.25258 -0.78866,-2.10618c0,-0.79176 0.21958,-1.47526 0.65877,-2.05052c0.44537,-0.58144 1.05774,-1.02681 1.83712,-1.33609c0.78557,-0.30928 1.67938,-0.46392 2.68144,-0.46392c0.71134,0 1.36702,0.06495 1.96701,0.19485c0.6,0.12371 1.17835,0.32784 1.73506,0.61237c0.28453,0.14846 0.48557,0.34021 0.60309,0.57526c0.12371,0.23505 0.16392,0.47938 0.12062,0.73299c-0.03711,0.25361 -0.13609,0.48557 -0.29691,0.69588c-0.15464,0.20412 -0.35567,0.33711 -0.60309,0.39897c-0.24742,0.06186 -0.52886,0.03093 -0.84433,-0.09278c-0.50721,-0.24123 -0.97423,-0.41134 -1.40103,-0.51031c-0.4268,-0.10516 -0.83814,-0.15774 -1.23403,-0.15774c-0.71134,0 -1.22784,0.11443 -1.54948,0.3433c-0.31546,0.22887 -0.4732,0.51959 -0.4732,0.87217c0,0.26598 0.08969,0.49175 0.26907,0.67732c0.18557,0.17939 0.4701,0.3 0.85361,0.36186l2.4866,0.45464c1.03299,0.1732 1.81855,0.51959 2.3567,1.03918c0.53814,0.5134 0.80722,1.21238 0.80722,2.09691c0,1.2 -0.4732,2.1464 -1.41959,2.83918c-0.94021,0.6866 -2.19279,1.02989 -3.75773,1.02989z" fill="#a69842" stroke-width="1" stroke-linecap="square"/></g></g></svg>