<svg version="1.1" xmlns="http://www.w3.org/2000/svg" xmlns:xlink="http://www.w3.org/1999/xlink" width="137.0052" height="52.72028" viewBox="0,0,137.0052,52.72028"><g transform="translate(-171.4974,-154.88986)"><g data-paper-data="{&quot;isPaintingLayer&quot;:true}" fill-rule="nonzero" stroke="none" stroke-width="1" stroke-linejoin="miter" stroke-miterlimit="10" stroke-dasharray="" stroke-dashoffset="0" style="mix-blend-mode: normal"><path d="M308.5026,162.8388v39.32345c0,3.00421 -2.44263,5.44789 -5.44894,5.44789h-126.10837c-3.00316,0 -5.44789,-2.44368 -5.44789,-5.44789v-39.3245c0,-3.00421 2.44473,-5.44789 5.44789,-5.44789h126.10837c3.00631,0 5.44894,2.44473 5.44894,5.44894z" fill="#57a642" stroke-linecap="butt"/><path d="M308.5026,160.3388v39.32345c0,3.00421 -2.44263,5.44789 -5.44894,5.44789h-126.10837c-3.00316,0 -5.44789,-2.44368 -5.44789,-5.44789v-39.3245c0,-3.00421 2.44473,-5.44789 5.44789,-5.44789h126.10837c3.00631,0 5.44894,2.44473 5.44894,5.44894z" fill="#87ff66" stroke-linecap="butt"/><path d="M221.02666,194.42188c-1.01041,0 -1.78646,-0.27604 -2.32812,-0.82812c-0.53125,-0.5625 -0.79687,-1.36459 -0.79687,-2.40625v-11.60937l1.28125,3.5625l-9.4375,-13.39062c-0.375,-0.5625 -0.53646,-1.17187 -0.48437,-1.82812c0.05209,-0.65625 0.31771,-1.22396 0.79688,-1.70312c0.48959,-0.47916 1.17188,-0.71875 2.04688,-0.71875c0.64584,0 1.22396,0.16146 1.73438,0.48438c0.52084,0.32291 1.02084,0.82813 1.5,1.51563l6.40625,9.25h-1.28125l6.40625,-9.25c0.5,-0.71875 0.99479,-1.22916 1.48438,-1.53125c0.5,-0.3125 1.08334,-0.46875 1.75,-0.46875c0.85416,0 1.52084,0.22396 2,0.67188c0.47916,0.4375 0.72916,0.98438 0.75,1.64063c0.03125,0.64584 -0.19271,1.31771 -0.67187,2.01563l-9.3125,13.3125l1.23438,-3.5625v11.60938c0,2.15625 -1.02604,3.23438 -3.07812,3.23438zM242.74166,194.5c-2.3125,0 -4.30209,-0.41666 -5.96875,-1.25c-1.66666,-0.84375 -2.94791,-2.03125 -3.84375,-3.5625c-0.89584,-1.54166 -1.34375,-3.34896 -1.34375,-5.42187c0,-2.03125 0.42709,-3.8125 1.28125,-5.34375c0.85416,-1.53125 2.04688,-2.72916 3.57813,-3.59375c1.53125,-0.875 3.27084,-1.3125 5.21875,-1.3125c1.41666,0 2.69791,0.23438 3.84375,0.70313c1.14584,0.46875 2.13021,1.13541 2.95313,2c0.83334,0.86459 1.46354,1.92188 1.89063,3.17188c0.42709,1.23959 0.64063,2.61459 0.64063,4.125c0,0.51041 -0.16146,0.89584 -0.48437,1.15625c-0.32291,0.25 -0.79166,0.375 -1.40625,0.375h-12.5625v-3.125h10.09375l-0.64062,0.5625c0,-1.09375 -0.16146,-2.00521 -0.48437,-2.73437c-0.32291,-0.73959 -0.78646,-1.29687 -1.39062,-1.67187c-0.59375,-0.375 -1.32812,-0.5625 -2.20312,-0.5625c-0.98959,0 -1.83334,0.22916 -2.53125,0.6875c-0.6875,0.44791 -1.21875,1.09896 -1.59375,1.95313c-0.375,0.85416 -0.5625,1.88541 -0.5625,3.09375v0.3125c0,2.03125 0.47396,3.52604 1.42188,4.48438c0.94791,0.95834 2.35416,1.4375 4.21875,1.4375c0.63541,0 1.36459,-0.07812 2.1875,-0.23437c0.83334,-0.16666 1.60938,-0.42187 2.32813,-0.76562c0.61459,-0.29166 1.16146,-0.39062 1.64063,-0.29687c0.47916,0.09375 0.84896,0.3125 1.10938,0.65625c0.27084,0.34375 0.42709,0.74479 0.46875,1.20313c0.04166,0.44791 -0.05729,0.89584 -0.29687,1.34375c-0.23959,0.4375 -0.64062,0.80209 -1.20312,1.09375c-0.90625,0.51041 -1.92709,0.89063 -3.0625,1.14063c-1.125,0.25 -2.22396,0.375 -3.29687,0.375zM262.02974,194.5c-1.17708,0 -2.38541,-0.10937 -3.625,-0.32812c-1.23958,-0.20834 -2.36458,-0.5625 -3.375,-1.0625c-0.53125,-0.27084 -0.91146,-0.60937 -1.14062,-1.01562c-0.22916,-0.41666 -0.33334,-0.83854 -0.3125,-1.26562c0.03125,-0.42709 0.17188,-0.8125 0.42188,-1.15625c0.26041,-0.35416 0.59375,-0.58854 1,-0.70312c0.41666,-0.125 0.88021,-0.07812 1.39063,0.14063c1.09375,0.44791 2.09375,0.76563 3,0.95313c0.90625,0.1875 1.79688,0.28125 2.67188,0.28125c1.14584,0 1.97917,-0.17709 2.5,-0.53125c0.52084,-0.36459 0.78125,-0.84375 0.78125,-1.4375c0,-0.53125 -0.17187,-0.92709 -0.51562,-1.1875c-0.34375,-0.27084 -0.84896,-0.45834 -1.51562,-0.5625l-4.20312,-0.76562c-1.65625,-0.29166 -2.93229,-0.89584 -3.82812,-1.8125c-0.88541,-0.92709 -1.32812,-2.10937 -1.32812,-3.54687c0,-1.33334 0.36979,-2.48437 1.10938,-3.45312c0.75,-0.97916 1.78125,-1.72916 3.09375,-2.25c1.32291,-0.52084 2.82812,-0.78125 4.51562,-0.78125c1.19792,0 2.30209,0.10938 3.3125,0.32813c1.01042,0.20834 1.98438,0.55209 2.92188,1.03125c0.47917,0.25 0.81771,0.57291 1.01563,0.96875c0.20834,0.39584 0.27604,0.80729 0.20313,1.23438c-0.0625,0.42709 -0.22916,0.81771 -0.5,1.17188c-0.26041,0.34375 -0.59896,0.56771 -1.01562,0.67188c-0.41666,0.10416 -0.89062,0.05209 -1.42187,-0.15625c-0.85416,-0.40625 -1.64062,-0.69271 -2.35937,-0.85937c-0.71875,-0.17709 -1.41146,-0.26562 -2.07812,-0.26562c-1.19791,0 -2.06771,0.19271 -2.60937,0.57813c-0.53125,0.38541 -0.79687,0.875 -0.79687,1.46875c0,0.44791 0.15104,0.82813 0.45313,1.14063c0.3125,0.30209 0.79167,0.50521 1.4375,0.60938l4.1875,0.76563c1.73959,0.29166 3.0625,0.875 3.96875,1.75c0.90625,0.86459 1.35938,2.04166 1.35938,3.53125c0,2.02084 -0.79687,3.61459 -2.39062,4.78125c-1.58333,1.15625 -3.69271,1.73438 -6.32812,1.73438z" fill="#57a642" stroke-linecap="square"/></g></g></svg>