<svg version="1.1" xmlns="http://www.w3.org/2000/svg" xmlns:xlink="http://www.w3.org/1999/xlink" width="200.0859" height="60.38292" viewBox="0,0,200.0859,60.38292"><g transform="translate(-139.95705,-151.28796)"><g data-paper-data="{&quot;isPaintingLayer&quot;:true}" fill-rule="nonzero" stroke="none" stroke-linejoin="miter" stroke-miterlimit="10" stroke-dasharray="" stroke-dashoffset="0" style="mix-blend-mode: normal"><path d="M340.04295,182.95816c0,15.8576 -12.85378,28.71272 -28.71138,28.71272h-142.66182c-15.85759,0 -28.7127,-12.85511 -28.7127,-28.71272c0,-15.85627 12.85511,-28.71137 28.7127,-28.71137h142.66182c15.8576,0 28.71138,12.8551 28.71138,28.71137z" fill="#a68442" stroke-width="0" stroke-linecap="butt"/><path d="M340.04295,179.99933c0,15.8576 -12.85378,28.71272 -28.71138,28.71272h-142.66182c-15.85759,0 -28.7127,-12.85511 -28.7127,-28.71272c0,-15.85627 12.85511,-28.71137 28.7127,-28.71137h142.66182c15.8576,0 28.71138,12.8551 28.71138,28.71137z" fill="#ffcb66" stroke-width="0" stroke-linecap="butt"/><path d="M204.83978,193.85549c-1.07061,0 -2.16134,-0.08452 -3.27219,-0.25356c-1.10281,-0.16099 -2.15731,-0.39443 -3.16352,-0.70032c-0.99816,-0.30589 -1.89167,-0.68825 -2.68054,-1.14708c-0.55543,-0.30589 -0.94986,-0.70435 -1.1833,-1.19538c-0.22539,-0.49908 -0.30589,-1.00218 -0.24149,-1.50931c0.0644,-0.50713 0.25356,-0.95791 0.5675,-1.35235c0.32199,-0.39443 0.7285,-0.648 1.21953,-0.76069c0.49908,-0.1127 1.05451,-0.02012 1.66628,0.27771c1.03841,0.58762 2.17341,1.02231 3.40501,1.30405c1.2316,0.27369 2.45917,0.41053 3.68273,0.41053c1.85143,0 3.17157,-0.28576 3.96044,-0.85729c0.78887,-0.57153 1.1833,-1.28795 1.1833,-2.14926c0,-0.73252 -0.28174,-1.31612 -0.84522,-1.7508c-0.55543,-0.43468 -1.53346,-0.80497 -2.93411,-1.11086l-4.29853,-0.90559c-2.43905,-0.51518 -4.25023,-1.38857 -5.43353,-2.62017c-1.1833,-1.2316 -1.77495,-2.84958 -1.77495,-4.85395c0,-1.27185 0.26564,-2.42698 0.79692,-3.46538c0.53933,-1.04646 1.28795,-1.94802 2.24586,-2.70469c0.96596,-0.76472 2.11707,-1.34832 3.45331,-1.7508c1.33624,-0.41053 2.80531,-0.6158 4.4072,-0.6158c1.42479,0 2.82141,0.17307 4.18986,0.5192c1.37649,0.33809 2.58395,0.83717 3.62235,1.49724c0.50713,0.30589 0.85729,0.6963 1.05048,1.17123c0.19319,0.46688 0.25759,0.93376 0.19319,1.40064c-0.0644,0.46688 -0.25759,0.88144 -0.57958,1.24367c-0.31394,0.35419 -0.7124,0.5836 -1.19538,0.68825c-0.48298,0.0966 -1.06658,-0.02012 -1.7508,-0.35016c-0.84522,-0.43468 -1.73873,-0.75265 -2.68054,-0.95389c-0.93376,-0.20124 -1.8957,-0.30186 -2.88581,-0.30186c-1.07061,0 -1.98022,0.14087 -2.72884,0.42261c-0.74862,0.27369 -1.32015,0.66812 -1.71458,1.1833c-0.39443,0.50713 -0.59165,1.09073 -0.59165,1.7508c0,0.73252 0.26564,1.3282 0.79692,1.78703c0.53933,0.45883 1.46906,0.82912 2.78921,1.11086l4.29853,0.90559c2.4954,0.53933 4.35085,1.40064 5.56635,2.58395c1.22355,1.17525 1.83533,2.72884 1.83533,4.66076c0,1.27185 -0.25356,2.42295 -0.76069,3.45331c-0.50713,1.03036 -1.24367,1.91582 -2.20964,2.65639c-0.96596,0.73252 -2.12511,1.296 -3.47746,1.69043c-1.3443,0.39443 -2.85361,0.59165 -4.52794,0.59165zM228.08967,193.85549c-1.75483,0 -3.22389,-0.28979 -4.4072,-0.86936c-1.17525,-0.58762 -2.05267,-1.44089 -2.63224,-2.5598c-0.57153,-1.1189 -0.85729,-2.53162 -0.85729,-4.23815v-7.16019h-1.59384c-0.71642,0 -1.27185,-0.18917 -1.66628,-0.5675c-0.38638,-0.38638 -0.57958,-0.90961 -0.57958,-1.56969c0,-0.71642 0.19319,-1.25575 0.57958,-1.61798c0.39443,-0.37028 0.94986,-0.55543 1.66628,-0.55543h1.59384v-2.89788c0,-0.96596 0.25356,-1.69446 0.76069,-2.18549c0.51518,-0.49908 1.22757,-0.74862 2.13719,-0.74862c0.94181,0 1.65421,0.24954 2.13719,0.74862c0.48298,0.49103 0.72447,1.21953 0.72447,2.18549v2.89788h3.62235c0.70837,0 1.25172,0.18514 1.63006,0.55543c0.38638,0.36224 0.57958,0.90156 0.57958,1.61798c0,0.66007 -0.19319,1.1833 -0.57958,1.56969c-0.37834,0.37834 -0.92169,0.5675 -1.63006,0.5675h-3.62235v6.93077c0,1.07061 0.24552,1.87155 0.73655,2.40283c0.49908,0.53128 1.296,0.79692 2.39075,0.79692c0.37834,0 0.73252,-0.03622 1.06256,-0.10867c0.33004,-0.0805 0.63592,-0.13282 0.91766,-0.15697c0.35419,-0.02415 0.64398,0.08452 0.86936,0.32601c0.23344,0.24149 0.35016,0.76874 0.35016,1.58176c0,0.61177 -0.10062,1.14708 -0.30186,1.60591c-0.20124,0.45883 -0.55543,0.78887 -1.06256,0.99011c-0.33004,0.12879 -0.78484,0.23746 -1.36442,0.32601c-0.57153,0.08855 -1.05853,0.13282 -1.46102,0.13282zM240.62816,193.85549c-1.36845,0 -2.60005,-0.26564 -3.6948,-0.79692c-1.09475,-0.53933 -1.94802,-1.2638 -2.5598,-2.17341c-0.60373,-0.91766 -0.90559,-1.94802 -0.90559,-3.09108c0,-1.37649 0.35419,-2.4632 1.06256,-3.26012c0.70837,-0.80497 1.8635,-1.37649 3.46538,-1.71458c1.60188,-0.34613 3.727,-0.5192 6.37534,-0.5192h2.01644v2.97033h-1.98022c-1.296,0 -2.34648,0.07245 -3.15145,0.21734c-0.79692,0.13685 -1.36845,0.37028 -1.71458,0.70032c-0.33809,0.33004 -0.50713,0.78887 -0.50713,1.37649c0,0.70837 0.24552,1.29197 0.73655,1.7508c0.49908,0.45883 1.21953,0.68825 2.16134,0.68825c0.73252,0 1.38454,-0.16904 1.95607,-0.50713c0.57153,-0.34613 1.02231,-0.81704 1.35235,-1.41272c0.33004,-0.60373 0.49505,-1.28392 0.49505,-2.04059v-4.39512c0,-1.11086 -0.25356,-1.89972 -0.76069,-2.3666c-0.50713,-0.47493 -1.37247,-0.7124 -2.59602,-0.7124c-0.68422,0 -1.42882,0.08452 -2.23378,0.25356c-0.79692,0.16099 -1.67836,0.43066 -2.64432,0.80899c-0.55543,0.25759 -1.05048,0.31796 -1.48516,0.18112c-0.42663,-0.14489 -0.75667,-0.40249 -0.99011,-0.77277c-0.22539,-0.37028 -0.33809,-0.77679 -0.33809,-1.21953c0,-0.44273 0.12477,-0.87339 0.37431,-1.29197c0.25759,-0.41858 0.67617,-0.7285 1.25575,-0.92974c1.1994,-0.48298 2.32635,-0.81302 3.38086,-0.99011c1.05451,-0.18514 2.02449,-0.27771 2.90996,-0.27771c1.95607,0 3.56198,0.28576 4.81773,0.85729c1.2638,0.57153 2.21366,1.44894 2.84958,2.63224c0.63592,1.1833 0.95389,2.70066 0.95389,4.55209v8.46423c0,0.94181 -0.22942,1.66628 -0.68825,2.17341c-0.45883,0.50713 -1.1189,0.76069 -1.98022,0.76069c-0.86936,0 -1.53749,-0.25356 -2.00437,-0.76069c-0.46688,-0.50713 -0.70032,-1.2316 -0.70032,-2.17341v-1.40064l0.26564,0.21734c-0.15294,0.86936 -0.47895,1.61396 -0.97804,2.23378c-0.49103,0.61983 -1.1189,1.10281 -1.88362,1.44894c-0.76472,0.34613 -1.64213,0.5192 -2.63224,0.5192zM258.50386,193.77097c-0.96596,0 -1.70251,-0.25356 -2.20964,-0.76069c-0.50713,-0.50713 -0.76069,-1.2316 -0.76069,-2.17341v-13.52345c0,-0.94181 0.24552,-1.65823 0.73655,-2.14926c0.49908,-0.49908 1.19538,-0.74862 2.08889,-0.74862c0.90961,0 1.60591,0.24954 2.08889,0.74862c0.48298,0.49103 0.72447,1.20745 0.72447,2.14926v1.98022h-0.37431c0.30589,-1.52944 0.97804,-2.71274 2.01644,-3.54991c1.04646,-0.83717 2.39478,-1.30807 4.04496,-1.41272c0.63592,-0.0483 1.12293,0.1127 1.46102,0.48298c0.34613,0.37028 0.53128,0.97401 0.55543,1.81118c0.0483,0.78887 -0.1127,1.41272 -0.48298,1.87155c-0.36224,0.45078 -0.97804,0.7285 -1.8474,0.83314l-0.86936,0.07245c-1.44894,0.12879 -2.52357,0.5514 -3.22389,1.26782c-0.70032,0.70837 -1.05048,1.7347 -1.05048,3.079v7.08774c0,0.94181 -0.24954,1.66628 -0.74862,2.17341c-0.49103,0.50713 -1.20745,0.76069 -2.14926,0.76069zM281.53288,193.85549c-1.75483,0 -3.22389,-0.28979 -4.4072,-0.86936c-1.17525,-0.58762 -2.05267,-1.44089 -2.63224,-2.5598c-0.57153,-1.1189 -0.85729,-2.53162 -0.85729,-4.23815v-7.16019h-1.59384c-0.71642,0 -1.27185,-0.18917 -1.66628,-0.5675c-0.38638,-0.38638 -0.57958,-0.90961 -0.57958,-1.56969c0,-0.71642 0.19319,-1.25575 0.57958,-1.61798c0.39443,-0.37028 0.94986,-0.55543 1.66628,-0.55543h1.59384v-2.89788c0,-0.96596 0.25356,-1.69446 0.76069,-2.18549c0.51518,-0.49908 1.22757,-0.74862 2.13719,-0.74862c0.94181,0 1.65421,0.24954 2.13719,0.74862c0.48298,0.49103 0.72447,1.21953 0.72447,2.18549v2.89788h3.62235c0.70837,0 1.25172,0.18514 1.63006,0.55543c0.38638,0.36224 0.57958,0.90156 0.57958,1.61798c0,0.66007 -0.19319,1.1833 -0.57958,1.56969c-0.37834,0.37834 -0.92169,0.5675 -1.63006,0.5675h-3.62235v6.93077c0,1.07061 0.24552,1.87155 0.73655,2.40283c0.49908,0.53128 1.296,0.79692 2.39075,0.79692c0.37834,0 0.73252,-0.03622 1.06256,-0.10867c0.33004,-0.0805 0.63592,-0.13282 0.91766,-0.15697c0.35419,-0.02415 0.64398,0.08452 0.86936,0.32601c0.23344,0.24149 0.35016,0.76874 0.35016,1.58176c0,0.61177 -0.10062,1.14708 -0.30186,1.60591c-0.20124,0.45883 -0.55543,0.78887 -1.06256,0.99011c-0.33004,0.12879 -0.78484,0.23746 -1.36442,0.32601c-0.57153,0.08855 -1.05853,0.13282 -1.46102,0.13282z" fill="#a68442" stroke-width="1" stroke-linecap="square"/></g></g></svg>