<svg version="1.1" xmlns="http://www.w3.org/2000/svg" xmlns:xlink="http://www.w3.org/1999/xlink" width="158.01443" height="12.61644" viewBox="0,0,158.01443,12.61644"><g transform="translate(-160.99278,-173.69178)"><g data-paper-data="{&quot;isPaintingLayer&quot;:true}" fill="#ffffff" fill-rule="nonzero" stroke="none" stroke-width="1" stroke-linecap="square" stroke-linejoin="miter" stroke-miterlimit="10" stroke-dasharray="" stroke-dashoffset="0" style="mix-blend-mode: normal"><path d="M162.36298,186.1183c-0.44316,0 -0.78231,-0.12209 -1.01746,-0.36628c-0.23515,-0.2442 -0.35273,-0.57882 -0.35273,-1.00388v-9.53693c0,-0.45221 0.11306,-0.79135 0.33915,-1.01746c0.23515,-0.23515 0.5743,-0.35273 1.01746,-0.35273c0.42507,0 0.75066,0.11758 0.97676,0.35273c0.23515,0.2261 0.35273,0.56525 0.35273,1.01746v8.628h4.65315c0.37081,0 0.65569,0.09948 0.85465,0.29845c0.20802,0.19897 0.31202,0.47932 0.31202,0.8411c0,0.36175 -0.104,0.64213 -0.31202,0.8411c-0.19897,0.19897 -0.48386,0.29845 -0.85465,0.29845zM172.35355,186.1183c-0.45221,0 -0.8004,-0.12209 -1.04457,-0.36628c-0.2442,-0.2442 -0.36628,-0.59238 -0.36628,-1.04457v-9.4284c0,-0.45221 0.12209,-0.79587 0.36628,-1.03102c0.2442,-0.2442 0.59238,-0.36628 1.04457,-0.36628h6.05045c0.35273,0 0.615,0.09044 0.78682,0.27132c0.18087,0.17183 0.27132,0.42507 0.27132,0.7597c0,0.35273 -0.09044,0.61951 -0.27132,0.8004c-0.17183,0.17183 -0.43412,0.25775 -0.78682,0.25775h-4.89735v2.876h4.50392c0.36175,0 0.62855,0.09044 0.8004,0.27132c0.18087,0.17183 0.27132,0.43412 0.27132,0.78682c0,0.34368 -0.09044,0.60595 -0.27132,0.78682c-0.17183,0.18087 -0.43863,0.27132 -0.8004,0.27132h-4.50392v3.05236h4.89735c0.35273,0 0.615,0.09044 0.78682,0.27132c0.18087,0.18087 0.27132,0.43863 0.27132,0.77327c0,0.34368 -0.09044,0.60595 -0.27132,0.78682c-0.17183,0.18087 -0.43412,0.27132 -0.78682,0.27132zM185.64284,186.30823c-0.47932,0 -0.97223,-0.0407 -1.4787,-0.12209c-0.50647,-0.07235 -0.99033,-0.17636 -1.45157,-0.31202c-0.45221,-0.13566 -0.85465,-0.3075 -1.20738,-0.5155c-0.26228,-0.14469 -0.44767,-0.3301 -0.5562,-0.5562c-0.09948,-0.2261 -0.13566,-0.45221 -0.10853,-0.6783c0.03618,-0.23515 0.12662,-0.43863 0.27132,-0.61048c0.14469,-0.18087 0.3301,-0.29845 0.5562,-0.35273c0.2261,-0.05426 0.47481,-0.01357 0.74612,0.12209c0.47932,0.27132 0.99937,0.47029 1.56009,0.5969c0.56073,0.12662 1.11694,0.18992 1.66862,0.18992c0.85015,0 1.45157,-0.13114 1.80428,-0.39343c0.36175,-0.26228 0.54265,-0.58785 0.54265,-0.97676c0,-0.33463 -0.12662,-0.60143 -0.37985,-0.8004c-0.25322,-0.19897 -0.69639,-0.36628 -1.32947,-0.50195l-1.96707,-0.42054c-1.11242,-0.2261 -1.93995,-0.61951 -2.48257,-1.18025c-0.5336,-0.56977 -0.8004,-1.31138 -0.8004,-2.22482c0,-0.57882 0.12209,-1.10337 0.36628,-1.57366c0.2442,-0.47932 0.58335,-0.89083 1.01746,-1.2345c0.44316,-0.35273 0.96771,-0.61951 1.57366,-0.8004c0.60595,-0.18087 1.27521,-0.27132 2.00777,-0.27132c0.65118,0 1.28878,0.07688 1.91281,0.23062c0.62405,0.15376 1.1712,0.37985 1.6415,0.6783c0.23515,0.14469 0.39343,0.32558 0.47481,0.54265c0.09044,0.20802 0.12209,0.42054 0.09496,0.6376c-0.02713,0.20802 -0.11306,0.39343 -0.25775,0.5562c-0.14469,0.16279 -0.3301,0.27132 -0.5562,0.32558c-0.21705,0.04523 -0.47932,-0.00905 -0.78682,-0.16279c-0.38889,-0.19897 -0.79587,-0.34368 -1.22095,-0.43412c-0.42507,-0.09044 -0.8637,-0.13566 -1.31591,-0.13566c-0.48837,0 -0.9044,0.0633 -1.24808,0.18992c-0.34368,0.12662 -0.60595,0.3075 -0.78682,0.54265c-0.17183,0.2261 -0.25775,0.48837 -0.25775,0.78682c0,0.33463 0.12209,0.60595 0.36628,0.81397c0.2442,0.20802 0.66473,0.37985 1.26164,0.5155l1.96707,0.40698c1.1305,0.2442 1.9716,0.6376 2.52327,1.18025c0.56073,0.5336 0.8411,1.23903 0.8411,2.1163c0,0.57882 -0.11758,1.10337 -0.35273,1.57366c-0.2261,0.47029 -0.56073,0.87275 -1.00388,1.20738c-0.43412,0.33463 -0.95868,0.59238 -1.57366,0.77327c-0.615,0.18087 -1.30686,0.27132 -2.0756,0.27132zM196.77351,186.30823c-0.47932,0 -0.97223,-0.0407 -1.4787,-0.12209c-0.50647,-0.07235 -0.99033,-0.17636 -1.45157,-0.31202c-0.45221,-0.13566 -0.85465,-0.3075 -1.20738,-0.5155c-0.26228,-0.14469 -0.44767,-0.3301 -0.5562,-0.5562c-0.09948,-0.2261 -0.13566,-0.45221 -0.10853,-0.6783c0.03618,-0.23515 0.12662,-0.43863 0.27132,-0.61048c0.14469,-0.18087 0.3301,-0.29845 0.5562,-0.35273c0.2261,-0.05426 0.47481,-0.01357 0.74612,0.12209c0.47932,0.27132 0.99937,0.47029 1.56009,0.5969c0.56073,0.12662 1.11694,0.18992 1.66862,0.18992c0.85015,0 1.45157,-0.13114 1.80428,-0.39343c0.36175,-0.26228 0.54265,-0.58785 0.54265,-0.97676c0,-0.33463 -0.12662,-0.60143 -0.37985,-0.8004c-0.25322,-0.19897 -0.69639,-0.36628 -1.32947,-0.50195l-1.96707,-0.42054c-1.11242,-0.2261 -1.93995,-0.61951 -2.48257,-1.18025c-0.5336,-0.56977 -0.8004,-1.31138 -0.8004,-2.22482c0,-0.57882 0.12209,-1.10337 0.36628,-1.57366c0.2442,-0.47932 0.58335,-0.89083 1.01746,-1.2345c0.44316,-0.35273 0.96771,-0.61951 1.57366,-0.8004c0.60595,-0.18087 1.27521,-0.27132 2.00777,-0.27132c0.65118,0 1.28878,0.07688 1.91281,0.23062c0.62405,0.15376 1.1712,0.37985 1.6415,0.6783c0.23515,0.14469 0.39343,0.32558 0.47481,0.54265c0.09044,0.20802 0.12209,0.42054 0.09496,0.6376c-0.02713,0.20802 -0.11306,0.39343 -0.25775,0.5562c-0.14469,0.16279 -0.3301,0.27132 -0.5562,0.32558c-0.21705,0.04523 -0.47932,-0.00905 -0.78682,-0.16279c-0.38889,-0.19897 -0.79587,-0.34368 -1.22095,-0.43412c-0.42507,-0.09044 -0.8637,-0.13566 -1.31591,-0.13566c-0.48837,0 -0.9044,0.0633 -1.24808,0.18992c-0.34368,0.12662 -0.60595,0.3075 -0.78682,0.54265c-0.17183,0.2261 -0.25775,0.48837 -0.25775,0.78682c0,0.33463 0.12209,0.60595 0.36628,0.81397c0.2442,0.20802 0.66473,0.37985 1.26164,0.5155l1.96707,0.40698c1.1305,0.2442 1.9716,0.6376 2.52327,1.18025c0.56073,0.5336 0.8411,1.23903 0.8411,2.1163c0,0.57882 -0.11758,1.10337 -0.35273,1.57366c-0.2261,0.47029 -0.56073,0.87275 -1.00388,1.20738c-0.43412,0.33463 -0.95868,0.59238 -1.57366,0.77327c-0.615,0.18087 -1.30686,0.27132 -2.0756,0.27132zM208.71976,186.28109c-0.31655,0 -0.57882,-0.07688 -0.78682,-0.23062c-0.19897,-0.15376 -0.32558,-0.35725 -0.37985,-0.61048c-0.05426,-0.25322 -0.00453,-0.53812 0.14922,-0.85465l4.44966,-9.74042c0.18087,-0.38889 0.39793,-0.67378 0.65118,-0.85465c0.25322,-0.18087 0.55168,-0.27132 0.89535,-0.27132c0.33463,0 0.62855,0.09044 0.8818,0.27132c0.25322,0.18087 0.46577,0.46577 0.6376,0.85465l4.47679,9.74042c0.15376,0.31655 0.20802,0.60595 0.16279,0.86823c-0.03618,0.26228 -0.15376,0.46577 -0.35273,0.61048c-0.18992,0.14469 -0.44316,0.21705 -0.7597,0.21705c-0.38889,0 -0.69188,-0.09044 -0.90893,-0.27132c-0.21705,-0.18992 -0.40698,-0.48386 -0.56977,-0.8818l-1.04457,-2.41476l1.08527,0.74612h-7.24428l1.07172,-0.74612l-1.01746,2.41476c-0.17183,0.40698 -0.35725,0.70091 -0.5562,0.8818c-0.18992,0.18087 -0.47029,0.27132 -0.8411,0.27132zM213.65781,176.74416l-2.22482,5.29076l-0.46126,-0.6783h5.42642l-0.46126,0.6783l-2.2384,-5.29076zM222.70416,186.28109c-0.40698,0 -0.71901,-0.11306 -0.93605,-0.33915c-0.20802,-0.2261 -0.31202,-0.54717 -0.31202,-0.96319v-9.90321c0,-0.44316 0.104,-0.77779 0.31202,-1.00388c0.21705,-0.23515 0.50647,-0.35273 0.86823,-0.35273c0.3075,0 0.54717,0.0633 0.71901,0.18992c0.17183,0.11758 0.36628,0.31655 0.58335,0.5969l6.09115,7.75978h-0.46126v-7.25783c0,-0.40698 0.104,-0.72352 0.31202,-0.94963c0.21705,-0.2261 0.52907,-0.33915 0.93605,-0.33915c0.40698,0 0.71448,0.11306 0.9225,0.33915c0.21705,0.2261 0.32558,0.54265 0.32558,0.94963v10.01175c0,0.38889 -0.09948,0.69639 -0.29845,0.9225c-0.19897,0.2261 -0.46577,0.33915 -0.8004,0.33915c-0.32558,0 -0.58335,-0.0633 -0.77327,-0.18992c-0.18992,-0.13566 -0.39343,-0.33915 -0.61048,-0.61048l-6.07758,-7.77335h0.44767v7.2714c0,0.41603 -0.104,0.73709 -0.31202,0.96319c-0.20802,0.2261 -0.52004,0.33915 -0.93605,0.33915zM235.88818,186.28109c-0.44316,0 -0.78231,-0.12209 -1.01746,-0.36628c-0.2261,-0.2442 -0.33915,-0.58785 -0.33915,-1.03102v-9.78112c0,-0.43412 0.11306,-0.77327 0.33915,-1.01746c0.23515,-0.2442 0.5743,-0.36628 1.01746,-0.36628c0.42507,0 0.75066,0.12209 0.97676,0.36628c0.23515,0.2442 0.35273,0.58335 0.35273,1.01746v9.78112c0,0.44316 -0.11306,0.78682 -0.33915,1.03102c-0.2261,0.2442 -0.5562,0.36628 -0.99033,0.36628zM240.9369,186.28109c-0.38889,0 -0.69188,-0.10853 -0.90893,-0.32558c-0.20802,-0.2261 -0.31202,-0.53812 -0.31202,-0.93605v-10.05243c0,-0.38889 0.11306,-0.69188 0.33915,-0.90893c0.2261,-0.2261 0.53812,-0.33915 0.93605,-0.33915c0.34368,0 0.615,0.06783 0.81397,0.2035c0.20802,0.13566 0.39793,0.36175 0.56977,0.6783l4.01555,7.33923h-0.5969l4.01555,-7.33923c0.17183,-0.31655 0.35725,-0.54265 0.5562,-0.6783c0.20802,-0.13566 0.47932,-0.2035 0.81397,-0.2035c0.39793,0 0.70091,0.11306 0.90893,0.33915c0.21705,0.21705 0.32558,0.52004 0.32558,0.90893v10.05243c0,0.39793 -0.104,0.70996 -0.31202,0.93605c-0.20802,0.21705 -0.50647,0.32558 -0.89535,0.32558c-0.39793,0 -0.70543,-0.10853 -0.9225,-0.32558c-0.20802,-0.2261 -0.31202,-0.53812 -0.31202,-0.93605v-7.02721h0.37985l-3.22873,5.77913c-0.14469,0.2261 -0.29393,0.39343 -0.44767,0.50195c-0.15376,0.10853 -0.35725,0.16279 -0.61048,0.16279c-0.26228,0 -0.47481,-0.05878 -0.6376,-0.17636c-0.15376,-0.11758 -0.29393,-0.28037 -0.42054,-0.48837l-3.26943,-5.7927h0.42054v7.04078c0,0.39793 -0.104,0.70996 -0.31202,0.93605c-0.19897,0.21705 -0.50195,0.32558 -0.90893,0.32558zM255.23929,186.28109c-0.31655,0 -0.57882,-0.07688 -0.78682,-0.23062c-0.19897,-0.15376 -0.32558,-0.35725 -0.37985,-0.61048c-0.05426,-0.25322 -0.00453,-0.53812 0.14922,-0.85465l4.44966,-9.74042c0.18087,-0.38889 0.39793,-0.67378 0.65118,-0.85465c0.25322,-0.18087 0.55168,-0.27132 0.89535,-0.27132c0.33463,0 0.62855,0.09044 0.8818,0.27132c0.25322,0.18087 0.46577,0.46577 0.6376,0.85465l4.47679,9.74042c0.15376,0.31655 0.20802,0.60595 0.16279,0.86823c-0.03618,0.26228 -0.15376,0.46577 -0.35273,0.61048c-0.18992,0.14469 -0.44316,0.21705 -0.7597,0.21705c-0.38889,0 -0.69188,-0.09044 -0.90893,-0.27132c-0.21705,-0.18992 -0.40698,-0.48386 -0.56977,-0.8818l-1.04457,-2.41476l1.08527,0.74612h-7.24428l1.07172,-0.74612l-1.01746,2.41476c-0.17183,0.40698 -0.35725,0.70091 -0.5562,0.8818c-0.18992,0.18087 -0.47029,0.27132 -0.8411,0.27132zM260.17733,176.74416l-2.22482,5.29076l-0.46126,-0.6783h5.42642l-0.46126,0.6783l-2.2384,-5.29076zM270.87712,186.28109c-0.44316,0 -0.78231,-0.12209 -1.01746,-0.36628c-0.2261,-0.2442 -0.33915,-0.58785 -0.33915,-1.03102v-8.79081h-3.0795c-0.35273,0 -0.62855,-0.09496 -0.82752,-0.28488c-0.19897,-0.19897 -0.29845,-0.47029 -0.29845,-0.81397c0,-0.36175 0.09948,-0.6376 0.29845,-0.82752c0.19897,-0.18992 0.47481,-0.28488 0.82752,-0.28488h8.84505c0.36175,0 0.6376,0.09496 0.82752,0.28488c0.19897,0.18992 0.29845,0.46577 0.29845,0.82752c0,0.34368 -0.09948,0.615 -0.29845,0.81397c-0.18992,0.18992 -0.46577,0.28488 -0.82752,0.28488h-3.0795v8.79081c0,0.44316 -0.11306,0.78682 -0.33915,1.03102c-0.2261,0.2442 -0.5562,0.36628 -0.99033,0.36628zM278.9348,186.28109c-0.44316,0 -0.78231,-0.12209 -1.01746,-0.36628c-0.2261,-0.2442 -0.33915,-0.58785 -0.33915,-1.03102v-9.78112c0,-0.43412 0.11306,-0.77327 0.33915,-1.01746c0.23515,-0.2442 0.5743,-0.36628 1.01746,-0.36628c0.42507,0 0.75066,0.12209 0.97676,0.36628c0.23515,0.2442 0.35273,0.58335 0.35273,1.01746v9.78112c0,0.44316 -0.11306,0.78682 -0.33915,1.03102c-0.2261,0.2442 -0.5562,0.36628 -0.99033,0.36628zM288.40605,186.30823c-1.20285,0 -2.261,-0.26228 -3.17445,-0.78682c-0.9044,-0.52455 -1.60984,-1.26164 -2.1163,-2.21127c-0.49742,-0.94963 -0.74612,-2.05751 -0.74612,-3.32367c0,-0.95868 0.14018,-1.82238 0.42054,-2.59112c0.2894,-0.76874 0.69639,-1.42895 1.22095,-1.98065c0.5336,-0.55168 1.17572,-0.97676 1.92637,-1.27521c0.75066,-0.29845 1.57366,-0.44767 2.46902,-0.44767c1.22999,0 2.29718,0.26228 3.20158,0.78682c0.9044,0.5155 1.60532,1.24355 2.10273,2.18412c0.50647,0.94058 0.7597,2.04395 0.7597,3.31012c0,0.95868 -0.14469,1.82689 -0.43412,2.60468c-0.2894,0.77779 -0.70091,1.44705 -1.2345,2.00777c-0.5336,0.55168 -1.1712,0.97676 -1.91281,1.27521c-0.73257,0.29845 -1.56009,0.44767 -2.48257,0.44767zM288.40605,184.01556c0.68734,0 1.27068,-0.15827 1.75002,-0.47481c0.47932,-0.31655 0.85015,-0.77779 1.11242,-1.38374c0.26228,-0.615 0.39343,-1.33852 0.39343,-2.17057c0,-1.27521 -0.28488,-2.261 -0.85465,-2.9574c-0.56977,-0.70543 -1.37017,-1.05815 -2.40119,-1.05815c-0.66926,0 -1.24808,0.15827 -1.73645,0.47481c-0.47932,0.31655 -0.85015,0.77779 -1.11242,1.38374c-0.25322,0.5969 -0.37985,1.31591 -0.37985,2.15701c0,1.26617 0.28488,2.25649 0.85465,2.97098c0.56977,0.70543 1.36112,1.05815 2.37405,1.05815zM297.80566,186.28109c-0.40698,0 -0.71901,-0.11306 -0.93605,-0.33915c-0.20802,-0.2261 -0.31202,-0.54717 -0.31202,-0.96319v-9.90321c0,-0.44316 0.104,-0.77779 0.31202,-1.00388c0.21705,-0.23515 0.50647,-0.35273 0.86823,-0.35273c0.3075,0 0.54717,0.0633 0.71901,0.18992c0.17183,0.11758 0.36628,0.31655 0.58335,0.5969l6.09115,7.75978h-0.46126v-7.25783c0,-0.40698 0.104,-0.72352 0.31202,-0.94963c0.21705,-0.2261 0.52907,-0.33915 0.93605,-0.33915c0.40698,0 0.71448,0.11306 0.9225,0.33915c0.21705,0.2261 0.32558,0.54265 0.32558,0.94963v10.01175c0,0.38889 -0.09948,0.69639 -0.29845,0.9225c-0.19897,0.2261 -0.46577,0.33915 -0.8004,0.33915c-0.32558,0 -0.58335,-0.0633 -0.77327,-0.18992c-0.18992,-0.13566 -0.39343,-0.33915 -0.61048,-0.61048l-6.07758,-7.77335h0.44767v7.2714c0,0.41603 -0.104,0.73709 -0.31202,0.96319c-0.20802,0.2261 -0.52004,0.33915 -0.93605,0.33915zM314.00135,186.30823c-0.47932,0 -0.97223,-0.0407 -1.4787,-0.12209c-0.50647,-0.07235 -0.99033,-0.17636 -1.45157,-0.31202c-0.45221,-0.13566 -0.85465,-0.3075 -1.20738,-0.5155c-0.26228,-0.14469 -0.44767,-0.3301 -0.5562,-0.5562c-0.09948,-0.2261 -0.13566,-0.45221 -0.10853,-0.6783c0.03618,-0.23515 0.12662,-0.43863 0.27132,-0.61048c0.14469,-0.18087 0.3301,-0.29845 0.5562,-0.35273c0.2261,-0.05426 0.47481,-0.01357 0.74612,0.12209c0.47932,0.27132 0.99937,0.47029 1.56009,0.5969c0.56073,0.12662 1.11694,0.18992 1.66862,0.18992c0.85015,0 1.45157,-0.13114 1.80428,-0.39343c0.36175,-0.26228 0.54265,-0.58785 0.54265,-0.97676c0,-0.33463 -0.12662,-0.60143 -0.37985,-0.8004c-0.25322,-0.19897 -0.69639,-0.36628 -1.32947,-0.50195l-1.96707,-0.42054c-1.11242,-0.2261 -1.93995,-0.61951 -2.48257,-1.18025c-0.5336,-0.56977 -0.8004,-1.31138 -0.8004,-2.22482c0,-0.57882 0.12209,-1.10337 0.36628,-1.57366c0.2442,-0.47932 0.58335,-0.89083 1.01746,-1.2345c0.44316,-0.35273 0.96771,-0.61951 1.57366,-0.8004c0.60595,-0.18087 1.27521,-0.27132 2.00777,-0.27132c0.65118,0 1.28878,0.07688 1.91281,0.23062c0.62405,0.15376 1.1712,0.37985 1.6415,0.6783c0.23515,0.14469 0.39343,0.32558 0.47481,0.54265c0.09044,0.20802 0.12209,0.42054 0.09496,0.6376c-0.02713,0.20802 -0.11306,0.39343 -0.25775,0.5562c-0.14469,0.16279 -0.3301,0.27132 -0.5562,0.32558c-0.21705,0.04523 -0.47932,-0.00905 -0.78682,-0.16279c-0.38889,-0.19897 -0.79587,-0.34368 -1.22095,-0.43412c-0.42507,-0.09044 -0.8637,-0.13566 -1.31591,-0.13566c-0.48837,0 -0.9044,0.0633 -1.24808,0.18992c-0.34368,0.12662 -0.60595,0.3075 -0.78682,0.54265c-0.17183,0.2261 -0.25775,0.48837 -0.25775,0.78682c0,0.33463 0.12209,0.60595 0.36628,0.81397c0.2442,0.20802 0.66473,0.37985 1.26164,0.5155l1.96707,0.40698c1.1305,0.2442 1.9716,0.6376 2.52327,1.18025c0.56073,0.5336 0.8411,1.23903 0.8411,2.1163c0,0.57882 -0.11758,1.10337 -0.35273,1.57366c-0.2261,0.47029 -0.56073,0.87275 -1.00388,1.20738c-0.43412,0.33463 -0.95868,0.59238 -1.57366,0.77327c-0.615,0.18087 -1.30686,0.27132 -2.0756,0.27132z"/></g></g></svg>